Commissioner-HairStraightFlair.ufo
<glyph name="numbersign" format="2">
  <advance width="671"/>
  <unicode hex="0023"/>
  <outline>
    <contour>
      <point x="20" y="171" type="line"/>
      <point x="78" y="171"/>
      <point x="133" y="171"/>
      <point x="180" y="171" type="curve"/>
      <point x="430" y="171" type="line"/>
      <point x="477" y="171"/>
      <point x="532" y="171"/>
      <point x="590" y="171" type="curve"/>
      <point x="590" y="199" type="line"/>
      <point x="532" y="199"/>
      <point x="477" y="199"/>
      <point x="430" y="199" type="curve"/>
      <point x="180" y="199" type="line"/>
      <point x="133" y="199"/>
      <point x="78" y="199"/>
      <point x="20" y="199" type="curve"/>
    </contour>
    <contour>
      <point x="130" y="0" type="curve"/>
      <point x="161" y="0" type="line"/>
      <point x="176" y="69"/>
      <point x="188" y="125"/>
      <point x="206" y="209" type="curve"/>
      <point x="255" y="434" type="line"/>
      <point x="274" y="523"/>
      <point x="287" y="583"/>
      <point x="302" y="653" type="curve"/>
      <point x="271" y="653" type="line"/>
      <point x="256" y="583"/>
      <point x="243" y="523"/>
      <point x="224" y="436" type="curve"/>
      <point x="175" y="209" type="line"/>
      <point x="157" y="125"/>
      <point x="145" y="69"/>
    </contour>
    <contour>
      <point x="81" y="451" type="line"/>
      <point x="139" y="451"/>
      <point x="194" y="451"/>
      <point x="241" y="451" type="curve"/>
      <point x="491" y="451" type="line"/>
      <point x="538" y="451"/>
      <point x="593" y="451"/>
      <point x="651" y="451" type="curve"/>
      <point x="651" y="479" type="line"/>
      <point x="593" y="479"/>
      <point x="538" y="479"/>
      <point x="491" y="479" type="curve"/>
      <point x="241" y="479" type="line"/>
      <point x="194" y="479"/>
      <point x="139" y="479"/>
      <point x="81" y="479" type="curve"/>
    </contour>
    <contour>
      <point x="360" y="0" type="curve"/>
      <point x="391" y="0" type="line"/>
      <point x="406" y="69"/>
      <point x="418" y="125"/>
      <point x="436" y="209" type="curve"/>
      <point x="485" y="434" type="line"/>
      <point x="504" y="523"/>
      <point x="517" y="583"/>
      <point x="532" y="653" type="curve"/>
      <point x="501" y="653" type="line"/>
      <point x="486" y="583"/>
      <point x="473" y="523"/>
      <point x="454" y="436" type="curve"/>
      <point x="405" y="209" type="line"/>
      <point x="387" y="125"/>
      <point x="375" y="69"/>
    </contour>
  </outline>
</glyph>
<glyph name="percent" format="2">
  <advance width="834"/>
  <unicode hex="0025"/>
  <outline>
    <contour>
      <point x="200" y="0" type="curve"/>
      <point x="234" y="0" type="line"/>
      <point x="275" y="73"/>
      <point x="311" y="138"/>
      <point x="362" y="229" type="curve"/>
      <point x="501" y="477" type="line"/>
      <point x="554" y="572"/>
      <point x="590" y="636"/>
      <point x="633" y="713" type="curve"/>
      <point x="599" y="713" type="line"/>
      <point x="556" y="636"/>
      <point x="520" y="572"/>
      <point x="467" y="477" type="curve"/>
      <point x="328" y="229" type="line"/>
      <point x="277" y="138"/>
      <point x="241" y="73"/>
    </contour>
    <contour>
      <point x="216" y="378" type="curve" smooth="yes"/>
      <point x="318" y="378"/>
      <point x="392" y="447"/>
      <point x="392" y="550" type="curve" smooth="yes"/>
      <point x="392" y="650"/>
      <point x="318" y="725"/>
      <point x="217" y="725" type="curve" smooth="yes"/>
      <point x="115" y="725"/>
      <point x="40" y="650"/>
      <point x="40" y="550" type="curve" smooth="yes"/>
      <point x="40" y="447"/>
      <point x="115" y="378"/>
    </contour>
    <contour>
      <point x="216" y="409" type="curve"/>
      <point x="127" y="409"/>
      <point x="71" y="461"/>
      <point x="71" y="550" type="curve" smooth="yes"/>
      <point x="71" y="636"/>
      <point x="127" y="694"/>
      <point x="217" y="694" type="curve"/>
      <point x="307" y="694"/>
      <point x="361" y="636"/>
      <point x="361" y="550" type="curve" smooth="yes"/>
      <point x="361" y="461"/>
      <point x="307" y="409"/>
    </contour>
    <contour>
      <point x="618" y="-9" type="curve" smooth="yes"/>
      <point x="720" y="-9"/>
      <point x="794" y="60"/>
      <point x="794" y="163" type="curve" smooth="yes"/>
      <point x="794" y="263"/>
      <point x="720" y="338"/>
      <point x="619" y="338" type="curve" smooth="yes"/>
      <point x="517" y="338"/>
      <point x="442" y="263"/>
      <point x="442" y="163" type="curve" smooth="yes"/>
      <point x="442" y="60"/>
      <point x="517" y="-9"/>
    </contour>
    <contour>
      <point x="618" y="22" type="curve"/>
      <point x="529" y="22"/>
      <point x="473" y="74"/>
      <point x="473" y="163" type="curve" smooth="yes"/>
      <point x="473" y="249"/>
      <point x="529" y="307"/>
      <point x="619" y="307" type="curve"/>
      <point x="709" y="307"/>
      <point x="763" y="249"/>
      <point x="763" y="163" type="curve" smooth="yes"/>
      <point x="763" y="74"/>
      <point x="709" y="22"/>
    </contour>
  </outline>
</glyph>
<glyph name="ampersand" format="2">
  <advance width="710"/>
  <unicode hex="0026"/>
  <outline>
    <contour>
      <point x="643" y="0" type="curve"/>
      <point x="687" y="0" type="line"/>
      <point x="633" y="52"/>
      <point x="579" y="105"/>
      <point x="524" y="158" type="curve"/>
      <point x="284" y="391" type="line" smooth="yes"/>
      <point x="215" y="458"/>
      <point x="183" y="503"/>
      <point x="183" y="565" type="curve" smooth="yes"/>
      <point x="183" y="637"/>
      <point x="228" y="694"/>
      <point x="304" y="694" type="curve"/>
      <point x="370" y="694"/>
      <point x="418" y="649"/>
      <point x="418" y="575" type="curve" smooth="yes"/>
      <point x="418" y="482"/>
      <point x="344" y="441"/>
      <point x="263" y="407" type="curve"/>
      <point x="282" y="384" type="line"/>
      <point x="360" y="416"/>
      <point x="449" y="466"/>
      <point x="449" y="575" type="curve" smooth="yes"/>
      <point x="449" y="668"/>
      <point x="383" y="725"/>
      <point x="304" y="725" type="curve" smooth="yes"/>
      <point x="220" y="725"/>
      <point x="152" y="661"/>
      <point x="152" y="565" type="curve" smooth="yes"/>
      <point x="152" y="489"/>
      <point x="194" y="435"/>
      <point x="262" y="369" type="curve" smooth="yes"/>
      <point x="502" y="136" type="line"/>
      <point x="549" y="91"/>
      <point x="597" y="44"/>
    </contour>
    <contour>
      <point x="276" y="-9" type="curve" smooth="yes"/>
      <point x="380" y="-9"/>
      <point x="444" y="39"/>
      <point x="508" y="125" type="curve"/>
      <point x="520" y="125" type="line"/>
      <point x="517" y="137" type="line"/>
      <point x="491" y="154" type="line"/>
      <point x="425" y="59"/>
      <point x="367" y="22"/>
      <point x="276" y="22" type="curve"/>
      <point x="158" y="22"/>
      <point x="91" y="84"/>
      <point x="91" y="181" type="curve" smooth="yes"/>
      <point x="91" y="281"/>
      <point x="167" y="340"/>
      <point x="263" y="384" type="curve"/>
      <point x="248" y="410" type="line"/>
      <point x="161" y="370"/>
      <point x="60" y="303"/>
      <point x="60" y="181" type="curve" smooth="yes"/>
      <point x="60" y="78"/>
      <point x="132" y="-9"/>
    </contour>
    <contour>
      <point x="528" y="148" type="line"/>
      <point x="569" y="212"/>
      <point x="608" y="273"/>
      <point x="648" y="337" type="curve"/>
      <point x="621" y="351" type="line"/>
      <point x="582" y="289"/>
      <point x="545" y="231"/>
      <point x="504" y="166" type="curve"/>
    </contour>
  </outline>
</glyph>
<glyph name="quotesingle" format="2">
  <advance width="183"/>
  <unicode hex="0027"/>
  <outline>
    <contour>
      <point x="65" y="466" type="curve"/>
      <point x="91" y="467" type="line"/>
      <point x="91" y="560"/>
      <point x="97" y="653"/>
      <point x="103" y="744" type="curve"/>
      <point x="53" y="743" type="line"/>
      <point x="59" y="652"/>
      <point x="65" y="560"/>
    </contour>
  </outline>
</glyph>
<glyph name="parenleft" format="2">
  <advance width="364"/>
  <unicode hex="0028"/>
  <outline>
    <contour>
      <point x="283" y="-112" type="curve"/>
      <point x="314" y="-97" type="line"/>
      <point x="203" y="-11"/>
      <point x="102" y="116"/>
      <point x="102" y="324" type="curve" smooth="yes"/>
      <point x="102" y="533"/>
      <point x="203" y="659"/>
      <point x="314" y="745" type="curve"/>
      <point x="283" y="760" type="line"/>
      <point x="161" y="660"/>
      <point x="70" y="533"/>
      <point x="70" y="324" type="curve" smooth="yes"/>
      <point x="70" y="116"/>
      <point x="161" y="-12"/>
    </contour>
  </outline>
</glyph>
<glyph name="asterisk" format="2">
  <advance width="458"/>
  <unicode hex="002A"/>
  <outline>
    <contour>
      <point x="411" y="386" type="curve"/>
      <point x="428" y="413" type="line"/>
      <point x="364" y="452"/>
      <point x="299" y="490"/>
      <point x="236" y="529" type="curve"/>
      <point x="172" y="570"/>
      <point x="110" y="611"/>
      <point x="47" y="652" type="curve"/>
      <point x="30" y="625" type="line"/>
      <point x="94" y="586"/>
      <point x="159" y="548"/>
      <point x="223" y="508" type="curve"/>
      <point x="286" y="468"/>
      <point x="348" y="427"/>
    </contour>
    <contour>
      <point x="47" y="386" type="line"/>
      <point x="110" y="427"/>
      <point x="172" y="468"/>
      <point x="236" y="509" type="curve"/>
      <point x="299" y="548"/>
      <point x="364" y="586"/>
      <point x="428" y="625" type="curve"/>
      <point x="411" y="652" type="line"/>
      <point x="348" y="611"/>
      <point x="286" y="570"/>
      <point x="223" y="530" type="curve"/>
      <point x="159" y="490"/>
      <point x="94" y="452"/>
      <point x="30" y="413" type="curve"/>
    </contour>
    <contour>
      <point x="213" y="294" type="curve"/>
      <point x="245" y="294" type="line"/>
      <point x="244" y="369"/>
      <point x="242" y="444"/>
      <point x="241" y="520" type="curve"/>
      <point x="242" y="594"/>
      <point x="244" y="669"/>
      <point x="245" y="744" type="curve"/>
      <point x="213" y="744" type="line"/>
      <point x="214" y="669"/>
      <point x="216" y="594"/>
      <point x="217" y="520" type="curve"/>
      <point x="216" y="444"/>
      <point x="214" y="369"/>
    </contour>
  </outline>
</glyph>
<glyph name="comma" format="2">
  <advance width="214"/>
  <unicode hex="002C"/>
  <outline>
    <contour>
      <point x="45" y="-157" type="curve"/>
      <point x="70" y="-156" type="line"/>
      <point x="117" y="-110"/>
      <point x="151" y="-28"/>
      <point x="151" y="44" type="curve" smooth="yes"/>
      <point x="151" y="68"/>
      <point x="141" y="85"/>
      <point x="119" y="86" type="curve"/>
      <point x="97" y="85" type="line"/>
      <point x="97" y="61"/>
      <point x="97" y="37"/>
      <point x="97" y="13" type="curve"/>
      <point x="97" y="-54"/>
      <point x="86" y="-102"/>
    </contour>
  </outline>
</glyph>
<glyph name="hyphen" format="2">
  <advance width="420"/>
  <unicode hex="002D"/>
  <outline>
    <contour>
      <point x="70" y="280" type="line"/>
      <point x="121" y="280"/>
      <point x="169" y="280"/>
      <point x="210" y="280" type="curve"/>
      <point x="251" y="280"/>
      <point x="299" y="280"/>
      <point x="350" y="280" type="curve"/>
      <point x="350" y="310" type="line"/>
      <point x="299" y="310"/>
      <point x="251" y="310"/>
      <point x="210" y="310" type="curve"/>
      <point x="169" y="310"/>
      <point x="121" y="310"/>
      <point x="70" y="310" type="curve"/>
    </contour>
  </outline>
</glyph>
<glyph name="zero" format="2">
  <advance width="643"/>
  <unicode hex="0030"/>
  <outline>
    <contour>
      <point x="324" y="-9" type="curve" smooth="yes"/>
      <point x="484" y="-9"/>
      <point x="578" y="126"/>
      <point x="578" y="344" type="curve" smooth="yes"/>
      <point x="578" y="556"/>
      <point x="488" y="696"/>
      <point x="322" y="696" type="curve" smooth="yes"/>
      <point x="159" y="696"/>
      <point x="65" y="558"/>
      <point x="65" y="344" type="curve" smooth="yes"/>
      <point x="65" y="137"/>
      <point x="150" y="-9"/>
    </contour>
    <contour>
      <point x="322" y="23" type="curve"/>
      <point x="162" y="23"/>
      <point x="97" y="158"/>
      <point x="97" y="344" type="curve" smooth="yes"/>
      <point x="97" y="528"/>
      <point x="165" y="664"/>
      <point x="322" y="664" type="curve"/>
      <point x="475" y="664"/>
      <point x="546" y="539"/>
      <point x="546" y="344" type="curve" smooth="yes"/>
      <point x="546" y="161"/>
      <point x="482" y="23"/>
    </contour>
  </outline>
</glyph>
<glyph name="seven" format="2">
  <advance width="511"/>
  <unicode hex="0037"/>
  <outline>
    <contour>
      <point x="125" y="0" type="curve"/>
      <point x="160" y="0" type="line"/>
      <point x="200" y="86"/>
      <point x="240" y="173"/>
      <point x="279" y="257" type="curve"/>
      <point x="347" y="403" type="line"/>
      <point x="388" y="492"/>
      <point x="426" y="574"/>
      <point x="466" y="660" type="curve"/>
      <point x="466" y="684" type="line"/>
      <point x="25" y="684" type="line"/>
      <point x="25" y="654" type="line"/>
      <point x="114" y="654"/>
      <point x="203" y="654"/>
      <point x="291" y="654" type="curve"/>
      <point x="440" y="654" type="line"/>
      <point x="434" y="664" type="line"/>
      <point x="409" y="610"/>
      <point x="384" y="557"/>
      <point x="359" y="503" type="curve"/>
      <point x="257" y="284" type="line"/>
      <point x="214" y="191"/>
      <point x="169" y="95"/>
    </contour>
  </outline>
</glyph>
<glyph name="eight" format="2">
  <advance width="598"/>
  <unicode hex="0038"/>
  <outline>
    <contour>
      <point x="299" y="-9" type="curve" smooth="yes"/>
      <point x="460" y="-9"/>
      <point x="538" y="81"/>
      <point x="538" y="191" type="curve" smooth="yes"/>
      <point x="538" y="306"/>
      <point x="451" y="359"/>
      <point x="393" y="371" type="curve"/>
      <point x="393" y="377" type="line"/>
      <point x="452" y="394"/>
      <point x="512" y="449"/>
      <point x="512" y="531" type="curve" smooth="yes"/>
      <point x="512" y="630"/>
      <point x="426" y="696"/>
      <point x="299" y="696" type="curve" smooth="yes"/>
      <point x="172" y="696"/>
      <point x="86" y="630"/>
      <point x="86" y="531" type="curve" smooth="yes"/>
      <point x="86" y="449"/>
      <point x="146" y="394"/>
      <point x="204" y="377" type="curve"/>
      <point x="204" y="371" type="line"/>
      <point x="147" y="359"/>
      <point x="60" y="306"/>
      <point x="60" y="191" type="curve" smooth="yes"/>
      <point x="60" y="81"/>
      <point x="138" y="-9"/>
    </contour>
    <contour>
      <point x="299" y="23" type="curve"/>
      <point x="152" y="23"/>
      <point x="91" y="95"/>
      <point x="91" y="191" type="curve" smooth="yes"/>
      <point x="91" y="305"/>
      <point x="183" y="358"/>
      <point x="299" y="358" type="curve"/>
      <point x="415" y="358"/>
      <point x="507" y="305"/>
      <point x="507" y="191" type="curve" smooth="yes"/>
      <point x="507" y="95"/>
      <point x="446" y="23"/>
    </contour>
    <contour>
      <point x="299" y="388" type="curve"/>
      <point x="182" y="388"/>
      <point x="117" y="448"/>
      <point x="117" y="532" type="curve" smooth="yes"/>
      <point x="117" y="617"/>
      <point x="188" y="664"/>
      <point x="299" y="664" type="curve"/>
      <point x="409" y="664"/>
      <point x="481" y="617"/>
      <point x="481" y="532" type="curve" smooth="yes"/>
      <point x="481" y="448"/>
      <point x="415" y="388"/>
    </contour>
  </outline>
</glyph>
<glyph name="less" format="2">
  <advance width="560"/>
  <unicode hex="003C"/>
  <outline>
    <contour>
      <point x="490" y="88" type="curve"/>
      <point x="490" y="121" type="line"/>
      <point x="410" y="157"/>
      <point x="325" y="195"/>
      <point x="243" y="232" type="curve"/>
      <point x="112" y="291" type="line"/>
      <point x="112" y="297" type="line"/>
      <point x="243" y="356" type="line"/>
      <point x="325" y="393"/>
      <point x="410" y="431"/>
      <point x="490" y="467" type="curve"/>
      <point x="490" y="500" type="line"/>
      <point x="433" y="474"/>
      <point x="377" y="449"/>
      <point x="329" y="427" type="curve"/>
      <point x="229" y="382" type="line"/>
      <point x="183" y="361"/>
      <point x="127" y="336"/>
      <point x="70" y="310" type="curve"/>
      <point x="70" y="278" type="line"/>
      <point x="127" y="252"/>
      <point x="183" y="227"/>
      <point x="229" y="206" type="curve"/>
      <point x="329" y="161" type="line"/>
      <point x="377" y="139"/>
      <point x="433" y="114"/>
    </contour>
  </outline>
</glyph>
<glyph name="equal" format="2">
  <advance width="560"/>
  <unicode hex="003D"/>
  <outline>
    <contour>
      <point x="70" y="175" type="line"/>
      <point x="128" y="175"/>
      <point x="183" y="175"/>
      <point x="230" y="175" type="curve"/>
      <point x="330" y="175" type="line"/>
      <point x="377" y="175"/>
      <point x="432" y="175"/>
      <point x="490" y="175" type="curve"/>
      <point x="490" y="205" type="line"/>
      <point x="432" y="205"/>
      <point x="377" y="205"/>
      <point x="330" y="205" type="curve"/>
      <point x="230" y="205" type="line"/>
      <point x="183" y="205"/>
      <point x="128" y="205"/>
      <point x="70" y="205" type="curve"/>
    </contour>
    <contour>
      <point x="70" y="385" type="line"/>
      <point x="128" y="385"/>
      <point x="183" y="385"/>
      <point x="230" y="385" type="curve"/>
      <point x="330" y="385" type="line"/>
      <point x="377" y="385"/>
      <point x="432" y="385"/>
      <point x="490" y="385" type="curve"/>
      <point x="490" y="415" type="line"/>
      <point x="432" y="415"/>
      <point x="377" y="415"/>
      <point x="330" y="415" type="curve"/>
      <point x="230" y="415" type="line"/>
      <point x="183" y="415"/>
      <point x="128" y="415"/>
      <point x="70" y="415" type="curve"/>
    </contour>
  </outline>
</glyph>
<glyph name="A" format="2">
  <advance width="668"/>
  <unicode hex="0041"/>
  <anchor x="334" y="0" name="bottom"/>
  <anchor x="632" y="0" name="ogonek"/>
  <anchor x="334" y="713" name="top"/>
  <outline>
    <contour>
      <point x="36" y="0" type="curve"/>
      <point x="70" y="0" type="line"/>
      <point x="105" y="90"/>
      <point x="143" y="187"/>
      <point x="177" y="275" type="curve"/>
      <point x="333" y="677" type="line"/>
      <point x="339" y="677" type="line"/>
      <point x="494" y="272" type="line"/>
      <point x="526" y="188"/>
      <point x="564" y="89"/>
      <point x="598" y="0" type="curve"/>
      <point x="632" y="0" type="line"/>
      <point x="603" y="76"/>
      <point x="570" y="162"/>
      <point x="540" y="241" type="curve"/>
      <point x="446" y="487" type="line"/>
      <point x="412" y="575"/>
      <point x="387" y="641"/>
      <point x="359" y="713" type="curve"/>
      <point x="313" y="713" type="line"/>
      <point x="285" y="641"/>
      <point x="259" y="575"/>
      <point x="225" y="487" type="curve"/>
      <point x="130" y="242" type="line"/>
      <point x="100" y="165"/>
      <point x="66" y="77"/>
    </contour>
    <contour>
      <point x="137" y="203" type="line"/>
      <point x="532" y="203" type="line"/>
      <point x="532" y="233" type="line"/>
      <point x="137" y="233" type="line"/>
    </contour>
  </outline>
</glyph>
<glyph name="D" format="2">
  <advance width="739"/>
  <unicode hex="0044"/>
  <anchor x="350" y="0" name="bottom"/>
  <anchor x="370" y="357" name="center"/>
  <anchor x="350" y="713" name="top"/>
  <outline>
    <contour>
      <point x="110" y="0" type="curve"/>
      <point x="186" y="0"/>
      <point x="237" y="0"/>
      <point x="315" y="0" type="curve"/>
      <point x="579" y="0"/>
      <point x="679" y="159"/>
      <point x="679" y="360" type="curve" smooth="yes"/>
      <point x="679" y="580"/>
      <point x="556" y="713"/>
      <point x="334" y="713" type="curve"/>
      <point x="262" y="713"/>
      <point x="204" y="713"/>
      <point x="110" y="713" type="curve"/>
      <point x="110" y="632"/>
      <point x="110" y="562"/>
      <point x="110" y="475" type="curve"/>
      <point x="110" y="238" type="line"/>
      <point x="110" y="151"/>
      <point x="110" y="81"/>
    </contour>
    <contour>
      <point x="142" y="31" type="line"/>
      <point x="142" y="99"/>
      <point x="142" y="162"/>
      <point x="142" y="238" type="curve"/>
      <point x="142" y="475" type="line"/>
      <point x="142" y="551"/>
      <point x="142" y="614"/>
      <point x="142" y="682" type="curve"/>
      <point x="329" y="682" type="line"/>
      <point x="548" y="682"/>
      <point x="646" y="556"/>
      <point x="646" y="361" type="curve" smooth="yes"/>
      <point x="646" y="173"/>
      <point x="560" y="31"/>
      <point x="316" y="31" type="curve"/>
    </contour>
  </outline>
</glyph>
<glyph name="F" format="2">
  <advance width="571"/>
  <unicode hex="0046"/>
  <outline>
    <contour>
      <point x="110" y="0" type="curve"/>
      <point x="142" y="0" type="line"/>
      <point x="142" y="81"/>
      <point x="142" y="151"/>
      <point x="142" y="238" type="curve"/>
      <point x="142" y="472" type="line"/>
      <point x="142" y="559"/>
      <point x="142" y="629"/>
      <point x="142" y="710" type="curve"/>
      <point x="142" y="713" type="line"/>
      <point x="110" y="713" type="line"/>
      <point x="110" y="632"/>
      <point x="110" y="562"/>
      <point x="110" y="475" type="curve"/>
      <point x="110" y="238" type="line"/>
      <point x="110" y="151"/>
      <point x="110" y="81"/>
    </contour>
    <contour>
      <point x="136" y="347" type="line"/>
      <point x="270" y="347" type="line"/>
      <point x="364" y="347"/>
      <point x="427" y="347"/>
      <point x="496" y="347" type="curve"/>
      <point x="496" y="378" type="line"/>
      <point x="431" y="378"/>
      <point x="367" y="378"/>
      <point x="271" y="378" type="curve"/>
      <point x="136" y="378" type="line"/>
    </contour>
    <contour>
      <point x="136" y="682" type="line"/>
      <point x="262" y="682" type="line"/>
      <point x="372" y="682"/>
      <point x="448" y="682"/>
      <point x="519" y="682" type="curve"/>
      <point x="519" y="713" type="line"/>
      <point x="136" y="713" type="line"/>
    </contour>
  </outline>
</glyph>
<glyph name="H" format="2">
  <advance width="749"/>
  <unicode hex="0048"/>
  <anchor x="375" y="0" name="bottom"/>
  <anchor x="375" y="357" name="center"/>
  <anchor x="375" y="713" name="top"/>
  <anchor x="36" y="713" name="topleft"/>
  <outline>
    <contour>
      <point x="607" y="0" type="curve"/>
      <point x="639" y="0" type="line"/>
      <point x="639" y="81"/>
      <point x="639" y="151"/>
      <point x="639" y="238" type="curve"/>
      <point x="639" y="475" type="line"/>
      <point x="639" y="562"/>
      <point x="639" y="632"/>
      <point x="639" y="713" type="curve"/>
      <point x="607" y="713" type="line"/>
      <point x="607" y="632"/>
      <point x="607" y="562"/>
      <point x="607" y="475" type="curve"/>
      <point x="607" y="238" type="line"/>
      <point x="607" y="151"/>
      <point x="607" y="81"/>
    </contour>
    <contour>
      <point x="110" y="0" type="curve"/>
      <point x="142" y="0" type="line"/>
      <point x="142" y="81"/>
      <point x="142" y="151"/>
      <point x="142" y="238" type="curve"/>
      <point x="142" y="475" type="line"/>
      <point x="142" y="562"/>
      <point x="142" y="632"/>
      <point x="142" y="713" type="curve"/>
      <point x="110" y="713" type="line"/>
      <point x="110" y="632"/>
      <point x="110" y="562"/>
      <point x="110" y="475" type="curve"/>
      <point x="110" y="238" type="line"/>
      <point x="110" y="151"/>
      <point x="110" y="81"/>
    </contour>
    <contour>
      <point x="121" y="347" type="line"/>
      <point x="631" y="347" type="line"/>
      <point x="631" y="378" type="line"/>
      <point x="121" y="378" type="line"/>
    </contour>
  </outline>
</glyph>
<glyph name="I" format="2">
  <advance width="252"/>
  <unicode hex="0049"/>
  <anchor x="126" y="0" name="bottom"/>
  <anchor x="142" y="0" name="ogonek"/>
  <anchor x="126" y="713" name="top"/>
  <anchor x="37" y="713" name="topleft"/>
  <outline>
    <contour>
      <point x="110" y="0" type="curve"/>
      <point x="142" y="0" type="line"/>
      <point x="142" y="81"/>
      <point x="142" y="151"/>
      <point x="142" y="238" type="curve"/>
      <point x="142" y="475" type="line"/>
      <point x="142" y="562"/>
      <point x="142" y="632"/>
      <point x="142" y="713" type="curve"/>
      <point x="110" y="713" type="line"/>
      <point x="110" y="632"/>
      <point x="110" y="562"/>
      <point x="110" y="475" type="curve"/>
      <point x="110" y="238" type="line"/>
      <point x="110" y="151"/>
      <point x="110" y="81"/>
    </contour>
  </outline>
</glyph>
<glyph name="J" format="2">
  <advance width="269"/>
  <unicode hex="004A"/>
  <anchor x="142" y="0" name="bottom"/>
  <anchor x="142" y="713" name="top"/>
  <outline>
    <contour>
      <point x="25" y="-160" type="curve"/>
      <point x="69" y="-160" type="line"/>
      <point x="114" y="-115"/>
      <point x="159" y="-54"/>
      <point x="159" y="52" type="curve" smooth="yes"/>
      <point x="159" y="121"/>
      <point x="159" y="192"/>
      <point x="159" y="269" type="curve"/>
      <point x="159" y="475" type="line"/>
      <point x="159" y="562"/>
      <point x="159" y="632"/>
      <point x="159" y="713" type="curve"/>
      <point x="127" y="713" type="line"/>
      <point x="127" y="632"/>
      <point x="127" y="562"/>
      <point x="127" y="475" type="curve"/>
      <point x="127" y="238" type="line"/>
      <point x="127" y="59" type="line"/>
      <point x="126" y="-47"/>
      <point x="87" y="-99"/>
    </contour>
  </outline>
</glyph>
<glyph name="L" format="2">
  <advance width="546"/>
  <unicode hex="004C"/>
  <anchor x="319" y="0" name="bottom"/>
  <anchor x="412" y="357" name="center"/>
  <anchor x="182" y="713" name="top"/>
  <anchor x="268" y="494" name="topright"/>
  <outline>
    <contour>
      <point x="110" y="0" type="curve"/>
      <point x="142" y="0" type="line"/>
      <point x="142" y="4" type="line"/>
      <point x="142" y="85"/>
      <point x="142" y="155"/>
      <point x="142" y="242" type="curve"/>
      <point x="142" y="475" type="line"/>
      <point x="142" y="562"/>
      <point x="142" y="632"/>
      <point x="142" y="713" type="curve"/>
      <point x="110" y="713" type="line"/>
      <point x="110" y="632"/>
      <point x="110" y="562"/>
      <point x="110" y="475" type="curve"/>
      <point x="110" y="238" type="line"/>
      <point x="110" y="151"/>
      <point x="110" y="81"/>
    </contour>
    <contour>
      <point x="136" y="0" type="line"/>
      <point x="528" y="0" type="line"/>
      <point x="528" y="31" type="line"/>
      <point x="444" y="31"/>
      <point x="373" y="31"/>
      <point x="250" y="31" type="curve"/>
      <point x="136" y="31" type="line"/>
    </contour>
  </outline>
</glyph>
<glyph name="M" format="2">
  <advance width="953"/>
  <unicode hex="004D"/>
  <anchor x="477" y="0" name="bottom"/>
  <anchor x="477" y="713" name="top"/>
  <outline>
    <contour>
      <point x="80" y="0" type="curve"/>
      <point x="114" y="0" type="line"/>
      <point x="132" y="147"/>
      <point x="148" y="281"/>
      <point x="162" y="396" type="curve"/>
      <point x="192" y="644" type="line"/>
      <point x="195" y="644" type="line"/>
      <point x="308" y="374" type="line"/>
      <point x="360" y="249"/>
      <point x="421" y="104"/>
      <point x="465" y="0" type="curve"/>
      <point x="489" y="0" type="line"/>
      <point x="537" y="112"/>
      <point x="594" y="247"/>
      <point x="648" y="376" type="curve"/>
      <point x="761" y="644" type="line"/>
      <point x="764" y="644" type="line"/>
      <point x="794" y="396" type="line"/>
      <point x="808" y="281"/>
      <point x="824" y="147"/>
      <point x="842" y="0" type="curve"/>
      <point x="873" y="0" type="line"/>
      <point x="864" y="81"/>
      <point x="855" y="152"/>
      <point x="845" y="238" type="curve"/>
      <point x="817" y="473" type="line"/>
      <point x="806" y="561"/>
      <point x="798" y="631"/>
      <point x="788" y="713" type="curve"/>
      <point x="755" y="713" type="line"/>
      <point x="706" y="596"/>
      <point x="661" y="487"/>
      <point x="615" y="378" type="curve"/>
      <point x="480" y="55" type="line"/>
      <point x="476" y="55" type="line"/>
      <point x="341" y="378" type="line"/>
      <point x="295" y="487"/>
      <point x="250" y="596"/>
      <point x="201" y="713" type="curve"/>
      <point x="169" y="713" type="line"/>
      <point x="159" y="630"/>
      <point x="150" y="559"/>
      <point x="139" y="473" type="curve"/>
      <point x="110" y="238" type="line"/>
      <point x="99" y="151"/>
      <point x="90" y="79"/>
    </contour>
  </outline>
</glyph>
<glyph name="N" format="2">
  <advance width="757"/>
  <unicode hex="004E"/>
  <anchor x="379" y="0" name="bottom"/>
  <anchor x="379" y="713" name="top"/>
  <outline>
    <contour>
      <point x="110" y="0" type="curve"/>
      <point x="142" y="0" type="line"/>
      <point x="142" y="81"/>
      <point x="142" y="151"/>
      <point x="142" y="238" type="curve"/>
      <point x="142" y="655" type="line"/>
      <point x="146" y="655" type="line"/>
      <point x="331" y="396" type="line"/>
      <point x="442" y="241"/>
      <point x="532" y="116"/>
      <point x="615" y="0" type="curve"/>
      <point x="647" y="0" type="line"/>
      <point x="647" y="81"/>
      <point x="647" y="151"/>
      <point x="647" y="238" type="curve"/>
      <point x="647" y="475" type="line"/>
      <point x="647" y="562"/>
      <point x="647" y="632"/>
      <point x="647" y="713" type="curve"/>
      <point x="615" y="713" type="line"/>
      <point x="615" y="632"/>
      <point x="615" y="562"/>
      <point x="615" y="475" type="curve"/>
      <point x="615" y="62" type="line"/>
      <point x="611" y="62" type="line"/>
      <point x="426" y="319" type="line"/>
      <point x="335" y="445"/>
      <point x="243" y="575"/>
      <point x="143" y="713" type="curve"/>
      <point x="110" y="713" type="line"/>
      <point x="110" y="632"/>
      <point x="110" y="562"/>
      <point x="110" y="475" type="curve"/>
      <point x="110" y="238" type="line"/>
      <point x="110" y="151"/>
      <point x="110" y="81"/>
    </contour>
  </outline>
</glyph>
<glyph name="P" format="2">
  <advance width="610"/>
  <unicode hex="0050"/>
  <outline>
    <contour>
      <point x="296" y="311" type="curve"/>
      <point x="501" y="311"/>
      <point x="560" y="403"/>
      <point x="560" y="525" type="curve" smooth="yes"/>
      <point x="560" y="647"/>
      <point x="490" y="713"/>
      <point x="336" y="713" type="curve"/>
      <point x="239" y="713"/>
      <point x="162" y="713"/>
      <point x="110" y="713" type="curve"/>
      <point x="131" y="682" type="line"/>
      <point x="334" y="682" type="line" smooth="yes"/>
      <point x="415" y="682"/>
      <point x="527" y="673"/>
      <point x="527" y="525" type="curve" smooth="yes"/>
      <point x="527" y="393"/>
      <point x="456" y="341"/>
      <point x="295" y="341" type="curve" smooth="yes"/>
      <point x="137" y="341" type="line"/>
      <point x="137" y="311" type="line"/>
      <point x="177" y="311"/>
      <point x="245" y="311"/>
    </contour>
    <contour>
      <point x="110" y="0" type="curve"/>
      <point x="142" y="0" type="line"/>
      <point x="142" y="81"/>
      <point x="142" y="151"/>
      <point x="142" y="238" type="curve"/>
      <point x="142" y="472" type="line"/>
      <point x="142" y="559"/>
      <point x="142" y="629"/>
      <point x="142" y="710" type="curve"/>
      <point x="110" y="713" type="line"/>
      <point x="110" y="632"/>
      <point x="110" y="562"/>
      <point x="110" y="475" type="curve"/>
      <point x="110" y="238" type="line"/>
      <point x="110" y="151"/>
      <point x="110" y="81"/>
    </contour>
  </outline>
</glyph>
<glyph name="R" format="2">
  <advance width="653"/>
  <unicode hex="0052"/>
  <anchor x="330" y="0" name="bottom"/>
  <anchor x="310" y="713" name="top"/>
  <outline>
    <contour>
      <point x="573" y="0" type="curve"/>
      <point x="615" y="0" type="line"/>
      <point x="566" y="55"/>
      <point x="492" y="137"/>
      <point x="435" y="201" type="curve"/>
      <point x="310" y="341" type="line"/>
      <point x="308" y="323" type="line"/>
      <point x="495" y="324"/>
      <point x="550" y="419"/>
      <point x="550" y="530" type="curve" smooth="yes"/>
      <point x="550" y="657"/>
      <point x="480" y="713"/>
      <point x="326" y="713" type="curve"/>
      <point x="229" y="713"/>
      <point x="162" y="713"/>
      <point x="110" y="713" type="curve"/>
      <point x="131" y="682" type="line"/>
      <point x="324" y="682" type="line" smooth="yes"/>
      <point x="405" y="682"/>
      <point x="517" y="681"/>
      <point x="517" y="530" type="curve" smooth="yes"/>
      <point x="517" y="403"/>
      <point x="446" y="351"/>
      <point x="285" y="351" type="curve" smooth="yes"/>
      <point x="137" y="351" type="line"/>
      <point x="137" y="321" type="line"/>
      <point x="299" y="321" type="line"/>
      <point x="277" y="331" type="line"/>
      <point x="412" y="180" type="line"/>
      <point x="464" y="122"/>
      <point x="516" y="63"/>
    </contour>
    <contour>
      <point x="110" y="0" type="curve"/>
      <point x="142" y="0" type="line"/>
      <point x="142" y="81"/>
      <point x="142" y="151"/>
      <point x="142" y="238" type="curve"/>
      <point x="142" y="472" type="line"/>
      <point x="142" y="559"/>
      <point x="142" y="629"/>
      <point x="142" y="710" type="curve"/>
      <point x="110" y="713" type="line"/>
      <point x="110" y="632"/>
      <point x="110" y="562"/>
      <point x="110" y="475" type="curve"/>
      <point x="110" y="238" type="line"/>
      <point x="110" y="151"/>
      <point x="110" y="81"/>
    </contour>
  </outline>
</glyph>
<glyph name="T" format="2">
  <advance width="637"/>
  <unicode hex="0054"/>
  <anchor x="319" y="0" name="bottom"/>
  <anchor x="319" y="357" name="center"/>
  <anchor x="319" y="713" name="top"/>
  <outline>
    <contour>
      <point x="303" y="0" type="curve"/>
      <point x="335" y="0" type="line"/>
      <point x="335" y="81"/>
      <point x="335" y="151"/>
      <point x="335" y="238" type="curve"/>
      <point x="335" y="472" type="line"/>
      <point x="335" y="559"/>
      <point x="335" y="629"/>
      <point x="335" y="710" type="curve"/>
      <point x="335" y="713" type="line"/>
      <point x="303" y="713" type="line"/>
      <point x="303" y="710" type="line"/>
      <point x="303" y="629"/>
      <point x="303" y="559"/>
      <point x="303" y="472" type="curve"/>
      <point x="303" y="238" type="line"/>
      <point x="303" y="151"/>
      <point x="303" y="81"/>
    </contour>
    <contour>
      <point x="35" y="682" type="line"/>
      <point x="94" y="682"/>
      <point x="156" y="682"/>
      <point x="241" y="682" type="curve"/>
      <point x="308" y="682" type="line"/>
      <point x="308" y="713" type="line"/>
      <point x="35" y="713" type="line"/>
    </contour>
    <contour>
      <point x="329" y="682" type="line"/>
      <point x="396" y="682" type="line"/>
      <point x="481" y="682"/>
      <point x="543" y="682"/>
      <point x="602" y="682" type="curve"/>
      <point x="602" y="713" type="line"/>
      <point x="329" y="713" type="line"/>
    </contour>
  </outline>
</glyph>
<glyph name="U" format="2">
  <advance width="732"/>
  <unicode hex="0055"/>
  <anchor x="367" y="0" name="bottom"/>
  <anchor x="449" y="0" name="ogonek"/>
  <anchor x="367" y="713" name="top"/>
  <anchor x="689" y="713" name="topright"/>
  <outline>
    <contour>
      <point x="366" y="-9" type="curve" smooth="yes"/>
      <point x="552" y="-9"/>
      <point x="633" y="100"/>
      <point x="633" y="258" type="curve" smooth="yes"/>
      <point x="633" y="302"/>
      <point x="633" y="388"/>
      <point x="633" y="475" type="curve"/>
      <point x="633" y="562"/>
      <point x="633" y="632"/>
      <point x="633" y="713" type="curve"/>
      <point x="601" y="713" type="line"/>
      <point x="601" y="632"/>
      <point x="601" y="562"/>
      <point x="601" y="475" type="curve"/>
      <point x="601" y="268" type="line" smooth="yes"/>
      <point x="601" y="115"/>
      <point x="540" y="24"/>
      <point x="366" y="24" type="curve"/>
      <point x="192" y="24"/>
      <point x="130" y="116"/>
      <point x="130" y="267" type="curve" smooth="yes"/>
      <point x="130" y="475" type="line"/>
      <point x="130" y="562"/>
      <point x="130" y="632"/>
      <point x="130" y="713" type="curve"/>
      <point x="98" y="713" type="line"/>
      <point x="98" y="632"/>
      <point x="98" y="562"/>
      <point x="98" y="475" type="curve"/>
      <point x="98" y="388"/>
      <point x="98" y="302"/>
      <point x="98" y="258" type="curve" smooth="yes"/>
      <point x="98" y="100"/>
      <point x="181" y="-9"/>
    </contour>
  </outline>
</glyph>
<glyph name="V" format="2">
  <advance width="668"/>
  <unicode hex="0056"/>
  <anchor x="334" y="0" name="bottom"/>
  <anchor x="334" y="713" name="top"/>
  <outline>
    <contour>
      <point x="313" y="0" type="curve"/>
      <point x="359" y="0" type="line"/>
      <point x="387" y="73"/>
      <point x="421" y="157"/>
      <point x="447" y="225" type="curve"/>
      <point x="534" y="450" type="line"/>
      <point x="564" y="527"/>
      <point x="603" y="628"/>
      <point x="636" y="713" type="curve"/>
      <point x="602" y="713" type="line"/>
      <point x="556" y="597"/>
      <point x="507" y="471"/>
      <point x="464" y="357" type="curve"/>
      <point x="339" y="36" type="line"/>
      <point x="333" y="36" type="line"/>
      <point x="207" y="356" type="line"/>
      <point x="163" y="467"/>
      <point x="110" y="601"/>
      <point x="66" y="713" type="curve"/>
      <point x="31" y="713" type="line"/>
      <point x="65" y="627"/>
      <point x="105" y="526"/>
      <point x="135" y="450" type="curve"/>
      <point x="224" y="226" type="line"/>
      <point x="251" y="158"/>
      <point x="285" y="71"/>
    </contour>
  </outline>
</glyph>
<glyph name="X" format="2">
  <advance width="654"/>
  <unicode hex="0058"/>
  <outline>
    <contour>
      <point x="44" y="0" type="curve"/>
      <point x="83" y="0" type="line"/>
      <point x="131" y="70"/>
      <point x="172" y="129"/>
      <point x="215" y="190" type="curve"/>
      <point x="315" y="335" type="line"/>
      <point x="321" y="335" type="line"/>
      <point x="428" y="191" type="line"/>
      <point x="471" y="133"/>
      <point x="518" y="70"/>
      <point x="570" y="0" type="curve"/>
      <point x="610" y="0" type="line"/>
      <point x="554" y="75"/>
      <point x="504" y="142"/>
      <point x="447" y="219" type="curve"/>
      <point x="332" y="374" type="line"/>
      <point x="332" y="357" type="line"/>
      <point x="443" y="515" type="line"/>
      <point x="483" y="572"/>
      <point x="531" y="640"/>
      <point x="582" y="713" type="curve"/>
      <point x="542" y="713" type="line"/>
      <point x="494" y="645"/>
      <point x="445" y="575"/>
      <point x="402" y="513" type="curve"/>
      <point x="319" y="394" type="line"/>
      <point x="313" y="394" type="line"/>
      <point x="228" y="512" type="line"/>
      <point x="184" y="573"/>
      <point x="135" y="642"/>
      <point x="84" y="713" type="curve"/>
      <point x="44" y="713" type="line"/>
      <point x="102" y="633"/>
      <point x="149" y="567"/>
      <point x="197" y="501" type="curve"/>
      <point x="302" y="355" type="line"/>
      <point x="302" y="372" type="line"/>
      <point x="182" y="199" type="line"/>
      <point x="132" y="127"/>
      <point x="88" y="63"/>
    </contour>
  </outline>
</glyph>
<glyph name="Y" format="2">
  <advance width="629"/>
  <unicode hex="0059"/>
  <anchor x="315" y="0" name="bottom"/>
  <anchor x="315" y="713" name="top"/>
  <anchor x="20" y="713" name="topleft"/>
  <outline>
    <contour>
      <point x="300" y="300" type="line"/>
      <point x="330" y="300" type="line"/>
      <point x="493" y="551" type="line"/>
      <point x="527" y="603"/>
      <point x="562" y="658"/>
      <point x="598" y="713" type="curve"/>
      <point x="560" y="713" type="line"/>
      <point x="492" y="608"/>
      <point x="458" y="555"/>
      <point x="402" y="469" type="curve"/>
      <point x="318" y="339" type="line"/>
      <point x="312" y="339" type="line"/>
      <point x="225" y="474" type="line"/>
      <point x="172" y="556"/>
      <point x="140" y="607"/>
      <point x="71" y="713" type="curve"/>
      <point x="33" y="713" type="line"/>
      <point x="75" y="649"/>
      <point x="104" y="604"/>
      <point x="138" y="551" type="curve"/>
    </contour>
    <contour>
      <point x="299" y="0" type="curve"/>
      <point x="331" y="0" type="line"/>
      <point x="331" y="81"/>
      <point x="331" y="151"/>
      <point x="331" y="238" type="curve"/>
      <point x="331" y="326" type="line"/>
      <point x="299" y="326" type="line"/>
      <point x="299" y="238" type="line"/>
      <point x="299" y="151"/>
      <point x="299" y="81"/>
    </contour>
  </outline>
</glyph>
<glyph name="bracketleft" format="2">
  <advance width="345"/>
  <unicode hex="005B"/>
  <outline>
    <contour>
      <point x="111" y="-112" type="curve"/>
      <point x="142" y="-112" type="line"/>
      <point x="142" y="-108" type="line"/>
      <point x="142" y="-27"/>
      <point x="142" y="43"/>
      <point x="142" y="130" type="curve"/>
      <point x="142" y="519" type="line"/>
      <point x="142" y="606"/>
      <point x="142" y="676"/>
      <point x="142" y="757" type="curve"/>
      <point x="142" y="760" type="line"/>
      <point x="111" y="760" type="line"/>
      <point x="111" y="679"/>
      <point x="111" y="609"/>
      <point x="111" y="522" type="curve"/>
      <point x="111" y="126" type="line"/>
      <point x="111" y="39"/>
      <point x="111" y="-31"/>
    </contour>
    <contour>
      <point x="136" y="-112" type="line"/>
      <point x="334" y="-112" type="line"/>
      <point x="334" y="-82" type="line"/>
      <point x="285" y="-82"/>
      <point x="233" y="-82"/>
      <point x="175" y="-82" type="curve"/>
      <point x="136" y="-82" type="line"/>
    </contour>
    <contour>
      <point x="136" y="730" type="line"/>
      <point x="172" y="730" type="line"/>
      <point x="242" y="730"/>
      <point x="290" y="730"/>
      <point x="335" y="730" type="curve"/>
      <point x="335" y="760" type="line"/>
      <point x="136" y="760" type="line"/>
    </contour>
  </outline>
</glyph>
<glyph name="backslash" format="2">
  <advance width="438"/>
  <unicode hex="005C"/>
  <outline>
    <contour>
      <point x="365" y="0" type="curve"/>
      <point x="398" y="0" type="line"/>
      <point x="364" y="74"/>
      <point x="336" y="137"/>
      <point x="294" y="228" type="curve"/>
      <point x="181" y="476" type="line"/>
      <point x="138" y="571"/>
      <point x="108" y="636"/>
      <point x="73" y="713" type="curve"/>
      <point x="40" y="713" type="line"/>
      <point x="75" y="636"/>
      <point x="105" y="571"/>
      <point x="149" y="474" type="curve"/>
      <point x="261" y="228" type="line"/>
      <point x="303" y="137"/>
      <point x="331" y="74"/>
    </contour>
  </outline>
</glyph>
<glyph name="underscore" format="2">
  <advance width="380"/>
  <unicode hex="005F"/>
  <outline>
    <contour>
      <point x="-10" y="-88" type="line"/>
      <point x="48" y="-88"/>
      <point x="103" y="-88"/>
      <point x="150" y="-88" type="curve"/>
      <point x="230" y="-88" type="line"/>
      <point x="277" y="-88"/>
      <point x="332" y="-88"/>
      <point x="390" y="-88" type="curve"/>
      <point x="390" y="-60" type="line"/>
      <point x="332" y="-60"/>
      <point x="277" y="-60"/>
      <point x="230" y="-60" type="curve"/>
      <point x="150" y="-60" type="line"/>
      <point x="103" y="-60"/>
      <point x="48" y="-60"/>
      <point x="-10" y="-60" type="curve"/>
    </contour>
  </outline>
</glyph>
<glyph name="a" format="2">
  <advance width="516"/>
  <unicode hex="0061"/>
  <anchor x="264" y="0" name="bottom"/>
  <anchor x="426" y="0" name="ogonek"/>
  <anchor x="264" y="494" name="top"/>
  <outline>
    <contour>
      <point x="217" y="-9" type="curve" smooth="yes"/>
      <point x="290" y="-9"/>
      <point x="357" y="32"/>
      <point x="391" y="80" type="curve"/>
      <point x="397" y="80" type="line"/>
      <point x="397" y="0" type="line"/>
      <point x="426" y="0" type="line"/>
      <point x="426" y="53"/>
      <point x="426" y="97"/>
      <point x="426" y="137" type="curve"/>
      <point x="426" y="211" type="line" smooth="yes"/>
      <point x="426" y="257"/>
      <point x="426" y="309"/>
      <point x="426" y="339" type="curve" smooth="yes"/>
      <point x="426" y="455"/>
      <point x="363" y="504"/>
      <point x="266" y="504" type="curve" smooth="yes"/>
      <point x="207" y="504"/>
      <point x="135" y="486"/>
      <point x="87" y="465" type="curve"/>
      <point x="90" y="432" type="line"/>
      <point x="166" y="463"/>
      <point x="220" y="472"/>
      <point x="266" y="472" type="curve" smooth="yes"/>
      <point x="339" y="472"/>
      <point x="402" y="450"/>
      <point x="397" y="312" type="curve"/>
      <point x="224" y="276" type="line" smooth="yes"/>
      <point x="155" y="262"/>
      <point x="66" y="231"/>
      <point x="66" y="127" type="curve" smooth="yes"/>
      <point x="66" y="46"/>
      <point x="121" y="-9"/>
    </contour>
    <contour>
      <point x="217" y="22" type="curve" smooth="yes"/>
      <point x="147" y="22"/>
      <point x="97" y="52"/>
      <point x="97" y="128" type="curve" smooth="yes"/>
      <point x="97" y="205"/>
      <point x="161" y="234"/>
      <point x="236" y="248" type="curve" smooth="yes"/>
      <point x="349" y="269"/>
      <point x="378" y="280"/>
      <point x="397" y="289" type="curve"/>
      <point x="396" y="141" type="line"/>
      <point x="356" y="56"/>
      <point x="282" y="22"/>
    </contour>
  </outline>
</glyph>
<glyph name="b" format="2">
  <advance width="591"/>
  <unicode hex="0062"/>
  <outline>
    <contour>
      <point x="308" y="-9" type="curve" smooth="yes"/>
      <point x="454" y="-9"/>
      <point x="529" y="110"/>
      <point x="529" y="249" type="curve" smooth="yes"/>
      <point x="529" y="396"/>
      <point x="445" y="504"/>
      <point x="306" y="504" type="curve" smooth="yes"/>
      <point x="231" y="504"/>
      <point x="170" y="468"/>
      <point x="141" y="435" type="curve"/>
      <point x="135" y="435" type="line"/>
      <point x="135" y="494" type="line"/>
      <point x="135" y="579"/>
      <point x="135" y="657"/>
      <point x="135" y="739" type="curve"/>
      <point x="105" y="731" type="line"/>
      <point x="105" y="659"/>
      <point x="105" y="579"/>
      <point x="105" y="494" type="curve"/>
      <point x="105" y="221" type="line"/>
      <point x="105" y="140"/>
      <point x="105" y="75"/>
      <point x="105" y="0" type="curve"/>
      <point x="134" y="0" type="line"/>
      <point x="134" y="70" type="line"/>
      <point x="140" y="70" type="line"/>
      <point x="182" y="19"/>
      <point x="237" y="-9"/>
    </contour>
    <contour>
      <point x="308" y="23" type="curve"/>
      <point x="230" y="23"/>
      <point x="175" y="60"/>
      <point x="135" y="124" type="curve"/>
      <point x="135" y="384" type="line"/>
      <point x="175" y="443"/>
      <point x="239" y="472"/>
      <point x="306" y="472" type="curve"/>
      <point x="437" y="472"/>
      <point x="498" y="372"/>
      <point x="498" y="249" type="curve" smooth="yes"/>
      <point x="498" y="131"/>
      <point x="442" y="23"/>
    </contour>
  </outline>
</glyph>
<glyph name="d" format="2">
  <advance width="572"/>
  <unicode hex="0064"/>
  <anchor x="306" y="0" name="bottom"/>
  <anchor x="289" y="247" name="center"/>
  <anchor x="306" y="723" name="top"/>
  <anchor x="545" y="494" name="topright"/>
  <outline>
    <contour>
      <point x="283" y="-9" type="curve" smooth="yes"/>
      <point x="354" y="-9"/>
      <point x="409" y="19"/>
      <point x="451" y="70" type="curve"/>
      <point x="457" y="70" type="line"/>
      <point x="457" y="0" type="line"/>
      <point x="486" y="0" type="line"/>
      <point x="486" y="75"/>
      <point x="486" y="140"/>
      <point x="486" y="221" type="curve"/>
      <point x="486" y="494" type="line"/>
      <point x="486" y="579"/>
      <point x="486" y="657"/>
      <point x="486" y="739" type="curve"/>
      <point x="456" y="731" type="line"/>
      <point x="456" y="659"/>
      <point x="456" y="579"/>
      <point x="456" y="494" type="curve"/>
      <point x="456" y="435" type="line"/>
      <point x="450" y="435" type="line"/>
      <point x="420" y="469"/>
      <point x="360" y="504"/>
      <point x="285" y="504" type="curve" smooth="yes"/>
      <point x="146" y="504"/>
      <point x="62" y="396"/>
      <point x="62" y="249" type="curve" smooth="yes"/>
      <point x="62" y="110"/>
      <point x="137" y="-9"/>
    </contour>
    <contour>
      <point x="283" y="23" type="curve"/>
      <point x="149" y="23"/>
      <point x="93" y="131"/>
      <point x="93" y="249" type="curve" smooth="yes"/>
      <point x="93" y="372"/>
      <point x="154" y="472"/>
      <point x="285" y="472" type="curve"/>
      <point x="352" y="472"/>
      <point x="416" y="443"/>
      <point x="456" y="384" type="curve"/>
      <point x="456" y="124" type="line"/>
      <point x="416" y="60"/>
      <point x="361" y="23"/>
    </contour>
  </outline>
</glyph>
<glyph name="e" format="2">
  <advance width="528"/>
  <unicode hex="0065"/>
  <anchor x="289" y="0" name="bottom"/>
  <anchor x="369" y="0" name="ogonek"/>
  <anchor x="279" y="494" name="top"/>
  <outline>
    <contour>
      <point x="309" y="-9" type="curve" smooth="yes"/>
      <point x="368" y="-9"/>
      <point x="425" y="4"/>
      <point x="463" y="27" type="curve"/>
      <point x="460" y="61" type="line"/>
      <point x="414" y="34"/>
      <point x="362" y="23"/>
      <point x="309" y="23" type="curve" smooth="yes"/>
      <point x="162" y="23"/>
      <point x="93" y="111"/>
      <point x="93" y="249" type="curve"/>
      <point x="93" y="251" type="line"/>
      <point x="93" y="379"/>
      <point x="161" y="472"/>
      <point x="283" y="472" type="curve"/>
      <point x="379" y="472"/>
      <point x="443" y="416"/>
      <point x="443" y="295" type="curve" smooth="yes"/>
      <point x="443" y="285"/>
      <point x="443" y="275"/>
      <point x="442" y="264" type="curve"/>
      <point x="469" y="237" type="line"/>
      <point x="472" y="256"/>
      <point x="473" y="274"/>
      <point x="473" y="297" type="curve" smooth="yes"/>
      <point x="473" y="427"/>
      <point x="399" y="504"/>
      <point x="282" y="504" type="curve" smooth="yes"/>
      <point x="151" y="504"/>
      <point x="62" y="398"/>
      <point x="62" y="251" type="curve" smooth="yes"/>
      <point x="62" y="101"/>
      <point x="143" y="-9"/>
    </contour>
    <contour>
      <point x="78" y="237" type="line"/>
      <point x="469" y="237" type="line"/>
      <point x="469" y="268" type="line"/>
      <point x="447" y="267" type="line"/>
      <point x="78" y="267" type="line"/>
    </contour>
  </outline>
</glyph>
<glyph name="g" format="2">
  <advance width="536"/>
  <unicode hex="0067"/>
  <anchor x="266" y="-192" name="bottom"/>
  <anchor x="249" y="494" name="top"/>
  <outline>
    <contour>
      <point x="247" y="-202" type="curve" smooth="yes"/>
      <point x="353" y="-202"/>
      <point x="478" y="-145"/>
      <point x="478" y="-46" type="curve" smooth="yes"/>
      <point x="478" y="24"/>
      <point x="428" y="55"/>
      <point x="281" y="55" type="curve" smooth="yes"/>
      <point x="258" y="55" type="line" smooth="yes"/>
      <point x="172" y="55"/>
      <point x="139" y="67"/>
      <point x="139" y="106" type="curve" smooth="yes"/>
      <point x="139" y="144"/>
      <point x="176" y="157"/>
      <point x="259" y="177" type="curve" smooth="yes"/>
      <point x="361" y="201"/>
      <point x="420" y="247"/>
      <point x="420" y="342" type="curve" smooth="yes"/>
      <point x="420" y="400"/>
      <point x="392" y="453"/>
      <point x="321" y="482" type="curve"/>
      <point x="310" y="465" type="line"/>
      <point x="377" y="465"/>
      <point x="444" y="465"/>
      <point x="513" y="465" type="curve"/>
      <point x="513" y="494" type="line"/>
      <point x="345" y="494" type="line" smooth="yes"/>
      <point x="299" y="494"/>
      <point x="280" y="504"/>
      <point x="239" y="504" type="curve" smooth="yes"/>
      <point x="141" y="504"/>
      <point x="60" y="444"/>
      <point x="60" y="345" type="curve" smooth="yes"/>
      <point x="60" y="239"/>
      <point x="151" y="194"/>
      <point x="175" y="187" type="curve"/>
      <point x="175" y="182" type="line"/>
      <point x="134" y="168"/>
      <point x="108" y="145"/>
      <point x="108" y="106" type="curve" smooth="yes"/>
      <point x="108" y="61"/>
      <point x="143" y="41"/>
      <point x="162" y="36" type="curve"/>
      <point x="162" y="31" type="line"/>
      <point x="124" y="21"/>
      <point x="62" y="-15"/>
      <point x="62" y="-83" type="curve" smooth="yes"/>
      <point x="62" y="-139"/>
      <point x="102" y="-202"/>
    </contour>
    <contour>
      <point x="245" y="-170" type="curve"/>
      <point x="127" y="-170"/>
      <point x="93" y="-129"/>
      <point x="93" y="-82" type="curve" smooth="yes"/>
      <point x="93" y="-16"/>
      <point x="175" y="24"/>
      <point x="261" y="24" type="curve"/>
      <point x="282" y="24" type="line" smooth="yes"/>
      <point x="416" y="24"/>
      <point x="447" y="4"/>
      <point x="447" y="-48" type="curve" smooth="yes"/>
      <point x="447" y="-102"/>
      <point x="377" y="-170"/>
    </contour>
    <contour>
      <point x="231" y="200" type="curve"/>
      <point x="162" y="209"/>
      <point x="91" y="254"/>
      <point x="91" y="345" type="curve" smooth="yes"/>
      <point x="91" y="434"/>
      <point x="159" y="472"/>
      <point x="242" y="472" type="curve"/>
      <point x="301" y="472"/>
      <point x="389" y="436"/>
      <point x="389" y="342" type="curve" smooth="yes"/>
      <point x="389" y="235"/>
      <point x="296" y="214"/>
    </contour>
  </outline>
</glyph>
<glyph name="h" format="2">
  <advance width="569"/>
  <unicode hex="0068"/>
  <guideline x="103" y="731" angle="15.2551"/>
  <anchor x="292" y="0" name="bottom"/>
  <anchor x="292" y="409" name="center"/>
  <anchor x="272" y="723" name="top"/>
  <outline>
    <contour>
      <point x="105" y="0" type="curve"/>
      <point x="135" y="0" type="line"/>
      <point x="135" y="75"/>
      <point x="135" y="140"/>
      <point x="135" y="221" type="curve"/>
      <point x="135" y="345" type="line"/>
      <point x="180" y="415"/>
      <point x="240" y="472"/>
      <point x="326" y="472" type="curve" smooth="yes"/>
      <point x="419" y="472"/>
      <point x="449" y="422"/>
      <point x="449" y="326" type="curve"/>
      <point x="449" y="221" type="line"/>
      <point x="449" y="144"/>
      <point x="449" y="75"/>
      <point x="449" y="0" type="curve"/>
      <point x="479" y="0" type="line"/>
      <point x="479" y="75"/>
      <point x="479" y="144"/>
      <point x="479" y="221" type="curve"/>
      <point x="479" y="259"/>
      <point x="479" y="283"/>
      <point x="479" y="326" type="curve" smooth="yes"/>
      <point x="479" y="440"/>
      <point x="437" y="504"/>
      <point x="327" y="504" type="curve" smooth="yes"/>
      <point x="233" y="504"/>
      <point x="171" y="443"/>
      <point x="141" y="401" type="curve"/>
      <point x="135" y="401" type="line"/>
      <point x="135" y="494" type="line"/>
      <point x="135" y="579"/>
      <point x="135" y="658"/>
      <point x="135" y="739" type="curve"/>
      <point x="105" y="731" type="line"/>
      <point x="105" y="658"/>
      <point x="105" y="579"/>
      <point x="105" y="494" type="curve"/>
      <point x="105" y="221" type="line"/>
      <point x="105" y="140"/>
      <point x="105" y="75"/>
    </contour>
  </outline>
</glyph>
<glyph name="l" format="2">
  <advance width="240"/>
  <unicode hex="006C"/>
  <anchor x="120" y="0" name="bottom"/>
  <anchor x="120" y="409" name="center"/>
  <anchor x="120" y="723" name="top"/>
  <anchor x="194" y="494" name="topright"/>
  <outline>
    <contour>
      <point x="105" y="0" type="curve"/>
      <point x="135" y="0" type="line"/>
      <point x="135" y="75"/>
      <point x="135" y="140"/>
      <point x="135" y="221" type="curve"/>
      <point x="135" y="494" type="line"/>
      <point x="135" y="579"/>
      <point x="135" y="657"/>
      <point x="135" y="739" type="curve"/>
      <point x="105" y="731" type="line"/>
      <point x="105" y="659"/>
      <point x="105" y="579"/>
      <point x="105" y="494" type="curve"/>
      <point x="105" y="221" type="line"/>
      <point x="105" y="140"/>
      <point x="105" y="75"/>
    </contour>
  </outline>
</glyph>
<glyph name="m" format="2">
  <advance width="872"/>
  <unicode hex="006D"/>
  <anchor x="446" y="0" name="bottom"/>
  <anchor x="446" y="494" name="top"/>
  <outline>
    <contour>
      <point x="105" y="0" type="curve"/>
      <point x="135" y="0" type="line"/>
      <point x="135" y="75"/>
      <point x="135" y="140"/>
      <point x="135" y="221" type="curve"/>
      <point x="135" y="345" type="line"/>
      <point x="178" y="413"/>
      <point x="234" y="472"/>
      <point x="315" y="472" type="curve" smooth="yes"/>
      <point x="403" y="472"/>
      <point x="431" y="422"/>
      <point x="431" y="326" type="curve"/>
      <point x="431" y="221" type="line"/>
      <point x="431" y="144"/>
      <point x="431" y="75"/>
      <point x="431" y="0" type="curve"/>
      <point x="461" y="0" type="line"/>
      <point x="461" y="75"/>
      <point x="461" y="144"/>
      <point x="461" y="221" type="curve"/>
      <point x="461" y="259"/>
      <point x="461" y="283"/>
      <point x="461" y="326" type="curve" smooth="yes"/>
      <point x="461" y="345"/>
      <point x="460" y="362"/>
      <point x="458" y="379" type="curve"/>
      <point x="457" y="383" type="line"/>
      <point x="445" y="461"/>
      <point x="402" y="504"/>
      <point x="317" y="504" type="curve" smooth="yes"/>
      <point x="228" y="504"/>
      <point x="170" y="443"/>
      <point x="141" y="402" type="curve"/>
      <point x="135" y="402" type="line"/>
      <point x="135" y="497" type="line"/>
      <point x="105" y="494" type="line"/>
      <point x="105" y="420"/>
      <point x="105" y="342"/>
      <point x="105" y="271" type="curve"/>
      <point x="105" y="221" type="line"/>
      <point x="105" y="140"/>
      <point x="105" y="75"/>
    </contour>
    <contour>
      <point x="752" y="0" type="curve"/>
      <point x="782" y="0" type="line"/>
      <point x="782" y="75"/>
      <point x="782" y="144"/>
      <point x="782" y="221" type="curve"/>
      <point x="782" y="259"/>
      <point x="782" y="283"/>
      <point x="782" y="326" type="curve" smooth="yes"/>
      <point x="782" y="436"/>
      <point x="746" y="504"/>
      <point x="638" y="504" type="curve" smooth="yes"/>
      <point x="549" y="504"/>
      <point x="491" y="443"/>
      <point x="458" y="399" type="curve"/>
      <point x="452" y="399" type="line"/>
      <point x="456" y="345" type="line"/>
      <point x="498" y="415"/>
      <point x="555" y="472"/>
      <point x="636" y="472" type="curve" smooth="yes"/>
      <point x="724" y="472"/>
      <point x="752" y="422"/>
      <point x="752" y="326" type="curve"/>
      <point x="752" y="221" type="line"/>
      <point x="752" y="144"/>
      <point x="752" y="75"/>
    </contour>
  </outline>
</glyph>
<glyph name="n" format="2">
  <advance width="569"/>
  <unicode hex="006E"/>
  <anchor x="293" y="0" name="bottom"/>
  <anchor x="293" y="494" name="top"/>
  <outline>
    <contour>
      <point x="105" y="0" type="curve"/>
      <point x="135" y="0" type="line"/>
      <point x="135" y="75"/>
      <point x="135" y="140"/>
      <point x="135" y="221" type="curve"/>
      <point x="135" y="345" type="line"/>
      <point x="180" y="415"/>
      <point x="240" y="472"/>
      <point x="326" y="472" type="curve" smooth="yes"/>
      <point x="419" y="472"/>
      <point x="449" y="422"/>
      <point x="449" y="326" type="curve"/>
      <point x="449" y="221" type="line"/>
      <point x="449" y="144"/>
      <point x="449" y="75"/>
      <point x="449" y="0" type="curve"/>
      <point x="479" y="0" type="line"/>
      <point x="479" y="75"/>
      <point x="479" y="144"/>
      <point x="479" y="221" type="curve"/>
      <point x="479" y="259"/>
      <point x="479" y="283"/>
      <point x="479" y="326" type="curve" smooth="yes"/>
      <point x="479" y="440"/>
      <point x="437" y="504"/>
      <point x="327" y="504" type="curve" smooth="yes"/>
      <point x="233" y="504"/>
      <point x="171" y="443"/>
      <point x="141" y="401" type="curve"/>
      <point x="135" y="401" type="line"/>
      <point x="135" y="497" type="line"/>
      <point x="105" y="494" type="line"/>
      <point x="105" y="420"/>
      <point x="105" y="342"/>
      <point x="105" y="271" type="curve"/>
      <point x="105" y="221" type="line"/>
      <point x="105" y="140"/>
      <point x="105" y="75"/>
    </contour>
  </outline>
</glyph>
<glyph name="q" format="2">
  <advance width="581"/>
  <unicode hex="0071"/>
  <outline>
    <contour>
      <point x="456" y="-194" type="curve"/>
      <point x="486" y="-192" type="line"/>
      <point x="486" y="-117"/>
      <point x="486" y="-52"/>
      <point x="486" y="29" type="curve"/>
      <point x="486" y="271" type="line"/>
      <point x="486" y="353"/>
      <point x="486" y="421"/>
      <point x="486" y="497" type="curve"/>
      <point x="456" y="494" type="line"/>
      <point x="456" y="435" type="line"/>
      <point x="450" y="435" type="line"/>
      <point x="420" y="469"/>
      <point x="360" y="504"/>
      <point x="285" y="504" type="curve" smooth="yes"/>
      <point x="146" y="504"/>
      <point x="62" y="396"/>
      <point x="62" y="249" type="curve" smooth="yes"/>
      <point x="62" y="110"/>
      <point x="137" y="-9"/>
      <point x="283" y="-9" type="curve" smooth="yes"/>
      <point x="354" y="-9"/>
      <point x="408" y="19"/>
      <point x="450" y="70" type="curve"/>
      <point x="456" y="70" type="line"/>
      <point x="456" y="29" type="line"/>
      <point x="456" y="-52"/>
      <point x="456" y="-119"/>
    </contour>
    <contour>
      <point x="283" y="23" type="curve"/>
      <point x="149" y="23"/>
      <point x="93" y="131"/>
      <point x="93" y="249" type="curve" smooth="yes"/>
      <point x="93" y="372"/>
      <point x="154" y="472"/>
      <point x="285" y="472" type="curve"/>
      <point x="352" y="472"/>
      <point x="416" y="443"/>
      <point x="456" y="384" type="curve"/>
      <point x="456" y="124" type="line"/>
      <point x="416" y="60"/>
      <point x="361" y="23"/>
    </contour>
  </outline>
</glyph>
<glyph name="r" format="2">
  <advance width="389"/>
  <unicode hex="0072"/>
  <anchor x="120" y="0" name="bottom"/>
  <anchor x="232" y="494" name="top"/>
  <outline>
    <contour>
      <point x="105" y="0" type="curve"/>
      <point x="135" y="0" type="line"/>
      <point x="135" y="75"/>
      <point x="135" y="140"/>
      <point x="135" y="221" type="curve"/>
      <point x="135" y="302" type="line"/>
      <point x="181" y="457"/>
      <point x="262" y="472"/>
      <point x="301" y="472" type="curve" smooth="yes"/>
      <point x="324" y="472"/>
      <point x="337" y="468"/>
      <point x="356" y="462" type="curve"/>
      <point x="359" y="496" type="line"/>
      <point x="342" y="501"/>
      <point x="324" y="504"/>
      <point x="303" y="504" type="curve" smooth="yes"/>
      <point x="256" y="504"/>
      <point x="182" y="487"/>
      <point x="140" y="388" type="curve"/>
      <point x="135" y="388" type="line"/>
      <point x="135" y="497" type="line"/>
      <point x="105" y="494" type="line"/>
      <point x="105" y="420"/>
      <point x="105" y="342"/>
      <point x="105" y="271" type="curve"/>
      <point x="105" y="221" type="line"/>
      <point x="105" y="140"/>
      <point x="105" y="75"/>
    </contour>
  </outline>
</glyph>
<glyph name="s" format="2">
  <advance width="446"/>
  <unicode hex="0073"/>
  <anchor x="222" y="0" name="bottom"/>
  <anchor x="222" y="494" name="top"/>
  <outline>
    <contour>
      <point x="229" y="-9" type="curve" smooth="yes"/>
      <point x="341" y="-9"/>
      <point x="389" y="56"/>
      <point x="389" y="130" type="curve" smooth="yes"/>
      <point x="389" y="217"/>
      <point x="322" y="240"/>
      <point x="230" y="268" type="curve" smooth="yes"/>
      <point x="140" y="295"/>
      <point x="104" y="317"/>
      <point x="104" y="374" type="curve" smooth="yes"/>
      <point x="104" y="458"/>
      <point x="175" y="472"/>
      <point x="220" y="472" type="curve"/>
      <point x="258" y="472"/>
      <point x="303" y="463"/>
      <point x="354" y="430" type="curve"/>
      <point x="358" y="465" type="line"/>
      <point x="323" y="487"/>
      <point x="272" y="504"/>
      <point x="220" y="504" type="curve" smooth="yes"/>
      <point x="129" y="504"/>
      <point x="73" y="451"/>
      <point x="73" y="375" type="curve" smooth="yes"/>
      <point x="73" y="293"/>
      <point x="139" y="265"/>
      <point x="210" y="243" type="curve" smooth="yes"/>
      <point x="321" y="209"/>
      <point x="358" y="190"/>
      <point x="358" y="133" type="curve" smooth="yes"/>
      <point x="358" y="46"/>
      <point x="299" y="23"/>
      <point x="229" y="23" type="curve"/>
      <point x="172" y="23"/>
      <point x="118" y="39"/>
      <point x="72" y="65" type="curve"/>
      <point x="67" y="31" type="line"/>
      <point x="108" y="8"/>
      <point x="174" y="-9"/>
    </contour>
  </outline>
</glyph>
<glyph name="u" format="2">
  <advance width="549"/>
  <unicode hex="0075"/>
  <anchor x="275" y="0" name="bottom"/>
  <anchor x="459" y="0" name="ogonek"/>
  <anchor x="275" y="494" name="top"/>
  <anchor x="518" y="494" name="topright"/>
  <outline>
    <contour>
      <point x="242" y="-9" type="curve" smooth="yes"/>
      <point x="331" y="-9"/>
      <point x="393" y="52"/>
      <point x="423" y="94" type="curve"/>
      <point x="429" y="94" type="line"/>
      <point x="429" y="0" type="line"/>
      <point x="459" y="0" type="line"/>
      <point x="459" y="75"/>
      <point x="459" y="140"/>
      <point x="459" y="221" type="curve"/>
      <point x="459" y="271" type="line"/>
      <point x="459" y="352"/>
      <point x="459" y="419"/>
      <point x="459" y="494" type="curve"/>
      <point x="429" y="494" type="line"/>
      <point x="429" y="419"/>
      <point x="429" y="352"/>
      <point x="429" y="271" type="curve"/>
      <point x="429" y="150" type="line"/>
      <point x="384" y="80"/>
      <point x="324" y="23"/>
      <point x="243" y="23" type="curve" smooth="yes"/>
      <point x="150" y="23"/>
      <point x="120" y="73"/>
      <point x="120" y="169" type="curve"/>
      <point x="120" y="271" type="line"/>
      <point x="120" y="352"/>
      <point x="120" y="421"/>
      <point x="120" y="496" type="curve"/>
      <point x="90" y="494" type="line"/>
      <point x="90" y="419"/>
      <point x="90" y="352"/>
      <point x="90" y="271" type="curve"/>
      <point x="90" y="242"/>
      <point x="90" y="212"/>
      <point x="90" y="169" type="curve" smooth="yes"/>
      <point x="90" y="55"/>
      <point x="132" y="-9"/>
    </contour>
  </outline>
</glyph>
<glyph name="v" format="2">
  <advance width="489"/>
  <unicode hex="0076"/>
  <outline>
    <contour>
      <point x="224" y="0" type="curve"/>
      <point x="266" y="0" type="line"/>
      <point x="290" y="62"/>
      <point x="313" y="123"/>
      <point x="337" y="185" type="curve"/>
      <point x="371" y="273" type="line"/>
      <point x="399" y="346"/>
      <point x="428" y="421"/>
      <point x="456" y="494" type="curve"/>
      <point x="424" y="494" type="line"/>
      <point x="389" y="401"/>
      <point x="354" y="310"/>
      <point x="317" y="215" type="curve"/>
      <point x="248" y="35" type="line"/>
      <point x="242" y="35" type="line"/>
      <point x="173" y="215" type="line"/>
      <point x="136" y="310"/>
      <point x="101" y="401"/>
      <point x="65" y="496" type="curve"/>
      <point x="33" y="494" type="line"/>
      <point x="61" y="422"/>
      <point x="90" y="347"/>
      <point x="118" y="275" type="curve"/>
      <point x="152" y="187" type="line"/>
      <point x="175" y="127"/>
      <point x="200" y="62"/>
    </contour>
  </outline>
</glyph>
<glyph name="w" format="2">
  <advance width="777"/>
  <unicode hex="0077"/>
  <anchor x="391" y="0" name="bottom"/>
  <anchor x="391" y="494" name="top"/>
  <outline>
    <contour>
      <point x="201" y="0" type="curve"/>
      <point x="242" y="0" type="line"/>
      <point x="271" y="90"/>
      <point x="303" y="188"/>
      <point x="331" y="275" type="curve"/>
      <point x="386" y="446" type="line"/>
      <point x="392" y="446" type="line"/>
      <point x="447" y="277" type="line"/>
      <point x="476" y="190"/>
      <point x="509" y="90"/>
      <point x="538" y="0" type="curve"/>
      <point x="581" y="0" type="line"/>
      <point x="601" y="61"/>
      <point x="622" y="125"/>
      <point x="643" y="189" type="curve"/>
      <point x="672" y="276" type="line"/>
      <point x="696" y="348"/>
      <point x="720" y="421"/>
      <point x="744" y="494" type="curve"/>
      <point x="713" y="494" type="line"/>
      <point x="686" y="412"/>
      <point x="651" y="307"/>
      <point x="621" y="216" type="curve"/>
      <point x="562" y="36" type="line"/>
      <point x="557" y="36" type="line"/>
      <point x="498" y="215" type="line"/>
      <point x="468" y="307"/>
      <point x="436" y="404"/>
      <point x="406" y="494" type="curve"/>
      <point x="372" y="494" type="line"/>
      <point x="341" y="399"/>
      <point x="311" y="305"/>
      <point x="281" y="213" type="curve"/>
      <point x="224" y="36" type="line"/>
      <point x="219" y="36" type="line"/>
      <point x="161" y="208" type="line"/>
      <point x="130" y="300"/>
      <point x="95" y="405"/>
      <point x="64" y="496" type="curve"/>
      <point x="33" y="494" type="line"/>
      <point x="58" y="420"/>
      <point x="82" y="349"/>
      <point x="107" y="276" type="curve"/>
      <point x="137" y="188" type="line"/>
      <point x="159" y="124"/>
      <point x="180" y="62"/>
    </contour>
  </outline>
</glyph>
<glyph name="y" format="2">
  <advance width="493"/>
  <unicode hex="0079"/>
  <anchor x="347" y="0" name="bottom"/>
  <anchor x="247" y="494" name="top"/>
  <outline>
    <contour>
      <point x="150" y="-194" type="curve"/>
      <point x="184" y="-192" type="line"/>
      <point x="213" y="-120"/>
      <point x="246" y="-39"/>
      <point x="297" y="88" type="curve"/>
      <point x="353" y="227" type="line"/>
      <point x="403" y="352"/>
      <point x="428" y="413"/>
      <point x="460" y="494" type="curve"/>
      <point x="430" y="494" type="line"/>
      <point x="392" y="401"/>
      <point x="355" y="310"/>
      <point x="317" y="215" type="curve"/>
      <point x="244" y="35" type="line"/>
      <point x="238" y="35" type="line"/>
      <point x="171" y="214" type="line"/>
      <point x="135" y="310"/>
      <point x="101" y="400"/>
      <point x="65" y="496" type="curve"/>
      <point x="33" y="494" type="line"/>
      <point x="60" y="423"/>
      <point x="89" y="347"/>
      <point x="116" y="276" type="curve"/>
      <point x="150" y="186" type="line"/>
      <point x="175" y="120"/>
      <point x="202" y="49"/>
      <point x="228" y="-19" type="curve"/>
      <point x="228" y="-4" type="line"/>
      <point x="202" y="-67"/>
      <point x="176" y="-131"/>
    </contour>
  </outline>
</glyph>
<glyph name="z" format="2">
  <advance width="482"/>
  <unicode hex="007A"/>
  <guideline x="218" y="249" angle="232.6668"/>
  <guideline x="260" y="255" angle="52.6668"/>
  <anchor x="239" y="0" name="bottom"/>
  <anchor x="239" y="247" name="center"/>
  <anchor x="239" y="494" name="top"/>
  <outline>
    <contour>
      <point x="44" y="0" type="line"/>
      <point x="442" y="0" type="line"/>
      <point x="442" y="28" type="line"/>
      <point x="368" y="28"/>
      <point x="268" y="28"/>
      <point x="208" y="28" type="curve"/>
      <point x="75" y="28" type="line"/>
      <point x="80" y="19" type="line"/>
      <point x="260" y="255" type="line"/>
      <point x="314" y="326"/>
      <point x="383" y="416"/>
      <point x="425" y="471" type="curve"/>
      <point x="425" y="494" type="line"/>
      <point x="44" y="494" type="line"/>
      <point x="44" y="466" type="line"/>
      <point x="124" y="466"/>
      <point x="225" y="466"/>
      <point x="284" y="466" type="curve"/>
      <point x="404" y="466" type="line"/>
      <point x="397" y="484" type="line"/>
      <point x="218" y="249" type="line"/>
      <point x="167" y="182"/>
      <point x="106" y="102"/>
      <point x="44" y="21" type="curve"/>
    </contour>
  </outline>
</glyph>
<glyph name="braceleft" format="2">
  <advance width="372"/>
  <unicode hex="007B"/>
  <outline>
    <contour>
      <point x="285" y="-112" type="curve" smooth="yes"/>
      <point x="362" y="-112" type="line"/>
      <point x="362" y="-82" type="line"/>
      <point x="328" y="-82"/>
      <point x="302" y="-82"/>
      <point x="285" y="-82" type="curve"/>
      <point x="211" y="-82"/>
      <point x="173" y="-49"/>
      <point x="173" y="13" type="curve" smooth="yes"/>
      <point x="173" y="203" type="line" smooth="yes"/>
      <point x="173" y="281"/>
      <point x="142" y="302"/>
      <point x="101" y="321" type="curve"/>
      <point x="101" y="327" type="line"/>
      <point x="142" y="345"/>
      <point x="173" y="367"/>
      <point x="173" y="444" type="curve" smooth="yes"/>
      <point x="173" y="635" type="line" smooth="yes"/>
      <point x="173" y="697"/>
      <point x="211" y="730"/>
      <point x="285" y="730" type="curve"/>
      <point x="303" y="730"/>
      <point x="330" y="730"/>
      <point x="362" y="730" type="curve"/>
      <point x="362" y="760" type="line"/>
      <point x="285" y="760" type="line" smooth="yes"/>
      <point x="196" y="760"/>
      <point x="142" y="715"/>
      <point x="142" y="635" type="curve"/>
      <point x="142" y="572"/>
      <point x="142" y="509"/>
      <point x="142" y="446" type="curve"/>
      <point x="142" y="366"/>
      <point x="89" y="338"/>
      <point x="38" y="338" type="curve" smooth="yes"/>
      <point x="10" y="338" type="line"/>
      <point x="10" y="309" type="line"/>
      <point x="38" y="309" type="line" smooth="yes"/>
      <point x="89" y="309"/>
      <point x="142" y="281"/>
      <point x="142" y="201" type="curve"/>
      <point x="142" y="138"/>
      <point x="142" y="76"/>
      <point x="142" y="13" type="curve"/>
      <point x="142" y="-67"/>
      <point x="196" y="-112"/>
    </contour>
  </outline>
</glyph>
<glyph name="bar" format="2">
  <advance width="250"/>
  <unicode hex="007C"/>
  <outline>
    <contour>
      <point x="110" y="-154" type="curve"/>
      <point x="140" y="-154" type="line"/>
      <point x="140" y="-36"/>
      <point x="140" y="67"/>
      <point x="140" y="175" type="curve"/>
      <point x="140" y="457" type="line"/>
      <point x="140" y="565"/>
      <point x="140" y="668"/>
      <point x="140" y="786" type="curve"/>
      <point x="110" y="786" type="line"/>
      <point x="110" y="668"/>
      <point x="110" y="565"/>
      <point x="110" y="457" type="curve"/>
      <point x="110" y="175" type="line"/>
      <point x="110" y="67"/>
      <point x="110" y="-36"/>
    </contour>
  </outline>
</glyph>
<glyph name="asciitilde" format="2">
  <advance width="560"/>
  <unicode hex="007E"/>
  <outline>
    <contour>
      <point x="391" y="233" type="curve" smooth="yes"/>
      <point x="446" y="233"/>
      <point x="490" y="272"/>
      <point x="490" y="344" type="curve"/>
      <point x="461" y="344" type="line"/>
      <point x="461" y="288"/>
      <point x="429" y="264"/>
      <point x="387" y="264" type="curve"/>
      <point x="316" y="264"/>
      <point x="257" y="357"/>
      <point x="170" y="357" type="curve" smooth="yes"/>
      <point x="115" y="357"/>
      <point x="70" y="318"/>
      <point x="70" y="246" type="curve"/>
      <point x="99" y="246" type="line"/>
      <point x="99" y="302"/>
      <point x="132" y="326"/>
      <point x="174" y="326" type="curve"/>
      <point x="245" y="326"/>
      <point x="304" y="233"/>
    </contour>
  </outline>
</glyph>
<glyph name="cent" format="2">
  <advance width="502"/>
  <unicode hex="00A2"/>
  <anchor x="290" y="0" name="bottom"/>
  <anchor x="281" y="494" name="top"/>
  <outline>
    <contour>
      <point x="263" y="-137" type="curve"/>
      <point x="292" y="-137" type="line"/>
      <point x="292" y="-19"/>
      <point x="292" y="84"/>
      <point x="292" y="192" type="curve"/>
      <point x="292" y="294" type="line"/>
      <point x="292" y="402"/>
      <point x="292" y="505"/>
      <point x="292" y="623" type="curve"/>
      <point x="263" y="623" type="line"/>
      <point x="263" y="505"/>
      <point x="263" y="402"/>
      <point x="263" y="294" type="curve"/>
      <point x="263" y="192" type="line"/>
      <point x="263" y="84"/>
      <point x="263" y="-19"/>
    </contour>
    <contour>
      <point x="304" y="-9" type="curve" smooth="yes"/>
      <point x="366" y="-9"/>
      <point x="418" y="9"/>
      <point x="449" y="28" type="curve"/>
      <point x="442" y="62" type="line"/>
      <point x="399" y="35"/>
      <point x="351" y="23"/>
      <point x="304" y="23" type="curve" smooth="yes"/>
      <point x="162" y="23"/>
      <point x="93" y="122"/>
      <point x="93" y="248" type="curve" smooth="yes"/>
      <point x="93" y="385"/>
      <point x="173" y="472"/>
      <point x="296" y="472" type="curve"/>
      <point x="337" y="472"/>
      <point x="386" y="463"/>
      <point x="441" y="431" type="curve"/>
      <point x="446" y="465" type="line"/>
      <point x="408" y="487"/>
      <point x="352" y="504"/>
      <point x="295" y="504" type="curve" smooth="yes"/>
      <point x="150" y="504"/>
      <point x="62" y="393"/>
      <point x="62" y="248" type="curve" smooth="yes"/>
      <point x="62" y="104"/>
      <point x="149" y="-9"/>
    </contour>
  </outline>
</glyph>
<glyph name="currency" format="2">
  <advance width="600"/>
  <unicode hex="00A4"/>
  <outline>
    <contour>
      <point x="298" y="130" type="curve" smooth="yes"/>
      <point x="406" y="130"/>
      <point x="487" y="204"/>
      <point x="487" y="320" type="curve" smooth="yes"/>
      <point x="487" y="433"/>
      <point x="407" y="511"/>
      <point x="300" y="511" type="curve" smooth="yes"/>
      <point x="191" y="511"/>
      <point x="111" y="432"/>
      <point x="111" y="320" type="curve" smooth="yes"/>
      <point x="111" y="204"/>
      <point x="191" y="130"/>
    </contour>
    <contour>
      <point x="77" y="77" type="line"/>
      <point x="118" y="118"/>
      <point x="157" y="157"/>
      <point x="190" y="190" type="curve"/>
      <point x="169" y="211" type="line"/>
      <point x="136" y="178"/>
      <point x="97" y="139"/>
      <point x="56" y="98" type="curve"/>
    </contour>
    <contour>
      <point x="298" y="162" type="curve"/>
      <point x="212" y="162"/>
      <point x="143" y="212"/>
      <point x="143" y="320" type="curve" smooth="yes"/>
      <point x="143" y="422"/>
      <point x="213" y="479"/>
      <point x="300" y="479" type="curve"/>
      <point x="386" y="479"/>
      <point x="455" y="422"/>
      <point x="455" y="320" type="curve" smooth="yes"/>
      <point x="455" y="212"/>
      <point x="386" y="162"/>
    </contour>
    <contour>
      <point x="169" y="431" type="curve"/>
      <point x="190" y="452" type="line"/>
      <point x="157" y="485"/>
      <point x="118" y="524"/>
      <point x="77" y="565" type="curve"/>
      <point x="56" y="544" type="line"/>
      <point x="97" y="503"/>
      <point x="136" y="464"/>
    </contour>
    <contour>
      <point x="523" y="77" type="curve"/>
      <point x="544" y="98" type="line"/>
      <point x="503" y="139"/>
      <point x="464" y="178"/>
      <point x="431" y="211" type="curve"/>
      <point x="410" y="190" type="line"/>
      <point x="443" y="157"/>
      <point x="482" y="118"/>
    </contour>
    <contour>
      <point x="431" y="431" type="line"/>
      <point x="464" y="464"/>
      <point x="503" y="503"/>
      <point x="544" y="544" type="curve"/>
      <point x="523" y="565" type="line"/>
      <point x="482" y="524"/>
      <point x="443" y="485"/>
      <point x="410" y="452" type="curve"/>
    </contour>
  </outline>
</glyph>
<glyph name="yen" format="2">
  <advance width="603"/>
  <unicode hex="00A5"/>
  <outline>
    <contour>
      <point x="287" y="288" type="line"/>
      <point x="316" y="288" type="line"/>
      <point x="470" y="528" type="line"/>
      <point x="502" y="578"/>
      <point x="538" y="634"/>
      <point x="570" y="684" type="curve"/>
      <point x="533" y="684" type="line"/>
      <point x="469" y="584"/>
      <point x="437" y="534"/>
      <point x="387" y="456" type="curve"/>
      <point x="304" y="326" type="line"/>
      <point x="298" y="326" type="line"/>
      <point x="216" y="455" type="line"/>
      <point x="165" y="535"/>
      <point x="135" y="582"/>
      <point x="70" y="684" type="curve"/>
      <point x="33" y="684" type="line"/>
      <point x="83" y="606"/>
      <point x="104" y="573"/>
      <point x="133" y="528" type="curve"/>
    </contour>
    <contour>
      <point x="286" y="0" type="curve"/>
      <point x="317" y="0" type="line"/>
      <point x="317" y="78"/>
      <point x="317" y="145"/>
      <point x="317" y="228" type="curve"/>
      <point x="317" y="313" type="line"/>
      <point x="286" y="313" type="line"/>
      <point x="286" y="228" type="line"/>
      <point x="286" y="145"/>
      <point x="286" y="78"/>
    </contour>
    <contour>
      <point x="87" y="158" type="line"/>
      <point x="145" y="158"/>
      <point x="200" y="158"/>
      <point x="247" y="158" type="curve"/>
      <point x="357" y="158" type="line"/>
      <point x="404" y="158"/>
      <point x="459" y="158"/>
      <point x="517" y="158" type="curve"/>
      <point x="517" y="186" type="line"/>
      <point x="459" y="186"/>
      <point x="404" y="186"/>
      <point x="357" y="186" type="curve"/>
      <point x="247" y="186" type="line"/>
      <point x="200" y="186"/>
      <point x="145" y="186"/>
      <point x="87" y="186" type="curve"/>
    </contour>
    <contour>
      <point x="87" y="288" type="line"/>
      <point x="145" y="288"/>
      <point x="200" y="288"/>
      <point x="247" y="288" type="curve"/>
      <point x="357" y="288" type="line"/>
      <point x="404" y="288"/>
      <point x="459" y="288"/>
      <point x="517" y="288" type="curve"/>
      <point x="517" y="316" type="line"/>
      <point x="459" y="316"/>
      <point x="404" y="316"/>
      <point x="357" y="316" type="curve"/>
      <point x="247" y="316" type="line"/>
      <point x="200" y="316"/>
      <point x="145" y="316"/>
      <point x="87" y="316" type="curve"/>
    </contour>
  </outline>
</glyph>
<glyph name="brokenbar" format="2">
  <advance width="250"/>
  <unicode hex="00A6"/>
  <outline>
    <contour>
      <point x="110" y="366" type="line"/>
      <point x="140" y="366" type="line"/>
      <point x="140" y="457" type="line"/>
      <point x="140" y="565"/>
      <point x="140" y="668"/>
      <point x="140" y="786" type="curve"/>
      <point x="110" y="786" type="line"/>
      <point x="110" y="668"/>
      <point x="110" y="565"/>
      <point x="110" y="457" type="curve"/>
    </contour>
    <contour>
      <point x="110" y="-154" type="curve"/>
      <point x="140" y="-154" type="line"/>
      <point x="140" y="-36"/>
      <point x="140" y="67"/>
      <point x="140" y="175" type="curve"/>
      <point x="140" y="266" type="line"/>
      <point x="110" y="266" type="line"/>
      <point x="110" y="175" type="line"/>
      <point x="110" y="67"/>
      <point x="110" y="-36"/>
    </contour>
  </outline>
</glyph>
<glyph name="logicalnot" format="2">
  <advance width="560"/>
  <unicode hex="00AC"/>
  <outline>
    <contour>
      <point x="460" y="65" type="curve"/>
      <point x="490" y="65" type="line"/>
      <point x="490" y="123"/>
      <point x="490" y="178"/>
      <point x="490" y="225" type="curve"/>
      <point x="490" y="310" type="line"/>
      <point x="432" y="310"/>
      <point x="377" y="310"/>
      <point x="330" y="310" type="curve"/>
      <point x="230" y="310" type="line"/>
      <point x="183" y="310"/>
      <point x="128" y="310"/>
      <point x="70" y="310" type="curve"/>
      <point x="70" y="280" type="line"/>
      <point x="128" y="280"/>
      <point x="183" y="280"/>
      <point x="230" y="280" type="curve"/>
      <point x="330" y="280" type="line"/>
      <point x="374" y="280"/>
      <point x="426" y="280"/>
      <point x="480" y="280" type="curve"/>
      <point x="460" y="300" type="line"/>
      <point x="460" y="225" type="line"/>
      <point x="460" y="178"/>
      <point x="460" y="123"/>
    </contour>
  </outline>
</glyph>
<glyph name="registered" format="2">
  <advance width="562"/>
  <unicode hex="00AE"/>
  <outline>
    <contour>
      <point x="283" y="266" type="curve" smooth="yes"/>
      <point x="430" y="266"/>
      <point x="522" y="368"/>
      <point x="522" y="505" type="curve" smooth="yes"/>
      <point x="522" y="638"/>
      <point x="434" y="744"/>
      <point x="282" y="744" type="curve" smooth="yes"/>
      <point x="131" y="744"/>
      <point x="40" y="640"/>
      <point x="40" y="505" type="curve" smooth="yes"/>
      <point x="40" y="375"/>
      <point x="124" y="266"/>
    </contour>
    <contour>
      <point x="189" y="368" type="curve"/>
      <point x="217" y="368" type="line"/>
      <point x="217" y="400"/>
      <point x="217" y="427"/>
      <point x="217" y="462" type="curve"/>
      <point x="217" y="554" type="line"/>
      <point x="217" y="589"/>
      <point x="217" y="617"/>
      <point x="217" y="649" type="curve"/>
      <point x="189" y="653" type="line"/>
      <point x="189" y="621"/>
      <point x="189" y="593"/>
      <point x="189" y="558" type="curve"/>
      <point x="189" y="462" type="line"/>
      <point x="189" y="427"/>
      <point x="189" y="400"/>
    </contour>
    <contour>
      <point x="283" y="296" type="curve"/>
      <point x="152" y="296"/>
      <point x="70" y="375"/>
      <point x="70" y="505" type="curve" smooth="yes"/>
      <point x="70" y="632"/>
      <point x="154" y="714"/>
      <point x="282" y="714" type="curve"/>
      <point x="410" y="714"/>
      <point x="491" y="634"/>
      <point x="491" y="505" type="curve" smooth="yes"/>
      <point x="491" y="377"/>
      <point x="410" y="296"/>
    </contour>
    <contour>
      <point x="367" y="368" type="curve"/>
      <point x="403" y="368" type="line"/>
      <point x="385" y="390"/>
      <point x="359" y="422"/>
      <point x="336" y="450" type="curve"/>
      <point x="290" y="506" type="line"/>
      <point x="280" y="491" type="line"/>
      <point x="350" y="491"/>
      <point x="377" y="529"/>
      <point x="377" y="575" type="curve" smooth="yes"/>
      <point x="377" y="631"/>
      <point x="338" y="653"/>
      <point x="282" y="653" type="curve"/>
      <point x="242" y="653"/>
      <point x="210" y="653"/>
      <point x="189" y="653" type="curve"/>
      <point x="208" y="626" type="line"/>
      <point x="281" y="626" type="line" smooth="yes"/>
      <point x="306" y="626"/>
      <point x="348" y="624"/>
      <point x="348" y="575" type="curve" smooth="yes"/>
      <point x="348" y="529"/>
      <point x="316" y="515"/>
      <point x="268" y="515" type="curve" smooth="yes"/>
      <point x="212" y="515" type="line"/>
      <point x="212" y="489" type="line"/>
      <point x="277" y="489" type="line"/>
      <point x="259" y="501" type="line"/>
      <point x="311" y="437" type="line"/>
      <point x="329" y="415"/>
      <point x="346" y="394"/>
    </contour>
  </outline>
</glyph>
<glyph name="degree" format="2">
  <advance width="454"/>
  <unicode hex="00B0"/>
  <outline>
    <contour>
      <point x="227" y="328" type="curve" smooth="yes"/>
      <point x="335" y="328"/>
      <point x="414" y="401"/>
      <point x="414" y="510" type="curve" smooth="yes"/>
      <point x="414" y="616"/>
      <point x="335" y="696"/>
      <point x="228" y="696" type="curve" smooth="yes"/>
      <point x="120" y="696"/>
      <point x="40" y="616"/>
      <point x="40" y="510" type="curve" smooth="yes"/>
      <point x="40" y="401"/>
      <point x="120" y="328"/>
    </contour>
    <contour>
      <point x="227" y="359" type="curve"/>
      <point x="132" y="359"/>
      <point x="71" y="416"/>
      <point x="71" y="510" type="curve" smooth="yes"/>
      <point x="71" y="601"/>
      <point x="132" y="665"/>
      <point x="228" y="665" type="curve"/>
      <point x="323" y="665"/>
      <point x="383" y="601"/>
      <point x="383" y="510" type="curve" smooth="yes"/>
      <point x="383" y="416"/>
      <point x="323" y="359"/>
    </contour>
  </outline>
</glyph>
<glyph name="plusminus" format="2">
  <advance width="560"/>
  <unicode hex="00B1"/>
  <outline>
    <contour>
      <point x="70" y="0" type="line"/>
      <point x="128" y="0"/>
      <point x="183" y="0"/>
      <point x="230" y="0" type="curve"/>
      <point x="330" y="0" type="line"/>
      <point x="377" y="0"/>
      <point x="432" y="0"/>
      <point x="490" y="0" type="curve"/>
      <point x="490" y="30" type="line"/>
      <point x="432" y="30"/>
      <point x="377" y="30"/>
      <point x="330" y="30" type="curve"/>
      <point x="230" y="30" type="line"/>
      <point x="183" y="30"/>
      <point x="128" y="30"/>
      <point x="70" y="30" type="curve"/>
    </contour>
    <contour>
      <point x="70" y="353" type="line"/>
      <point x="128" y="353"/>
      <point x="183" y="353"/>
      <point x="230" y="353" type="curve"/>
      <point x="330" y="353" type="line"/>
      <point x="377" y="353"/>
      <point x="432" y="353"/>
      <point x="490" y="353" type="curve"/>
      <point x="490" y="383" type="line"/>
      <point x="432" y="383"/>
      <point x="377" y="383"/>
      <point x="330" y="383" type="curve"/>
      <point x="230" y="383" type="line"/>
      <point x="183" y="383"/>
      <point x="128" y="383"/>
      <point x="70" y="383" type="curve"/>
    </contour>
    <contour>
      <point x="265" y="138" type="curve"/>
      <point x="295" y="138" type="line"/>
      <point x="295" y="196"/>
      <point x="295" y="251"/>
      <point x="295" y="298" type="curve"/>
      <point x="295" y="438" type="line"/>
      <point x="295" y="485"/>
      <point x="295" y="540"/>
      <point x="295" y="598" type="curve"/>
      <point x="265" y="598" type="line"/>
      <point x="265" y="540"/>
      <point x="265" y="485"/>
      <point x="265" y="438" type="curve"/>
      <point x="265" y="298" type="line"/>
      <point x="265" y="251"/>
      <point x="265" y="196"/>
    </contour>
  </outline>
</glyph>
<glyph name="micro" format="2">
  <advance width="549"/>
  <unicode hex="00B5"/>
  <outline>
    <contour>
      <point x="90" y="-194" type="curve"/>
      <point x="120" y="-192" type="line"/>
      <point x="120" y="-117"/>
      <point x="120" y="-52"/>
      <point x="120" y="29" type="curve" smooth="yes"/>
      <point x="120" y="49" type="line"/>
      <point x="117" y="49" type="line"/>
      <point x="141" y="11"/>
      <point x="180" y="-9"/>
      <point x="242" y="-9" type="curve" smooth="yes"/>
      <point x="331" y="-9"/>
      <point x="394" y="53"/>
      <point x="424" y="95" type="curve"/>
      <point x="430" y="95" type="line"/>
      <point x="430" y="0" type="line"/>
      <point x="459" y="0" type="line"/>
      <point x="459" y="53"/>
      <point x="459" y="97"/>
      <point x="459" y="137" type="curve"/>
      <point x="459" y="271" type="line"/>
      <point x="459" y="352"/>
      <point x="459" y="419"/>
      <point x="459" y="494" type="curve"/>
      <point x="429" y="494" type="line"/>
      <point x="429" y="419"/>
      <point x="429" y="352"/>
      <point x="429" y="271" type="curve"/>
      <point x="429" y="150" type="line"/>
      <point x="384" y="80"/>
      <point x="324" y="23"/>
      <point x="243" y="23" type="curve" smooth="yes"/>
      <point x="150" y="23"/>
      <point x="120" y="73"/>
      <point x="120" y="169" type="curve"/>
      <point x="120" y="271" type="line"/>
      <point x="120" y="352"/>
      <point x="120" y="421"/>
      <point x="120" y="496" type="curve"/>
      <point x="90" y="494" type="line"/>
      <point x="90" y="419"/>
      <point x="90" y="352"/>
      <point x="90" y="271" type="curve"/>
      <point x="90" y="29" type="line"/>
      <point x="90" y="-52"/>
      <point x="90" y="-119"/>
    </contour>
  </outline>
</glyph>
<glyph name="paragraph" format="2">
  <advance width="522"/>
  <unicode hex="00B6"/>
  <outline>
    <contour>
      <point x="225" y="313" type="curve" smooth="yes"/>
      <point x="245" y="313" type="line"/>
      <point x="245" y="713" type="line"/>
      <point x="225" y="713" type="line"/>
      <point x="116" y="713"/>
      <point x="40" y="631"/>
      <point x="40" y="516" type="curve" smooth="yes"/>
      <point x="40" y="408"/>
      <point x="109" y="313"/>
    </contour>
    <contour>
      <point x="225" y="-174" type="curve"/>
      <point x="255" y="-174" type="line"/>
      <point x="255" y="-56"/>
      <point x="255" y="47"/>
      <point x="255" y="155" type="curve"/>
      <point x="255" y="384" type="line"/>
      <point x="255" y="492"/>
      <point x="255" y="595"/>
      <point x="255" y="713" type="curve"/>
      <point x="225" y="713" type="line"/>
      <point x="225" y="595"/>
      <point x="225" y="492"/>
      <point x="225" y="384" type="curve"/>
      <point x="225" y="155" type="line"/>
      <point x="225" y="47"/>
      <point x="225" y="-56"/>
    </contour>
    <contour>
      <point x="355" y="-174" type="curve"/>
      <point x="385" y="-174" type="line"/>
      <point x="385" y="-56"/>
      <point x="385" y="47"/>
      <point x="385" y="155" type="curve"/>
      <point x="385" y="384" type="line"/>
      <point x="385" y="492"/>
      <point x="385" y="595"/>
      <point x="385" y="713" type="curve"/>
      <point x="355" y="713" type="line"/>
      <point x="355" y="595"/>
      <point x="355" y="492"/>
      <point x="355" y="384" type="curve"/>
      <point x="355" y="155" type="line"/>
      <point x="355" y="47"/>
      <point x="355" y="-56"/>
    </contour>
    <contour>
      <point x="232" y="683" type="line"/>
      <point x="332" y="683" type="line"/>
      <point x="379" y="683"/>
      <point x="434" y="683"/>
      <point x="492" y="683" type="curve"/>
      <point x="492" y="713" type="line"/>
      <point x="434" y="713"/>
      <point x="379" y="713"/>
      <point x="332" y="713" type="curve"/>
      <point x="232" y="713" type="line"/>
    </contour>
  </outline>
</glyph>
<glyph name="multiply" format="2">
  <advance width="554"/>
  <unicode hex="00D7"/>
  <outline>
    <contour>
      <point x="457" y="93" type="curve"/>
      <point x="479" y="115" type="line"/>
      <point x="438" y="156"/>
      <point x="399" y="195"/>
      <point x="365" y="228" type="curve"/>
      <point x="210" y="383" type="line"/>
      <point x="177" y="417"/>
      <point x="138" y="456"/>
      <point x="97" y="497" type="curve"/>
      <point x="75" y="475" type="line"/>
      <point x="116" y="434"/>
      <point x="155" y="395"/>
      <point x="189" y="362" type="curve"/>
      <point x="344" y="207" type="line"/>
      <point x="377" y="173"/>
      <point x="416" y="134"/>
    </contour>
    <contour>
      <point x="97" y="93" type="line"/>
      <point x="138" y="134"/>
      <point x="177" y="173"/>
      <point x="210" y="207" type="curve"/>
      <point x="365" y="362" type="line"/>
      <point x="399" y="395"/>
      <point x="438" y="434"/>
      <point x="479" y="475" type="curve"/>
      <point x="457" y="497" type="line"/>
      <point x="416" y="456"/>
      <point x="377" y="417"/>
      <point x="344" y="383" type="curve"/>
      <point x="189" y="228" type="line"/>
      <point x="155" y="195"/>
      <point x="116" y="156"/>
      <point x="75" y="115" type="curve"/>
    </contour>
  </outline>
</glyph>
<glyph name="germandbls" format="2">
  <advance width="601"/>
  <unicode hex="00DF"/>
  <outline>
    <contour>
      <point x="328" y="-4" type="curve" smooth="yes"/>
      <point x="460" y="-4"/>
      <point x="539" y="82"/>
      <point x="539" y="207" type="curve" smooth="yes"/>
      <point x="539" y="345"/>
      <point x="441" y="392"/>
      <point x="386" y="407" type="curve"/>
      <point x="386" y="413" type="line"/>
      <point x="430" y="432"/>
      <point x="492" y="478"/>
      <point x="492" y="575" type="curve" smooth="yes"/>
      <point x="492" y="678"/>
      <point x="419" y="744"/>
      <point x="316" y="744" type="curve" smooth="yes"/>
      <point x="197" y="744"/>
      <point x="122" y="664"/>
      <point x="122" y="516" type="curve" smooth="yes"/>
      <point x="122" y="434"/>
      <point x="122" y="352"/>
      <point x="122" y="271" type="curve"/>
      <point x="122" y="221" type="line"/>
      <point x="122" y="140"/>
      <point x="122" y="75"/>
      <point x="122" y="0" type="curve"/>
      <point x="152" y="0" type="line"/>
      <point x="152" y="75"/>
      <point x="152" y="140"/>
      <point x="152" y="221" type="curve"/>
      <point x="152" y="511" type="line" smooth="yes"/>
      <point x="152" y="646"/>
      <point x="209" y="712"/>
      <point x="316" y="712" type="curve"/>
      <point x="405" y="712"/>
      <point x="461" y="660"/>
      <point x="461" y="576" type="curve" smooth="yes"/>
      <point x="461" y="475"/>
      <point x="380" y="422"/>
      <point x="293" y="422" type="curve"/>
      <point x="293" y="392" type="line"/>
      <point x="413" y="392"/>
      <point x="508" y="334"/>
      <point x="508" y="207" type="curve" smooth="yes"/>
      <point x="508" y="95"/>
      <point x="442" y="27"/>
      <point x="328" y="27" type="curve"/>
      <point x="306" y="27"/>
      <point x="285" y="29"/>
      <point x="271" y="32" type="curve"/>
      <point x="271" y="1" type="line"/>
      <point x="286" y="-2"/>
      <point x="308" y="-4"/>
    </contour>
    <contour>
      <point x="29" y="466" type="line"/>
      <point x="131" y="466" type="line"/>
      <point x="131" y="494" type="line"/>
      <point x="29" y="494" type="line"/>
    </contour>
  </outline>
</glyph>
<glyph name="divide" format="2">
  <advance width="560"/>
  <unicode hex="00F7"/>
  <outline>
    <contour>
      <point x="70" y="280" type="line"/>
      <point x="128" y="280"/>
      <point x="183" y="280"/>
      <point x="230" y="280" type="curve"/>
      <point x="330" y="280" type="line"/>
      <point x="377" y="280"/>
      <point x="432" y="280"/>
      <point x="490" y="280" type="curve"/>
      <point x="490" y="310" type="line"/>
      <point x="432" y="310"/>
      <point x="377" y="310"/>
      <point x="330" y="310" type="curve"/>
      <point x="230" y="310" type="line"/>
      <point x="183" y="310"/>
      <point x="128" y="310"/>
      <point x="70" y="310" type="curve"/>
    </contour>
    <contour>
      <point x="279" y="80" type="curve" smooth="yes"/>
      <point x="307" y="80"/>
      <point x="324" y="97"/>
      <point x="324" y="125" type="curve" smooth="yes"/>
      <point x="324" y="154"/>
      <point x="307" y="170"/>
      <point x="279" y="170" type="curve" smooth="yes"/>
      <point x="252" y="170"/>
      <point x="234" y="154"/>
      <point x="234" y="125" type="curve" smooth="yes"/>
      <point x="234" y="97"/>
      <point x="252" y="80"/>
    </contour>
    <contour>
      <point x="279" y="418" type="curve" smooth="yes"/>
      <point x="307" y="418"/>
      <point x="324" y="435"/>
      <point x="324" y="463" type="curve" smooth="yes"/>
      <point x="324" y="492"/>
      <point x="307" y="508"/>
      <point x="279" y="508" type="curve" smooth="yes"/>
      <point x="252" y="508"/>
      <point x="234" y="492"/>
      <point x="234" y="463" type="curve" smooth="yes"/>
      <point x="234" y="435"/>
      <point x="252" y="418"/>
    </contour>
  </outline>
</glyph>
<glyph name="hbar" format="2">
  <advance width="569"/>
  <unicode hex="0127"/>
  <outline>
    <contour>
      <point x="-6" y="612" type="line"/>
      <point x="49" y="612"/>
      <point x="100" y="612"/>
      <point x="143" y="612" type="curve"/>
      <point x="185" y="612" type="line"/>
      <point x="228" y="612"/>
      <point x="279" y="612"/>
      <point x="334" y="612" type="curve"/>
      <point x="334" y="640" type="line"/>
      <point x="279" y="640"/>
      <point x="228" y="640"/>
      <point x="185" y="640" type="curve"/>
      <point x="143" y="640" type="line"/>
      <point x="100" y="640"/>
      <point x="49" y="640"/>
      <point x="-6" y="640" type="curve"/>
    </contour>
    <contour>
      <point x="105" y="0" type="curve"/>
      <point x="135" y="0" type="line"/>
      <point x="135" y="75"/>
      <point x="135" y="140"/>
      <point x="135" y="221" type="curve"/>
      <point x="135" y="345" type="line"/>
      <point x="180" y="415"/>
      <point x="240" y="472"/>
      <point x="326" y="472" type="curve" smooth="yes"/>
      <point x="419" y="472"/>
      <point x="449" y="422"/>
      <point x="449" y="326" type="curve"/>
      <point x="449" y="221" type="line"/>
      <point x="449" y="144"/>
      <point x="449" y="75"/>
      <point x="449" y="0" type="curve"/>
      <point x="479" y="0" type="line"/>
      <point x="479" y="75"/>
      <point x="479" y="144"/>
      <point x="479" y="221" type="curve"/>
      <point x="479" y="259"/>
      <point x="479" y="283"/>
      <point x="479" y="326" type="curve" smooth="yes"/>
      <point x="479" y="440"/>
      <point x="437" y="504"/>
      <point x="327" y="504" type="curve" smooth="yes"/>
      <point x="233" y="504"/>
      <point x="171" y="443"/>
      <point x="141" y="401" type="curve"/>
      <point x="135" y="401" type="line"/>
      <point x="135" y="494" type="line"/>
      <point x="135" y="579"/>
      <point x="135" y="658"/>
      <point x="135" y="739" type="curve"/>
      <point x="105" y="731" type="line"/>
      <point x="105" y="658"/>
      <point x="105" y="579"/>
      <point x="105" y="494" type="curve"/>
      <point x="105" y="221" type="line"/>
      <point x="105" y="140"/>
      <point x="105" y="75"/>
    </contour>
  </outline>
</glyph>
<glyph name="idotless" format="2">
  <advance width="240"/>
  <unicode hex="0131"/>
  <anchor x="120" y="0" name="bottom"/>
  <anchor x="135" y="0" name="ogonek"/>
  <anchor x="120" y="494" name="top"/>
  <outline>
    <contour>
      <point x="105" y="0" type="curve"/>
      <point x="135" y="0" type="line"/>
      <point x="135" y="75"/>
      <point x="135" y="140"/>
      <point x="135" y="221" type="curve"/>
      <point x="135" y="271" type="line"/>
      <point x="135" y="352"/>
      <point x="135" y="419"/>
      <point x="135" y="494" type="curve"/>
      <point x="105" y="494" type="line"/>
      <point x="105" y="419"/>
      <point x="105" y="352"/>
      <point x="105" y="271" type="curve"/>
      <point x="105" y="221" type="line"/>
      <point x="105" y="140"/>
      <point x="105" y="75"/>
    </contour>
  </outline>
</glyph>
<glyph name="kgreenlandic" format="2">
  <advance width="507"/>
  <unicode hex="0138"/>
  <outline>
    <contour>
      <point x="431" y="0" type="curve"/>
      <point x="480" y="0" type="line"/>
      <point x="411" y="57"/>
      <point x="341" y="113"/>
      <point x="272" y="170" type="curve"/>
      <point x="162" y="259" type="line"/>
      <point x="162" y="240" type="line"/>
      <point x="259" y="323" type="line"/>
      <point x="326" y="380"/>
      <point x="392" y="437"/>
      <point x="459" y="494" type="curve"/>
      <point x="413" y="494" type="line"/>
      <point x="356" y="445"/>
      <point x="298" y="395"/>
      <point x="241" y="346" type="curve"/>
      <point x="148" y="266" type="line"/>
      <point x="118" y="266" type="line"/>
      <point x="118" y="238" type="line"/>
      <point x="141" y="238" type="line"/>
      <point x="254" y="147" type="line"/>
      <point x="313" y="98"/>
      <point x="372" y="49"/>
    </contour>
    <contour>
      <point x="95" y="0" type="curve"/>
      <point x="125" y="0" type="line"/>
      <point x="125" y="75"/>
      <point x="125" y="140"/>
      <point x="125" y="221" type="curve"/>
      <point x="125" y="271" type="line"/>
      <point x="125" y="352"/>
      <point x="125" y="421"/>
      <point x="125" y="496" type="curve"/>
      <point x="95" y="494" type="line"/>
      <point x="95" y="419"/>
      <point x="95" y="352"/>
      <point x="95" y="271" type="curve"/>
      <point x="95" y="221" type="line"/>
      <point x="95" y="140"/>
      <point x="95" y="75"/>
    </contour>
  </outline>
</glyph>
<glyph name="Eng" format="2">
  <advance width="757"/>
  <unicode hex="014A"/>
  <outline>
    <contour>
      <point x="513" y="-192" type="curve"/>
      <point x="557" y="-192" type="line"/>
      <point x="602" y="-147"/>
      <point x="647" y="-86"/>
      <point x="647" y="20" type="curve" smooth="yes"/>
      <point x="647" y="89"/>
      <point x="647" y="161"/>
      <point x="647" y="238" type="curve"/>
      <point x="647" y="475" type="line"/>
      <point x="647" y="562"/>
      <point x="647" y="632"/>
      <point x="647" y="713" type="curve"/>
      <point x="615" y="713" type="line"/>
      <point x="615" y="632"/>
      <point x="615" y="562"/>
      <point x="615" y="475" type="curve"/>
      <point x="615" y="62" type="line"/>
      <point x="611" y="62" type="line"/>
      <point x="426" y="319" type="line"/>
      <point x="335" y="445"/>
      <point x="243" y="575"/>
      <point x="143" y="713" type="curve"/>
      <point x="110" y="713" type="line"/>
      <point x="110" y="632"/>
      <point x="110" y="562"/>
      <point x="110" y="475" type="curve"/>
      <point x="110" y="238" type="line"/>
      <point x="110" y="151"/>
      <point x="110" y="81"/>
      <point x="110" y="0" type="curve"/>
      <point x="142" y="0" type="line"/>
      <point x="142" y="81"/>
      <point x="142" y="151"/>
      <point x="142" y="238" type="curve"/>
      <point x="142" y="655" type="line"/>
      <point x="146" y="655" type="line"/>
      <point x="331" y="396" type="line"/>
      <point x="442" y="241"/>
      <point x="532" y="116"/>
      <point x="615" y="0" type="curve"/>
      <point x="632" y="0" type="line"/>
      <point x="615" y="33" type="line"/>
      <point x="615" y="27" type="line"/>
      <point x="615" y="-79"/>
      <point x="575" y="-131"/>
    </contour>
  </outline>
</glyph>
<glyph name="eng" format="2">
  <advance width="569"/>
  <unicode hex="014B"/>
  <outline>
    <contour>
      <point x="360" y="-194" type="curve"/>
      <point x="404" y="-192" type="line"/>
      <point x="447" y="-148"/>
      <point x="479" y="-84"/>
      <point x="479" y="17" type="curve" smooth="yes"/>
      <point x="479" y="78"/>
      <point x="479" y="143"/>
      <point x="479" y="271" type="curve"/>
      <point x="479" y="291"/>
      <point x="479" y="303"/>
      <point x="479" y="326" type="curve" smooth="yes"/>
      <point x="479" y="440"/>
      <point x="437" y="504"/>
      <point x="327" y="504" type="curve" smooth="yes"/>
      <point x="233" y="504"/>
      <point x="171" y="443"/>
      <point x="141" y="401" type="curve"/>
      <point x="135" y="401" type="line"/>
      <point x="135" y="497" type="line"/>
      <point x="105" y="494" type="line"/>
      <point x="105" y="420"/>
      <point x="105" y="342"/>
      <point x="105" y="271" type="curve"/>
      <point x="105" y="221" type="line"/>
      <point x="105" y="140"/>
      <point x="105" y="75"/>
      <point x="105" y="0" type="curve"/>
      <point x="135" y="0" type="line"/>
      <point x="135" y="75"/>
      <point x="135" y="140"/>
      <point x="135" y="221" type="curve"/>
      <point x="135" y="345" type="line"/>
      <point x="180" y="415"/>
      <point x="240" y="472"/>
      <point x="326" y="472" type="curve" smooth="yes"/>
      <point x="419" y="472"/>
      <point x="449" y="422"/>
      <point x="449" y="326" type="curve"/>
      <point x="449" y="221" type="line"/>
      <point x="449" y="25" type="line"/>
      <point x="449" y="-83"/>
      <point x="422" y="-131"/>
    </contour>
  </outline>
</glyph>
<glyph name="OE" format="2">
  <advance width="1097"/>
  <unicode hex="0152"/>
  <anchor x="549" y="0" name="bottom"/>
  <anchor x="549" y="713" name="top"/>
  <outline>
    <contour>
      <point x="616" y="0" type="curve"/>
      <point x="648" y="0" type="line"/>
      <point x="648" y="4" type="line"/>
      <point x="648" y="85"/>
      <point x="648" y="155"/>
      <point x="648" y="242" type="curve"/>
      <point x="648" y="472" type="line"/>
      <point x="648" y="559"/>
      <point x="648" y="629"/>
      <point x="648" y="710" type="curve"/>
      <point x="648" y="713" type="line"/>
      <point x="616" y="713" type="line"/>
      <point x="616" y="632"/>
      <point x="616" y="562"/>
      <point x="616" y="475" type="curve"/>
      <point x="616" y="238" type="line"/>
      <point x="616" y="151"/>
      <point x="616" y="81"/>
    </contour>
    <contour>
      <point x="642" y="0" type="line"/>
      <point x="1034" y="0" type="line"/>
      <point x="1034" y="31" type="line"/>
      <point x="957" y="31"/>
      <point x="875" y="31"/>
      <point x="782" y="31" type="curve"/>
      <point x="642" y="31" type="line"/>
    </contour>
    <contour>
      <point x="642" y="347" type="line"/>
      <point x="786" y="347" type="line"/>
      <point x="880" y="347"/>
      <point x="943" y="347"/>
      <point x="1012" y="347" type="curve"/>
      <point x="1012" y="378" type="line"/>
      <point x="947" y="378"/>
      <point x="883" y="378"/>
      <point x="787" y="378" type="curve"/>
      <point x="642" y="378" type="line"/>
    </contour>
    <contour>
      <point x="642" y="682" type="line"/>
      <point x="778" y="682" type="line"/>
      <point x="888" y="682"/>
      <point x="964" y="682"/>
      <point x="1035" y="682" type="curve"/>
      <point x="1035" y="713" type="line"/>
      <point x="642" y="713" type="line"/>
    </contour>
    <contour>
      <point x="417" y="-9" type="curve" smooth="yes"/>
      <point x="491" y="-9"/>
      <point x="567" y="7"/>
      <point x="625" y="46" type="curve"/>
      <point x="619" y="82" type="line"/>
      <point x="559" y="41"/>
      <point x="489" y="24"/>
      <point x="415" y="24" type="curve"/>
      <point x="207" y="24"/>
      <point x="93" y="173"/>
      <point x="93" y="358" type="curve" smooth="yes"/>
      <point x="93" y="560"/>
      <point x="225" y="692"/>
      <point x="402" y="692" type="curve"/>
      <point x="474" y="692"/>
      <point x="547" y="673"/>
      <point x="625" y="629" type="curve"/>
      <point x="630" y="664" type="line"/>
      <point x="584" y="691"/>
      <point x="502" y="725"/>
      <point x="403" y="725" type="curve" smooth="yes"/>
      <point x="202" y="725"/>
      <point x="60" y="576"/>
      <point x="60" y="359" type="curve" smooth="yes"/>
      <point x="60" y="153"/>
      <point x="190" y="-9"/>
    </contour>
  </outline>
</glyph>
<glyph name="oe" format="2">
  <advance width="950"/>
  <unicode hex="0153"/>
  <anchor x="513" y="0" name="bottom"/>
  <anchor x="513" y="494" name="top"/>
  <outline>
    <contour>
      <point x="290" y="-9" type="curve" smooth="yes"/>
      <point x="431" y="-9"/>
      <point x="524" y="106"/>
      <point x="524" y="251" type="curve" smooth="yes"/>
      <point x="524" y="395"/>
      <point x="434" y="504"/>
      <point x="290" y="504" type="curve" smooth="yes"/>
      <point x="150" y="504"/>
      <point x="52" y="399"/>
      <point x="52" y="251" type="curve" smooth="yes"/>
      <point x="52" y="113"/>
      <point x="141" y="-9"/>
    </contour>
    <contour>
      <point x="290" y="23" type="curve"/>
      <point x="151" y="23"/>
      <point x="83" y="134"/>
      <point x="83" y="251" type="curve" smooth="yes"/>
      <point x="83" y="374"/>
      <point x="155" y="472"/>
      <point x="290" y="472" type="curve"/>
      <point x="416" y="472"/>
      <point x="494" y="382"/>
      <point x="494" y="251" type="curve" smooth="yes"/>
      <point x="494" y="134"/>
      <point x="427" y="23"/>
    </contour>
    <contour>
      <point x="741" y="-9" type="curve" smooth="yes"/>
      <point x="800" y="-9"/>
      <point x="857" y="4"/>
      <point x="895" y="27" type="curve"/>
      <point x="892" y="61" type="line"/>
      <point x="846" y="34"/>
      <point x="794" y="23"/>
      <point x="741" y="23" type="curve" smooth="yes"/>
      <point x="594" y="23"/>
      <point x="525" y="111"/>
      <point x="525" y="249" type="curve"/>
      <point x="525" y="251" type="line"/>
      <point x="525" y="379"/>
      <point x="593" y="472"/>
      <point x="715" y="472" type="curve"/>
      <point x="811" y="472"/>
      <point x="875" y="416"/>
      <point x="875" y="295" type="curve" smooth="yes"/>
      <point x="875" y="285"/>
      <point x="875" y="275"/>
      <point x="874" y="264" type="curve"/>
      <point x="901" y="237" type="line"/>
      <point x="904" y="256"/>
      <point x="905" y="274"/>
      <point x="905" y="297" type="curve" smooth="yes"/>
      <point x="905" y="427"/>
      <point x="831" y="504"/>
      <point x="714" y="504" type="curve" smooth="yes"/>
      <point x="583" y="504"/>
      <point x="495" y="398"/>
      <point x="495" y="251" type="curve" smooth="yes"/>
      <point x="495" y="101"/>
      <point x="575" y="-9"/>
    </contour>
    <contour>
      <point x="510" y="237" type="line"/>
      <point x="901" y="237" type="line"/>
      <point x="901" y="268" type="line"/>
      <point x="879" y="267" type="line"/>
      <point x="510" y="267" type="line"/>
    </contour>
  </outline>
</glyph>
<glyph name="tbar" format="2">
  <advance width="400"/>
  <unicode hex="0167"/>
  <outline>
    <contour>
      <point x="37" y="272" type="line"/>
      <point x="88" y="272"/>
      <point x="134" y="272"/>
      <point x="172" y="272" type="curve"/>
      <point x="212" y="272" type="line"/>
      <point x="250" y="272"/>
      <point x="296" y="272"/>
      <point x="347" y="272" type="curve"/>
      <point x="347" y="300" type="line"/>
      <point x="296" y="300"/>
      <point x="250" y="300"/>
      <point x="212" y="300" type="curve"/>
      <point x="172" y="300" type="line"/>
      <point x="134" y="300"/>
      <point x="88" y="300"/>
      <point x="37" y="300" type="curve"/>
    </contour>
    <contour>
      <point x="273" y="-9" type="curve" smooth="yes"/>
      <point x="314" y="-9"/>
      <point x="350" y="3"/>
      <point x="367" y="17" type="curve"/>
      <point x="361" y="51" type="line"/>
      <point x="338" y="32"/>
      <point x="303" y="23"/>
      <point x="275" y="23" type="curve" smooth="yes"/>
      <point x="202" y="23"/>
      <point x="166" y="62"/>
      <point x="166" y="143" type="curve" smooth="yes"/>
      <point x="166" y="480" type="line"/>
      <point x="166" y="550"/>
      <point x="166" y="594"/>
      <point x="166" y="665" type="curve"/>
      <point x="136" y="654" type="line"/>
      <point x="136" y="594"/>
      <point x="136" y="542"/>
      <point x="136" y="480" type="curve"/>
      <point x="136" y="414"/>
      <point x="136" y="284"/>
      <point x="136" y="145" type="curve" smooth="yes"/>
      <point x="136" y="44"/>
      <point x="183" y="-9"/>
    </contour>
    <contour>
      <point x="29" y="466" type="line"/>
      <point x="141" y="466" type="line"/>
      <point x="149" y="466" type="line"/>
      <point x="217" y="466"/>
      <point x="290" y="466"/>
      <point x="360" y="466" type="curve"/>
      <point x="360" y="494" type="line"/>
      <point x="29" y="494" type="line"/>
    </contour>
  </outline>
</glyph>
<glyph name="florin" format="2">
  <advance width="515"/>
  <unicode hex="0192"/>
  <outline>
    <contour>
      <point x="75" y="-119" type="curve" smooth="yes"/>
      <point x="157" y="-119"/>
      <point x="216" y="-74"/>
      <point x="227" y="54" type="curve" smooth="yes"/>
      <point x="236" y="153"/>
      <point x="244" y="252"/>
      <point x="253" y="351" type="curve"/>
      <point x="254" y="365" type="line"/>
      <point x="258" y="417"/>
      <point x="263" y="470"/>
      <point x="267" y="522" type="curve" smooth="yes"/>
      <point x="275" y="615"/>
      <point x="319" y="664"/>
      <point x="416" y="664" type="curve" smooth="yes"/>
      <point x="444" y="664"/>
      <point x="468" y="660"/>
      <point x="488" y="653" type="curve"/>
      <point x="494" y="685" type="line"/>
      <point x="476" y="692"/>
      <point x="447" y="696"/>
      <point x="419" y="696" type="curve" smooth="yes"/>
      <point x="326" y="696"/>
      <point x="248" y="651"/>
      <point x="237" y="523" type="curve" smooth="yes"/>
      <point x="224" y="367"/>
      <point x="210" y="212"/>
      <point x="197" y="56" type="curve" smooth="yes"/>
      <point x="189" y="-39"/>
      <point x="155" y="-87"/>
      <point x="78" y="-87" type="curve" smooth="yes"/>
      <point x="50" y="-87"/>
      <point x="26" y="-83"/>
      <point x="6" y="-76" type="curve"/>
      <point x="0" y="-108" type="line"/>
      <point x="18" y="-115"/>
      <point x="47" y="-119"/>
    </contour>
    <contour>
      <point x="70" y="340" type="line"/>
      <point x="128" y="340"/>
      <point x="183" y="340"/>
      <point x="230" y="340" type="curve"/>
      <point x="320" y="340" type="line"/>
      <point x="367" y="340"/>
      <point x="422" y="340"/>
      <point x="480" y="340" type="curve"/>
      <point x="480" y="368" type="line"/>
      <point x="422" y="368"/>
      <point x="367" y="368"/>
      <point x="320" y="368" type="curve"/>
      <point x="230" y="368" type="line"/>
      <point x="183" y="368"/>
      <point x="128" y="368"/>
      <point x="70" y="368" type="curve"/>
    </contour>
  </outline>
</glyph>
<glyph name="jdotless" format="2">
  <advance width="237"/>
  <unicode hex="0237"/>
  <anchor x="120" y="-192" name="bottom"/>
  <anchor x="119" y="494" name="top"/>
  <outline>
    <contour>
      <point x="16" y="-194" type="curve"/>
      <point x="60" y="-192" type="line"/>
      <point x="103" y="-148"/>
      <point x="135" y="-84"/>
      <point x="135" y="17" type="curve" smooth="yes"/>
      <point x="135" y="78"/>
      <point x="135" y="143"/>
      <point x="135" y="271" type="curve"/>
      <point x="135" y="352"/>
      <point x="135" y="419"/>
      <point x="135" y="494" type="curve"/>
      <point x="105" y="494" type="line"/>
      <point x="105" y="419"/>
      <point x="105" y="352"/>
      <point x="105" y="271" type="curve"/>
      <point x="105" y="221" type="line"/>
      <point x="105" y="25" type="line"/>
      <point x="105" y="-83"/>
      <point x="78" y="-131"/>
    </contour>
  </outline>
</glyph>
<glyph name="ringhalfleft" format="2">
  <advance width="194"/>
  <unicode hex="02BF"/>
  <outline>
    <contour>
      <point x="158" y="572" type="curve"/>
      <point x="158" y="600" type="line"/>
      <point x="119" y="600"/>
      <point x="89" y="621"/>
      <point x="89" y="665" type="curve" smooth="yes"/>
      <point x="89" y="706"/>
      <point x="119" y="730"/>
      <point x="159" y="730" type="curve"/>
      <point x="159" y="758" type="line"/>
      <point x="101" y="758"/>
      <point x="60" y="720"/>
      <point x="60" y="665" type="curve" smooth="yes"/>
      <point x="60" y="607"/>
      <point x="101" y="572"/>
    </contour>
  </outline>
</glyph>
<glyph name="verticallinemod" format="2">
  <advance width="190"/>
  <unicode hex="02C8"/>
  <outline>
    <contour>
      <point x="80" y="534" type="curve"/>
      <point x="110" y="534" type="line"/>
      <point x="110" y="619"/>
      <point x="110" y="698"/>
      <point x="110" y="779" type="curve"/>
      <point x="80" y="779" type="line"/>
      <point x="80" y="698"/>
      <point x="80" y="619"/>
    </contour>
  </outline>
</glyph>
<glyph name="circumflexcomb" format="2">
  <unicode hex="0302"/>
  <anchor x="300" y="494" name="_top"/>
  <anchor x="299" y="745" name="top"/>
  <outline>
    <contour>
      <point x="431" y="585" type="curve"/>
      <point x="464" y="586" type="line"/>
      <point x="415" y="650"/>
      <point x="367" y="714"/>
      <point x="319" y="777" type="curve"/>
      <point x="278" y="777" type="line"/>
      <point x="330" y="712"/>
      <point x="379" y="650"/>
    </contour>
    <contour>
      <point x="133" y="587" type="curve"/>
      <point x="166" y="587" type="line"/>
      <point x="218" y="651"/>
      <point x="267" y="712"/>
      <point x="319" y="777" type="curve"/>
      <point x="278" y="777" type="line"/>
      <point x="229" y="714"/>
      <point x="182" y="650"/>
    </contour>
  </outline>
</glyph>
<glyph name="tildecomb" format="2">
  <unicode hex="0303"/>
  <anchor x="300" y="494" name="_top"/>
  <anchor x="300" y="675" name="top"/>
  <outline>
    <contour>
      <point x="381" y="588" type="curve" smooth="yes"/>
      <point x="433" y="588"/>
      <point x="464" y="627"/>
      <point x="464" y="699" type="curve"/>
      <point x="435" y="699" type="line"/>
      <point x="435" y="643"/>
      <point x="421" y="619"/>
      <point x="377" y="619" type="curve"/>
      <point x="321" y="619"/>
      <point x="296" y="712"/>
      <point x="219" y="712" type="curve" smooth="yes"/>
      <point x="167" y="712"/>
      <point x="136" y="673"/>
      <point x="136" y="601" type="curve"/>
      <point x="165" y="601" type="line"/>
      <point x="165" y="657"/>
      <point x="179" y="681"/>
      <point x="223" y="681" type="curve"/>
      <point x="279" y="681"/>
      <point x="304" y="588"/>
    </contour>
  </outline>
</glyph>
<glyph name="macroncomb" format="2">
  <unicode hex="0304"/>
  <anchor x="300" y="494" name="_top"/>
  <anchor x="300" y="668" name="top"/>
  <outline>
    <contour>
      <point x="154" y="650" type="line"/>
      <point x="198" y="650"/>
      <point x="247" y="650"/>
      <point x="300" y="650" type="curve"/>
      <point x="353" y="650"/>
      <point x="402" y="650"/>
      <point x="446" y="650" type="curve"/>
      <point x="446" y="678" type="line"/>
      <point x="402" y="678"/>
      <point x="353" y="678"/>
      <point x="300" y="678" type="curve"/>
      <point x="247" y="678"/>
      <point x="198" y="678"/>
      <point x="154" y="678" type="curve"/>
    </contour>
  </outline>
</glyph>
<glyph name="brevecomb" format="2">
  <unicode hex="0306"/>
  <anchor x="300" y="494" name="_top"/>
  <anchor x="299" y="683" name="top"/>
  <outline>
    <contour>
      <point x="298" y="585" type="curve" smooth="yes"/>
      <point x="390" y="585"/>
      <point x="441" y="648"/>
      <point x="441" y="758" type="curve"/>
      <point x="412" y="758" type="line"/>
      <point x="412" y="656"/>
      <point x="370" y="616"/>
      <point x="298" y="616" type="curve"/>
      <point x="227" y="616"/>
      <point x="185" y="656"/>
      <point x="185" y="759" type="curve"/>
      <point x="156" y="758" type="line"/>
      <point x="156" y="648"/>
      <point x="208" y="585"/>
    </contour>
  </outline>
</glyph>
<glyph name="dieresiscomb" format="2">
  <unicode hex="0308"/>
  <anchor x="299" y="494" name="_top"/>
  <anchor x="298" y="675" name="top"/>
  <outline>
    <contour>
      <point x="398" y="628" type="curve" smooth="yes"/>
      <point x="420" y="628"/>
      <point x="434" y="642"/>
      <point x="434" y="669" type="curve" smooth="yes"/>
      <point x="434" y="697"/>
      <point x="420" y="711"/>
      <point x="399" y="711" type="curve" smooth="yes"/>
      <point x="378" y="711"/>
      <point x="363" y="698"/>
      <point x="363" y="669" type="curve" smooth="yes"/>
      <point x="363" y="642"/>
      <point x="378" y="628"/>
    </contour>
    <contour>
      <point x="198" y="628" type="curve" smooth="yes"/>
      <point x="220" y="628"/>
      <point x="234" y="642"/>
      <point x="234" y="669" type="curve" smooth="yes"/>
      <point x="234" y="697"/>
      <point x="220" y="711"/>
      <point x="199" y="711" type="curve" smooth="yes"/>
      <point x="178" y="711"/>
      <point x="163" y="698"/>
      <point x="163" y="669" type="curve" smooth="yes"/>
      <point x="163" y="642"/>
      <point x="178" y="628"/>
    </contour>
  </outline>
</glyph>
<glyph name="hookabovecomb" format="2">
  <unicode hex="0309"/>
  <anchor x="300" y="494" name="_top"/>
  <anchor x="299" y="733" name="top"/>
  <outline>
    <contour>
      <point x="279" y="586" type="line"/>
      <point x="309" y="586" type="line"/>
      <point x="309" y="621" type="line"/>
      <point x="345" y="636"/>
      <point x="397" y="663"/>
      <point x="397" y="719" type="curve" smooth="yes"/>
      <point x="397" y="771"/>
      <point x="350" y="796"/>
      <point x="303" y="796" type="curve" smooth="yes"/>
      <point x="269" y="796"/>
      <point x="234" y="783"/>
      <point x="211" y="771" type="curve"/>
      <point x="214" y="739" type="line"/>
      <point x="248" y="757"/>
      <point x="274" y="765"/>
      <point x="302" y="765" type="curve"/>
      <point x="336" y="765"/>
      <point x="366" y="753"/>
      <point x="366" y="719" type="curve" smooth="yes"/>
      <point x="366" y="682"/>
      <point x="329" y="656"/>
      <point x="279" y="639" type="curve"/>
    </contour>
  </outline>
</glyph>
<glyph name="dotbelowcomb" format="2">
  <unicode hex="0323"/>
  <anchor x="300" y="0" name="_bottom"/>
  <anchor x="300" y="0" name="bottom"/>
  <outline>
    <contour>
      <point x="299" y="-202" type="curve" smooth="yes"/>
      <point x="322" y="-202"/>
      <point x="337" y="-187"/>
      <point x="337" y="-159" type="curve" smooth="yes"/>
      <point x="337" y="-130"/>
      <point x="322" y="-115"/>
      <point x="300" y="-115" type="curve" smooth="yes"/>
      <point x="278" y="-115"/>
      <point x="262" y="-129"/>
      <point x="262" y="-159" type="curve" smooth="yes"/>
      <point x="262" y="-187"/>
      <point x="278" y="-202"/>
    </contour>
  </outline>
</glyph>
<glyph name="cedillacomb" format="2">
  <unicode hex="0327"/>
  <anchor x="299" y="0" name="_bottom"/>
  <outline>
    <contour>
      <point x="277" y="-210" type="curve" smooth="yes"/>
      <point x="349" y="-210"/>
      <point x="378" y="-175"/>
      <point x="378" y="-133" type="curve" smooth="yes"/>
      <point x="378" y="-106"/>
      <point x="360" y="-73"/>
      <point x="285" y="-64" type="curve"/>
      <point x="313" y="0" type="line"/>
      <point x="313" y="12" type="line"/>
      <point x="288" y="12" type="line"/>
      <point x="247" y="-85" type="line"/>
      <point x="330" y="-90"/>
      <point x="347" y="-114"/>
      <point x="347" y="-135" type="curve" smooth="yes"/>
      <point x="347" y="-160"/>
      <point x="331" y="-181"/>
      <point x="277" y="-181" type="curve"/>
      <point x="253" y="-181"/>
      <point x="231" y="-177"/>
      <point x="221" y="-173" type="curve"/>
      <point x="221" y="-203" type="line"/>
      <point x="236" y="-207"/>
      <point x="260" y="-210"/>
    </contour>
  </outline>
</glyph>
<glyph name="macronbelowcomb" format="2">
  <unicode hex="0331"/>
  <anchor x="300" y="0" name="_bottom"/>
  <anchor x="300" y="0" name="bottom"/>
  <outline>
    <contour>
      <point x="154" y="-167" type="line"/>
      <point x="198" y="-167"/>
      <point x="247" y="-167"/>
      <point x="300" y="-167" type="curve"/>
      <point x="353" y="-167"/>
      <point x="402" y="-167"/>
      <point x="446" y="-167" type="curve"/>
      <point x="446" y="-139" type="line"/>
      <point x="402" y="-139"/>
      <point x="353" y="-139"/>
      <point x="300" y="-139" type="curve"/>
      <point x="247" y="-139"/>
      <point x="198" y="-139"/>
      <point x="154" y="-139" type="curve"/>
    </contour>
  </outline>
</glyph>
<glyph name="strokelongcomb" format="2">
  <unicode hex="0336"/>
  <anchor x="305" y="357" name="_center"/>
  <outline>
    <contour>
      <point x="-40" y="532" type="line"/>
      <point x="26" y="532"/>
      <point x="88" y="532"/>
      <point x="142" y="532" type="curve"/>
      <point x="468" y="532" type="line"/>
      <point x="522" y="532"/>
      <point x="584" y="532"/>
      <point x="650" y="532" type="curve"/>
      <point x="650" y="562" type="line"/>
      <point x="584" y="562"/>
      <point x="522" y="562"/>
      <point x="468" y="562" type="curve"/>
      <point x="142" y="562" type="line"/>
      <point x="88" y="562"/>
      <point x="26" y="562"/>
      <point x="-40" y="562" type="curve"/>
    </contour>
  </outline>
</glyph>
<glyph name="slashshortcomb" format="2">
  <unicode hex="0337"/>
  <anchor x="298" y="244" name="_center"/>
  <outline>
    <contour>
      <point x="91" y="-59" type="line"/>
      <point x="140" y="5"/>
      <point x="183" y="61"/>
      <point x="236" y="130" type="curve"/>
      <point x="379" y="317" type="line"/>
      <point x="432" y="386"/>
      <point x="478" y="446"/>
      <point x="527" y="510" type="curve"/>
      <point x="503" y="527" type="line"/>
      <point x="455" y="464"/>
      <point x="412" y="408"/>
      <point x="357" y="336" type="curve"/>
      <point x="213" y="148" type="line"/>
      <point x="161" y="80"/>
      <point x="119" y="25"/>
      <point x="68" y="-42" type="curve"/>
    </contour>
  </outline>
</glyph>
<glyph name="slashlongcomb" format="2">
  <unicode hex="0338"/>
  <anchor x="306" y="357" name="_center"/>
  <outline>
    <contour>
      <point x="19" y="-56" type="line"/>
      <point x="85" y="30"/>
      <point x="146" y="109"/>
      <point x="219" y="203" type="curve"/>
      <point x="416" y="463" type="line"/>
      <point x="489" y="558"/>
      <point x="548" y="635"/>
      <point x="616" y="724" type="curve"/>
      <point x="591" y="743" type="line"/>
      <point x="524" y="655"/>
      <point x="464" y="577"/>
      <point x="390" y="480" type="curve"/>
      <point x="195" y="223" type="line"/>
      <point x="123" y="129"/>
      <point x="65" y="55"/>
      <point x="-5" y="-36" type="curve"/>
    </contour>
  </outline>
</glyph>
<glyph name="pi" format="2">
  <advance width="582"/>
  <unicode hex="03C0"/>
  <outline>
    <contour>
      <point x="424" y="0" type="curve"/>
      <point x="454" y="0" type="line"/>
      <point x="454" y="67"/>
      <point x="454" y="129"/>
      <point x="454" y="192" type="curve"/>
      <point x="454" y="494" type="line"/>
      <point x="424" y="494" type="line"/>
      <point x="424" y="364"/>
      <point x="424" y="281"/>
      <point x="424" y="199" type="curve"/>
      <point x="424" y="123"/>
      <point x="424" y="54"/>
    </contour>
    <contour>
      <point x="135" y="0" type="curve"/>
      <point x="165" y="0" type="line"/>
      <point x="165" y="74"/>
      <point x="165" y="143"/>
      <point x="165" y="223" type="curve"/>
      <point x="165" y="287" type="line"/>
      <point x="165" y="362"/>
      <point x="165" y="424"/>
      <point x="165" y="494" type="curve"/>
      <point x="135" y="494" type="line"/>
      <point x="135" y="420"/>
      <point x="135" y="351"/>
      <point x="135" y="271" type="curve"/>
      <point x="135" y="223" type="line"/>
      <point x="135" y="142"/>
      <point x="135" y="75"/>
    </contour>
    <contour>
      <point x="29" y="466" type="line"/>
      <point x="151" y="466" type="line"/>
      <point x="338" y="466" type="line"/>
      <point x="406" y="466"/>
      <point x="479" y="466"/>
      <point x="549" y="466" type="curve"/>
      <point x="549" y="494" type="line"/>
      <point x="29" y="494" type="line"/>
    </contour>
  </outline>
</glyph>
<glyph name="Germandbls" format="2">
  <advance width="706"/>
  <unicode hex="1E9E"/>
  <outline>
    <contour>
      <point x="422" y="-8" type="curve" smooth="yes"/>
      <point x="588" y="-8"/>
      <point x="657" y="81"/>
      <point x="657" y="186" type="curve" smooth="yes"/>
      <point x="657" y="293"/>
      <point x="581" y="371"/>
      <point x="368" y="397" type="curve"/>
      <point x="374" y="386" type="line"/>
      <point x="479" y="491" type="line"/>
      <point x="519" y="531"/>
      <point x="558" y="570"/>
      <point x="598" y="610" type="curve"/>
      <point x="604" y="646" type="line"/>
      <point x="567" y="674"/>
      <point x="476" y="725"/>
      <point x="355" y="725" type="curve" smooth="yes"/>
      <point x="181" y="725"/>
      <point x="98" y="626"/>
      <point x="98" y="468" type="curve" smooth="yes"/>
      <point x="98" y="391"/>
      <point x="98" y="315"/>
      <point x="98" y="238" type="curve"/>
      <point x="98" y="151"/>
      <point x="98" y="81"/>
      <point x="98" y="0" type="curve"/>
      <point x="130" y="0" type="line"/>
      <point x="130" y="81"/>
      <point x="130" y="151"/>
      <point x="130" y="238" type="curve"/>
      <point x="130" y="460" type="line" smooth="yes"/>
      <point x="130" y="609"/>
      <point x="192" y="692"/>
      <point x="355" y="692" type="curve"/>
      <point x="452" y="692"/>
      <point x="526" y="663"/>
      <point x="582" y="625" type="curve"/>
      <point x="580" y="638" type="line"/>
      <point x="462" y="519" type="line"/>
      <point x="422" y="479"/>
      <point x="382" y="438"/>
      <point x="342" y="398" type="curve"/>
      <point x="342" y="369" type="line"/>
      <point x="531" y="350"/>
      <point x="624" y="292"/>
      <point x="624" y="186" type="curve" smooth="yes"/>
      <point x="624" y="67"/>
      <point x="537" y="25"/>
      <point x="422" y="25" type="curve"/>
      <point x="364" y="25"/>
      <point x="314" y="35"/>
      <point x="268" y="52" type="curve"/>
      <point x="268" y="16" type="line"/>
      <point x="313" y="3"/>
      <point x="368" y="-8"/>
    </contour>
  </outline>
</glyph>
<glyph name="endash" format="2">
  <advance width="570"/>
  <unicode hex="2013"/>
  <outline>
    <contour>
      <point x="70" y="281" type="line"/>
      <point x="128" y="281"/>
      <point x="183" y="281"/>
      <point x="230" y="281" type="curve"/>
      <point x="340" y="281" type="line"/>
      <point x="387" y="281"/>
      <point x="442" y="281"/>
      <point x="500" y="281" type="curve"/>
      <point x="500" y="309" type="line"/>
      <point x="442" y="309"/>
      <point x="387" y="309"/>
      <point x="340" y="309" type="curve"/>
      <point x="230" y="309" type="line"/>
      <point x="183" y="309"/>
      <point x="128" y="309"/>
      <point x="70" y="309" type="curve"/>
    </contour>
  </outline>
</glyph>
<glyph name="emdash" format="2">
  <advance width="780"/>
  <unicode hex="2014"/>
  <outline>
    <contour>
      <point x="70" y="281" type="line"/>
      <point x="156" y="281"/>
      <point x="238" y="281"/>
      <point x="308" y="281" type="curve"/>
      <point x="472" y="281" type="line"/>
      <point x="542" y="281"/>
      <point x="624" y="281"/>
      <point x="710" y="281" type="curve"/>
      <point x="710" y="309" type="line"/>
      <point x="624" y="309"/>
      <point x="542" y="309"/>
      <point x="472" y="309" type="curve"/>
      <point x="308" y="309" type="line"/>
      <point x="238" y="309"/>
      <point x="156" y="309"/>
      <point x="70" y="309" type="curve"/>
    </contour>
  </outline>
</glyph>
<glyph name="dagger" format="2">
  <advance width="560"/>
  <unicode hex="2020"/>
  <outline>
    <contour>
      <point x="265" y="0" type="curve"/>
      <point x="295" y="0" type="line"/>
      <point x="295" y="146"/>
      <point x="295" y="273"/>
      <point x="295" y="431" type="curve"/>
      <point x="295" y="447" type="line"/>
      <point x="295" y="532"/>
      <point x="295" y="612"/>
      <point x="295" y="684" type="curve"/>
      <point x="265" y="684" type="line"/>
      <point x="265" y="612"/>
      <point x="265" y="532"/>
      <point x="265" y="447" type="curve"/>
      <point x="265" y="431" type="line"/>
      <point x="265" y="273"/>
      <point x="265" y="146"/>
    </contour>
    <contour>
      <point x="60" y="430" type="line"/>
      <point x="118" y="430"/>
      <point x="173" y="430"/>
      <point x="220" y="430" type="curve"/>
      <point x="340" y="430" type="line"/>
      <point x="387" y="430"/>
      <point x="442" y="430"/>
      <point x="500" y="430" type="curve"/>
      <point x="500" y="460" type="line"/>
      <point x="442" y="460"/>
      <point x="387" y="460"/>
      <point x="340" y="460" type="curve"/>
      <point x="220" y="460" type="line"/>
      <point x="173" y="460"/>
      <point x="118" y="460"/>
      <point x="60" y="460" type="curve"/>
    </contour>
  </outline>
</glyph>
<glyph name="daggerdbl" format="2">
  <advance width="560"/>
  <unicode hex="2021"/>
  <outline>
    <contour>
      <point x="265" y="0" type="curve"/>
      <point x="295" y="0" type="line"/>
      <point x="295" y="78"/>
      <point x="295" y="146"/>
      <point x="295" y="231" type="curve"/>
      <point x="295" y="447" type="line"/>
      <point x="295" y="532"/>
      <point x="295" y="612"/>
      <point x="295" y="684" type="curve"/>
      <point x="265" y="684" type="line"/>
      <point x="265" y="612"/>
      <point x="265" y="532"/>
      <point x="265" y="447" type="curve"/>
      <point x="265" y="231" type="line"/>
      <point x="265" y="146"/>
      <point x="265" y="78"/>
    </contour>
    <contour>
      <point x="60" y="440" type="line"/>
      <point x="118" y="440"/>
      <point x="173" y="440"/>
      <point x="220" y="440" type="curve"/>
      <point x="340" y="440" type="line"/>
      <point x="387" y="440"/>
      <point x="442" y="440"/>
      <point x="500" y="440" type="curve"/>
      <point x="500" y="470" type="line"/>
      <point x="442" y="470"/>
      <point x="387" y="470"/>
      <point x="340" y="470" type="curve"/>
      <point x="220" y="470" type="line"/>
      <point x="173" y="470"/>
      <point x="118" y="470"/>
      <point x="60" y="470" type="curve"/>
    </contour>
    <contour>
      <point x="60" y="210" type="line"/>
      <point x="118" y="210"/>
      <point x="173" y="210"/>
      <point x="220" y="210" type="curve"/>
      <point x="340" y="210" type="line"/>
      <point x="387" y="210"/>
      <point x="442" y="210"/>
      <point x="500" y="210" type="curve"/>
      <point x="500" y="240" type="line"/>
      <point x="442" y="240"/>
      <point x="387" y="240"/>
      <point x="340" y="240" type="curve"/>
      <point x="220" y="240" type="line"/>
      <point x="173" y="240"/>
      <point x="118" y="240"/>
      <point x="60" y="240" type="curve"/>
    </contour>
  </outline>
</glyph>
<glyph name="minute" format="2">
  <advance width="227"/>
  <unicode hex="2032"/>
  <outline>
    <contour>
      <point x="80" y="407" type="curve"/>
      <point x="106" y="408" type="line"/>
      <point x="116" y="501"/>
      <point x="132" y="594"/>
      <point x="147" y="685" type="curve"/>
      <point x="97" y="684" type="line"/>
      <point x="94" y="593"/>
      <point x="90" y="501"/>
    </contour>
  </outline>
</glyph>
<glyph name="guilsinglleft" format="2">
  <advance width="307"/>
  <unicode hex="2039"/>
  <outline>
    <contour>
      <point x="232" y="-2" type="curve"/>
      <point x="267" y="0" type="line"/>
      <point x="203" y="82"/>
      <point x="138" y="164"/>
      <point x="74" y="246" type="curve"/>
      <point x="74" y="252" type="line"/>
      <point x="138" y="334"/>
      <point x="203" y="416"/>
      <point x="267" y="498" type="curve"/>
      <point x="232" y="500" type="line"/>
      <point x="166" y="416"/>
      <point x="101" y="333"/>
      <point x="35" y="249" type="curve"/>
      <point x="101" y="165"/>
      <point x="166" y="82"/>
    </contour>
  </outline>
</glyph>
<glyph name="fraction" format="2">
  <advance width="273"/>
  <unicode hex="2044"/>
  <outline>
    <contour>
      <point x="-80" y="0" type="curve"/>
      <point x="-46" y="0" type="line"/>
      <point x="-5" y="73"/>
      <point x="31" y="138"/>
      <point x="82" y="229" type="curve"/>
      <point x="221" y="477" type="line"/>
      <point x="274" y="572"/>
      <point x="310" y="636"/>
      <point x="353" y="713" type="curve"/>
      <point x="319" y="713" type="line"/>
      <point x="276" y="636"/>
      <point x="240" y="572"/>
      <point x="187" y="477" type="curve"/>
      <point x="48" y="229" type="line"/>
      <point x="-3" y="138"/>
      <point x="-39" y="73"/>
    </contour>
  </outline>
</glyph>
<glyph name="franc" format="2">
  <advance width="568"/>
  <unicode hex="20A3"/>
  <outline>
    <contour>
      <point x="127" y="0" type="curve"/>
      <point x="158" y="0" type="line"/>
      <point x="158" y="78"/>
      <point x="158" y="145"/>
      <point x="158" y="228" type="curve"/>
      <point x="158" y="453" type="line"/>
      <point x="158" y="537"/>
      <point x="158" y="604"/>
      <point x="158" y="682" type="curve"/>
      <point x="158" y="684" type="line"/>
      <point x="127" y="684" type="line"/>
      <point x="127" y="607"/>
      <point x="127" y="540"/>
      <point x="127" y="456" type="curve"/>
      <point x="127" y="228" type="line"/>
      <point x="127" y="145"/>
      <point x="127" y="78"/>
    </contour>
    <contour>
      <point x="152" y="654" type="line"/>
      <point x="272" y="654" type="line"/>
      <point x="376" y="654"/>
      <point x="448" y="654"/>
      <point x="516" y="654" type="curve"/>
      <point x="516" y="684" type="line"/>
      <point x="152" y="684" type="line"/>
    </contour>
    <contour>
      <point x="152" y="333" type="line"/>
      <point x="279" y="333" type="line"/>
      <point x="369" y="333"/>
      <point x="428" y="333"/>
      <point x="494" y="333" type="curve"/>
      <point x="494" y="363" type="line"/>
      <point x="432" y="363"/>
      <point x="371" y="363"/>
      <point x="280" y="363" type="curve"/>
      <point x="152" y="363" type="line"/>
    </contour>
    <contour>
      <point x="38" y="158" type="line"/>
      <point x="96" y="158"/>
      <point x="151" y="158"/>
      <point x="198" y="158" type="curve"/>
      <point x="228" y="158" type="line"/>
      <point x="275" y="158"/>
      <point x="330" y="158"/>
      <point x="388" y="158" type="curve"/>
      <point x="388" y="186" type="line"/>
      <point x="330" y="186"/>
      <point x="275" y="186"/>
      <point x="228" y="186" type="curve"/>
      <point x="198" y="186" type="line"/>
      <point x="151" y="186"/>
      <point x="96" y="186"/>
      <point x="38" y="186" type="curve"/>
    </contour>
  </outline>
</glyph>
<glyph name="lira" format="2">
  <advance width="579"/>
  <unicode hex="20A4"/>
  <outline>
    <contour>
      <point x="75" y="0" type="line"/>
      <point x="544" y="0" type="line"/>
      <point x="544" y="30" type="line"/>
      <point x="455" y="30"/>
      <point x="377" y="30"/>
      <point x="244" y="30" type="curve"/>
      <point x="96" y="30" type="line"/>
      <point x="101" y="11" type="line"/>
      <point x="171" y="77"/>
      <point x="186" y="142"/>
      <point x="186" y="219" type="curve" smooth="yes"/>
      <point x="186" y="458" type="line" smooth="yes"/>
      <point x="186" y="600"/>
      <point x="244" y="664"/>
      <point x="363" y="664" type="curve"/>
      <point x="404" y="664"/>
      <point x="453" y="655"/>
      <point x="508" y="623" type="curve"/>
      <point x="513" y="657" type="line"/>
      <point x="475" y="679"/>
      <point x="419" y="696"/>
      <point x="362" y="696" type="curve" smooth="yes"/>
      <point x="237" y="696"/>
      <point x="155" y="622"/>
      <point x="155" y="462" type="curve" smooth="yes"/>
      <point x="155" y="381"/>
      <point x="155" y="301"/>
      <point x="155" y="220" type="curve"/>
      <point x="155" y="153"/>
      <point x="141" y="85"/>
      <point x="75" y="25" type="curve"/>
    </contour>
    <contour>
      <point x="66" y="389" type="line"/>
      <point x="124" y="389"/>
      <point x="179" y="389"/>
      <point x="226" y="389" type="curve"/>
      <point x="256" y="389" type="line"/>
      <point x="303" y="389"/>
      <point x="358" y="389"/>
      <point x="416" y="389" type="curve"/>
      <point x="416" y="417" type="line"/>
      <point x="358" y="417"/>
      <point x="303" y="417"/>
      <point x="256" y="417" type="curve"/>
      <point x="226" y="417" type="line"/>
      <point x="179" y="417"/>
      <point x="124" y="417"/>
      <point x="66" y="417" type="curve"/>
    </contour>
    <contour>
      <point x="66" y="259" type="line"/>
      <point x="124" y="259"/>
      <point x="179" y="259"/>
      <point x="226" y="259" type="curve"/>
      <point x="256" y="259" type="line"/>
      <point x="303" y="259"/>
      <point x="358" y="259"/>
      <point x="416" y="259" type="curve"/>
      <point x="416" y="287" type="line"/>
      <point x="358" y="287"/>
      <point x="303" y="287"/>
      <point x="256" y="287" type="curve"/>
      <point x="226" y="287" type="line"/>
      <point x="179" y="287"/>
      <point x="124" y="287"/>
      <point x="66" y="287" type="curve"/>
    </contour>
  </outline>
</glyph>
<glyph name="naira" format="2">
  <advance width="785"/>
  <unicode hex="20A6"/>
  <outline>
    <contour>
      <point x="137" y="0" type="curve"/>
      <point x="168" y="0" type="line"/>
      <point x="168" y="78"/>
      <point x="168" y="145"/>
      <point x="168" y="228" type="curve"/>
      <point x="168" y="628" type="line"/>
      <point x="172" y="628" type="line"/>
      <point x="347" y="381" type="line"/>
      <point x="452" y="233"/>
      <point x="539" y="110"/>
      <point x="617" y="0" type="curve"/>
      <point x="648" y="0" type="line"/>
      <point x="648" y="78"/>
      <point x="648" y="145"/>
      <point x="648" y="228" type="curve"/>
      <point x="648" y="456" type="line"/>
      <point x="648" y="540"/>
      <point x="648" y="607"/>
      <point x="648" y="684" type="curve"/>
      <point x="617" y="684" type="line"/>
      <point x="617" y="607"/>
      <point x="617" y="540"/>
      <point x="617" y="456" type="curve"/>
      <point x="617" y="60" type="line"/>
      <point x="613" y="60" type="line"/>
      <point x="437" y="308" type="line"/>
      <point x="351" y="429"/>
      <point x="264" y="552"/>
      <point x="170" y="684" type="curve"/>
      <point x="137" y="684" type="line"/>
      <point x="137" y="607"/>
      <point x="137" y="540"/>
      <point x="137" y="456" type="curve"/>
      <point x="137" y="228" type="line"/>
      <point x="137" y="145"/>
      <point x="137" y="78"/>
    </contour>
    <contour>
      <point x="38" y="340" type="line"/>
      <point x="96" y="340"/>
      <point x="151" y="340"/>
      <point x="198" y="340" type="curve"/>
      <point x="587" y="340" type="line"/>
      <point x="634" y="340"/>
      <point x="689" y="340"/>
      <point x="747" y="340" type="curve"/>
      <point x="747" y="368" type="line"/>
      <point x="689" y="368"/>
      <point x="634" y="368"/>
      <point x="587" y="368" type="curve"/>
      <point x="198" y="368" type="line"/>
      <point x="151" y="368"/>
      <point x="96" y="368"/>
      <point x="38" y="368" type="curve"/>
    </contour>
  </outline>
</glyph>
<glyph name="won" format="2">
  <advance width="1053"/>
  <unicode hex="20A9"/>
  <outline>
    <contour>
      <point x="289" y="0" type="curve"/>
      <point x="337" y="0" type="line"/>
      <point x="367" y="104"/>
      <point x="404" y="233"/>
      <point x="435" y="340" type="curve"/>
      <point x="523" y="645" type="line"/>
      <point x="529" y="645" type="line"/>
      <point x="618" y="338" type="line"/>
      <point x="649" y="231"/>
      <point x="685" y="107"/>
      <point x="716" y="0" type="curve"/>
      <point x="764" y="0" type="line"/>
      <point x="784" y="66"/>
      <point x="808" y="146"/>
      <point x="829" y="215" type="curve"/>
      <point x="895" y="433" type="line"/>
      <point x="916" y="502"/>
      <point x="946" y="601"/>
      <point x="971" y="684" type="curve"/>
      <point x="939" y="684" type="line"/>
      <point x="906" y="575"/>
      <point x="868" y="449"/>
      <point x="837" y="347" type="curve"/>
      <point x="743" y="36" type="line"/>
      <point x="738" y="36" type="line"/>
      <point x="649" y="341" type="line"/>
      <point x="617" y="451"/>
      <point x="581" y="574"/>
      <point x="549" y="684" type="curve"/>
      <point x="502" y="684" type="line"/>
      <point x="471" y="576"/>
      <point x="435" y="451"/>
      <point x="404" y="343" type="curve"/>
      <point x="316" y="36" type="line"/>
      <point x="310" y="36" type="line"/>
      <point x="218" y="340" type="line"/>
      <point x="185" y="449"/>
      <point x="147" y="575"/>
      <point x="114" y="684" type="curve"/>
      <point x="82" y="684" type="line"/>
      <point x="107" y="601"/>
      <point x="138" y="499"/>
      <point x="160" y="426" type="curve"/>
      <point x="224" y="215" type="line"/>
      <point x="244" y="149"/>
      <point x="268" y="69"/>
    </contour>
    <contour>
      <point x="30" y="340" type="line"/>
      <point x="88" y="340"/>
      <point x="143" y="340"/>
      <point x="190" y="340" type="curve"/>
      <point x="863" y="340" type="line"/>
      <point x="910" y="340"/>
      <point x="965" y="340"/>
      <point x="1023" y="340" type="curve"/>
      <point x="1023" y="368" type="line"/>
      <point x="965" y="368"/>
      <point x="910" y="368"/>
      <point x="863" y="368" type="curve"/>
      <point x="190" y="368" type="line"/>
      <point x="143" y="368"/>
      <point x="88" y="368"/>
      <point x="30" y="368" type="curve"/>
    </contour>
  </outline>
</glyph>
<glyph name="dong" format="2">
  <advance width="560"/>
  <unicode hex="20AB"/>
  <outline>
    <contour>
      <point x="246" y="139" type="curve" smooth="yes"/>
      <point x="306" y="139"/>
      <point x="351" y="161"/>
      <point x="386" y="202" type="curve"/>
      <point x="392" y="202" type="line"/>
      <point x="392" y="146" type="line"/>
      <point x="420" y="146" type="line"/>
      <point x="420" y="206"/>
      <point x="420" y="258"/>
      <point x="420" y="323" type="curve"/>
      <point x="420" y="542" type="line"/>
      <point x="420" y="610"/>
      <point x="420" y="673"/>
      <point x="420" y="738" type="curve"/>
      <point x="390" y="732" type="line"/>
      <point x="390" y="674"/>
      <point x="390" y="610"/>
      <point x="390" y="542" type="curve"/>
      <point x="390" y="495" type="line"/>
      <point x="385" y="495" type="line"/>
      <point x="360" y="522"/>
      <point x="310" y="550"/>
      <point x="248" y="550" type="curve" smooth="yes"/>
      <point x="132" y="550"/>
      <point x="61" y="463"/>
      <point x="61" y="345" type="curve" smooth="yes"/>
      <point x="61" y="234"/>
      <point x="124" y="139"/>
    </contour>
    <contour>
      <point x="50" y="0" type="line"/>
      <point x="108" y="0"/>
      <point x="163" y="0"/>
      <point x="210" y="0" type="curve"/>
      <point x="310" y="0" type="line"/>
      <point x="357" y="0"/>
      <point x="412" y="0"/>
      <point x="470" y="0" type="curve"/>
      <point x="470" y="28" type="line"/>
      <point x="412" y="28"/>
      <point x="357" y="28"/>
      <point x="310" y="28" type="curve"/>
      <point x="210" y="28" type="line"/>
      <point x="163" y="28"/>
      <point x="108" y="28"/>
      <point x="50" y="28" type="curve"/>
    </contour>
    <contour>
      <point x="248" y="169" type="curve"/>
      <point x="137" y="169"/>
      <point x="92" y="254"/>
      <point x="92" y="345" type="curve" smooth="yes"/>
      <point x="92" y="441"/>
      <point x="141" y="519"/>
      <point x="249" y="519" type="curve"/>
      <point x="302" y="519"/>
      <point x="356" y="499"/>
      <point x="390" y="452" type="curve"/>
      <point x="390" y="247" type="line"/>
      <point x="358" y="198"/>
      <point x="313" y="169"/>
    </contour>
    <contour>
      <point x="190" y="640" type="line"/>
      <point x="248" y="640"/>
      <point x="303" y="640"/>
      <point x="350" y="640" type="curve"/>
      <point x="370" y="640" type="line"/>
      <point x="417" y="640"/>
      <point x="472" y="640"/>
      <point x="530" y="640" type="curve"/>
      <point x="530" y="668" type="line"/>
      <point x="472" y="668"/>
      <point x="417" y="668"/>
      <point x="370" y="668" type="curve"/>
      <point x="350" y="668" type="line"/>
      <point x="303" y="668"/>
      <point x="248" y="668"/>
      <point x="190" y="668" type="curve"/>
    </contour>
  </outline>
</glyph>
<glyph name="kip" format="2">
  <advance width="651"/>
  <unicode hex="20AD"/>
  <outline>
    <contour>
      <point x="567" y="0" type="curve"/>
      <point x="613" y="0" type="line"/>
      <point x="552" y="56"/>
      <point x="450" y="149"/>
      <point x="378" y="215" type="curve"/>
      <point x="221" y="359" type="line"/>
      <point x="221" y="346" type="line"/>
      <point x="365" y="476" type="line"/>
      <point x="436" y="541"/>
      <point x="514" y="612"/>
      <point x="594" y="684" type="curve"/>
      <point x="548" y="684" type="line"/>
      <point x="463" y="607"/>
      <point x="406" y="555"/>
      <point x="341" y="496" type="curve"/>
      <point x="200" y="368" type="line"/>
      <point x="160" y="368" type="line"/>
      <point x="160" y="340" type="line"/>
      <point x="197" y="340" type="line"/>
      <point x="361" y="189" type="line"/>
      <point x="424" y="131"/>
      <point x="492" y="69"/>
    </contour>
    <contour>
      <point x="137" y="0" type="curve"/>
      <point x="168" y="0" type="line"/>
      <point x="168" y="78"/>
      <point x="168" y="145"/>
      <point x="168" y="228" type="curve"/>
      <point x="168" y="456" type="line"/>
      <point x="168" y="540"/>
      <point x="168" y="607"/>
      <point x="168" y="684" type="curve"/>
      <point x="137" y="684" type="line"/>
      <point x="137" y="607"/>
      <point x="137" y="540"/>
      <point x="137" y="456" type="curve"/>
      <point x="137" y="228" type="line"/>
      <point x="137" y="145"/>
      <point x="137" y="78"/>
    </contour>
    <contour>
      <point x="38" y="340" type="line"/>
      <point x="96" y="340"/>
      <point x="151" y="340"/>
      <point x="198" y="340" type="curve"/>
      <point x="398" y="340" type="line"/>
      <point x="445" y="340"/>
      <point x="500" y="340"/>
      <point x="558" y="340" type="curve"/>
      <point x="558" y="368" type="line"/>
      <point x="500" y="368"/>
      <point x="445" y="368"/>
      <point x="398" y="368" type="curve"/>
      <point x="198" y="368" type="line"/>
      <point x="151" y="368"/>
      <point x="96" y="368"/>
      <point x="38" y="368" type="curve"/>
    </contour>
  </outline>
</glyph>
<glyph name="liraTurkish" format="2">
  <advance width="646"/>
  <unicode hex="20BA"/>
  <outline>
    <contour>
      <point x="155" y="0" type="curve"/>
      <point x="180" y="0" type="line"/>
      <point x="186" y="4" type="line"/>
      <point x="186" y="82"/>
      <point x="186" y="149"/>
      <point x="186" y="232" type="curve"/>
      <point x="186" y="456" type="line"/>
      <point x="186" y="540"/>
      <point x="186" y="607"/>
      <point x="186" y="684" type="curve"/>
      <point x="155" y="684" type="line"/>
      <point x="155" y="607"/>
      <point x="155" y="540"/>
      <point x="155" y="456" type="curve"/>
      <point x="155" y="228" type="line"/>
      <point x="155" y="145"/>
      <point x="155" y="78"/>
    </contour>
    <contour>
      <point x="180" y="0" type="line"/>
      <point x="288" y="0" type="line" smooth="yes"/>
      <point x="444" y="0"/>
      <point x="538" y="74"/>
      <point x="576" y="202" type="curve"/>
      <point x="590" y="246"/>
      <point x="596" y="297"/>
      <point x="596" y="353" type="curve"/>
      <point x="565" y="353" type="line"/>
      <point x="565" y="301"/>
      <point x="560" y="256"/>
      <point x="549" y="216" type="curve"/>
      <point x="515" y="93"/>
      <point x="429" y="30"/>
      <point x="289" y="30" type="curve" smooth="yes"/>
      <point x="180" y="30" type="line"/>
    </contour>
    <contour>
      <point x="78" y="213" type="line"/>
      <point x="132" y="237"/>
      <point x="181" y="259"/>
      <point x="226" y="279" type="curve"/>
      <point x="286" y="306" type="line"/>
      <point x="331" y="326"/>
      <point x="380" y="348"/>
      <point x="434" y="372" type="curve"/>
      <point x="423" y="398" type="line"/>
      <point x="369" y="374"/>
      <point x="320" y="352"/>
      <point x="277" y="333" type="curve"/>
      <point x="212" y="304" type="line"/>
      <point x="169" y="285"/>
      <point x="120" y="263"/>
      <point x="66" y="239" type="curve"/>
    </contour>
    <contour>
      <point x="78" y="353" type="line"/>
      <point x="132" y="377"/>
      <point x="181" y="399"/>
      <point x="226" y="419" type="curve"/>
      <point x="286" y="446" type="line"/>
      <point x="331" y="466"/>
      <point x="380" y="488"/>
      <point x="434" y="512" type="curve"/>
      <point x="423" y="538" type="line"/>
      <point x="369" y="514"/>
      <point x="320" y="492"/>
      <point x="277" y="473" type="curve"/>
      <point x="212" y="444" type="line"/>
      <point x="169" y="425"/>
      <point x="120" y="403"/>
      <point x="66" y="379" type="curve"/>
    </contour>
  </outline>
</glyph>
<glyph name="manat" format="2">
  <advance width="773"/>
  <unicode hex="20BC"/>
  <outline>
    <contour>
      <point x="100" y="0" type="curve"/>
      <point x="131" y="0" type="line"/>
      <point x="131" y="78"/>
      <point x="131" y="145"/>
      <point x="131" y="228" type="curve"/>
      <point x="131" y="402"/>
      <point x="200" y="538"/>
      <point x="387" y="538" type="curve"/>
      <point x="570" y="538"/>
      <point x="642" y="413"/>
      <point x="642" y="228" type="curve"/>
      <point x="642" y="145"/>
      <point x="642" y="78"/>
      <point x="642" y="0" type="curve"/>
      <point x="673" y="0" type="line"/>
      <point x="673" y="78"/>
      <point x="673" y="145"/>
      <point x="673" y="228" type="curve"/>
      <point x="673" y="430"/>
      <point x="583" y="570"/>
      <point x="387" y="570" type="curve" smooth="yes"/>
      <point x="194" y="570"/>
      <point x="100" y="432"/>
      <point x="100" y="228" type="curve"/>
      <point x="100" y="145"/>
      <point x="100" y="78"/>
    </contour>
    <contour>
      <point x="372" y="0" type="curve"/>
      <point x="402" y="0" type="line"/>
      <point x="402" y="118"/>
      <point x="402" y="221"/>
      <point x="402" y="329" type="curve"/>
      <point x="402" y="396" type="line"/>
      <point x="402" y="504"/>
      <point x="402" y="607"/>
      <point x="402" y="725" type="curve"/>
      <point x="372" y="725" type="line"/>
      <point x="372" y="607"/>
      <point x="372" y="504"/>
      <point x="372" y="396" type="curve"/>
      <point x="372" y="329" type="line"/>
      <point x="372" y="221"/>
      <point x="372" y="118"/>
    </contour>
  </outline>
</glyph>
<glyph name="ruble" format="2">
  <advance width="605"/>
  <unicode hex="20BD"/>
  <outline>
    <contour>
      <point x="153" y="318" type="line"/>
      <point x="191" y="318"/>
      <point x="256" y="318"/>
      <point x="304" y="318" type="curve"/>
      <point x="499" y="318"/>
      <point x="555" y="407"/>
      <point x="555" y="514" type="curve" smooth="yes"/>
      <point x="555" y="621"/>
      <point x="488" y="684"/>
      <point x="342" y="684" type="curve"/>
      <point x="250" y="684"/>
      <point x="176" y="684"/>
      <point x="127" y="684" type="curve"/>
      <point x="147" y="654" type="line"/>
      <point x="340" y="654" type="line" smooth="yes"/>
      <point x="409" y="654"/>
      <point x="523" y="650"/>
      <point x="523" y="514" type="curve" smooth="yes"/>
      <point x="523" y="386"/>
      <point x="440" y="348"/>
      <point x="303" y="348" type="curve" smooth="yes"/>
      <point x="153" y="348" type="line"/>
    </contour>
    <contour>
      <point x="127" y="0" type="curve"/>
      <point x="158" y="0" type="line"/>
      <point x="158" y="78"/>
      <point x="158" y="145"/>
      <point x="158" y="228" type="curve"/>
      <point x="158" y="453" type="line"/>
      <point x="158" y="537"/>
      <point x="158" y="604"/>
      <point x="158" y="682" type="curve"/>
      <point x="127" y="684" type="line"/>
      <point x="127" y="607"/>
      <point x="127" y="540"/>
      <point x="127" y="456" type="curve"/>
      <point x="127" y="228" type="line"/>
      <point x="127" y="145"/>
      <point x="127" y="78"/>
    </contour>
    <contour>
      <point x="38" y="158" type="line"/>
      <point x="96" y="158"/>
      <point x="151" y="158"/>
      <point x="198" y="158" type="curve"/>
      <point x="228" y="158" type="line"/>
      <point x="275" y="158"/>
      <point x="330" y="158"/>
      <point x="388" y="158" type="curve"/>
      <point x="388" y="186" type="line"/>
      <point x="330" y="186"/>
      <point x="275" y="186"/>
      <point x="228" y="186" type="curve"/>
      <point x="198" y="186" type="line"/>
      <point x="151" y="186"/>
      <point x="96" y="186"/>
      <point x="38" y="186" type="curve"/>
    </contour>
  </outline>
</glyph>
<glyph name="trademark" format="2">
  <advance width="852"/>
  <unicode hex="2122"/>
  <outline>
    <contour>
      <point x="381" y="310" type="curve"/>
      <point x="412" y="310" type="line"/>
      <point x="420" y="375"/>
      <point x="429" y="451"/>
      <point x="437" y="517" type="curve"/>
      <point x="453" y="649" type="line"/>
      <point x="456" y="649" type="line"/>
      <point x="515" y="506" type="line"/>
      <point x="541" y="443"/>
      <point x="569" y="376"/>
      <point x="596" y="310" type="curve"/>
      <point x="618" y="310" type="line"/>
      <point x="645" y="375"/>
      <point x="672" y="441"/>
      <point x="699" y="506" type="curve"/>
      <point x="758" y="649" type="line"/>
      <point x="761" y="649" type="line"/>
      <point x="777" y="517" type="line"/>
      <point x="785" y="451"/>
      <point x="794" y="376"/>
      <point x="802" y="310" type="curve"/>
      <point x="832" y="310" type="line"/>
      <point x="827" y="352"/>
      <point x="821" y="401"/>
      <point x="816" y="443" type="curve"/>
      <point x="800" y="575" type="line"/>
      <point x="795" y="617"/>
      <point x="789" y="667"/>
      <point x="784" y="709" type="curve"/>
      <point x="752" y="709" type="line"/>
      <point x="726" y="646"/>
      <point x="703" y="591"/>
      <point x="680" y="535" type="curve"/>
      <point x="609" y="363" type="line"/>
      <point x="606" y="363" type="line"/>
      <point x="534" y="536" type="line"/>
      <point x="511" y="591"/>
      <point x="486" y="651"/>
      <point x="462" y="709" type="curve"/>
      <point x="431" y="709" type="line"/>
      <point x="425" y="661"/>
      <point x="420" y="622"/>
      <point x="414" y="574" type="curve"/>
      <point x="398" y="445" type="line"/>
      <point x="392" y="397"/>
      <point x="387" y="358"/>
    </contour>
    <contour>
      <point x="165" y="310" type="curve"/>
      <point x="196" y="310" type="line"/>
      <point x="196" y="355"/>
      <point x="196" y="394"/>
      <point x="196" y="443" type="curve"/>
      <point x="196" y="572" type="line"/>
      <point x="196" y="621"/>
      <point x="196" y="660"/>
      <point x="196" y="705" type="curve"/>
      <point x="196" y="709" type="line"/>
      <point x="165" y="709" type="line"/>
      <point x="165" y="705" type="line"/>
      <point x="165" y="660"/>
      <point x="165" y="621"/>
      <point x="165" y="572" type="curve"/>
      <point x="165" y="443" type="line"/>
      <point x="165" y="394"/>
      <point x="165" y="355"/>
    </contour>
    <contour>
      <point x="20" y="680" type="line"/>
      <point x="52" y="680"/>
      <point x="86" y="680"/>
      <point x="133" y="680" type="curve"/>
      <point x="170" y="680" type="line"/>
      <point x="170" y="709" type="line"/>
      <point x="20" y="709" type="line"/>
    </contour>
    <contour>
      <point x="191" y="680" type="line"/>
      <point x="227" y="680" type="line"/>
      <point x="274" y="680"/>
      <point x="308" y="680"/>
      <point x="340" y="680" type="curve"/>
      <point x="340" y="709" type="line"/>
      <point x="191" y="709" type="line"/>
    </contour>
  </outline>
</glyph>
<glyph name="partialdiff" format="2">
  <advance width="588"/>
  <unicode hex="2202"/>
  <outline>
    <contour>
      <point x="296" y="-9" type="curve" smooth="yes"/>
      <point x="444" y="-9"/>
      <point x="526" y="109"/>
      <point x="526" y="322" type="curve" smooth="yes"/>
      <point x="526" y="554"/>
      <point x="443" y="696"/>
      <point x="282" y="696" type="curve" smooth="yes"/>
      <point x="215" y="696"/>
      <point x="148" y="674"/>
      <point x="101" y="642" type="curve"/>
      <point x="108" y="608" type="line"/>
      <point x="161" y="646"/>
      <point x="223" y="664"/>
      <point x="282" y="664" type="curve"/>
      <point x="424" y="664"/>
      <point x="495" y="541"/>
      <point x="495" y="321" type="curve" smooth="yes"/>
      <point x="495" y="128"/>
      <point x="430" y="23"/>
      <point x="296" y="23" type="curve"/>
      <point x="160" y="23"/>
      <point x="93" y="132"/>
      <point x="93" y="239" type="curve" smooth="yes"/>
      <point x="93" y="345"/>
      <point x="158" y="445"/>
      <point x="292" y="445" type="curve"/>
      <point x="349" y="445"/>
      <point x="430" y="432"/>
      <point x="506" y="337" type="curve"/>
      <point x="506" y="359"/>
      <point x="506" y="382"/>
      <point x="506" y="404" type="curve"/>
      <point x="484" y="403" type="line"/>
      <point x="423" y="458"/>
      <point x="358" y="477"/>
      <point x="292" y="477" type="curve" smooth="yes"/>
      <point x="153" y="477"/>
      <point x="62" y="370"/>
      <point x="62" y="239" type="curve" smooth="yes"/>
      <point x="62" y="111"/>
      <point x="150" y="-9"/>
    </contour>
  </outline>
</glyph>
<glyph name="product" format="2">
  <advance width="778"/>
  <unicode hex="220F"/>
  <outline>
    <contour>
      <point x="586" y="-192" type="curve"/>
      <point x="618" y="-192" type="line"/>
      <point x="618" y="-91"/>
      <point x="618" y="-3"/>
      <point x="618" y="106" type="curve"/>
      <point x="618" y="412" type="line"/>
      <point x="618" y="521"/>
      <point x="618" y="608"/>
      <point x="618" y="709" type="curve"/>
      <point x="618" y="713" type="line"/>
      <point x="586" y="713" type="line"/>
      <point x="586" y="709" type="line"/>
      <point x="586" y="608"/>
      <point x="586" y="521"/>
      <point x="586" y="412" type="curve"/>
      <point x="586" y="106" type="line"/>
      <point x="586" y="-3"/>
      <point x="586" y="-91"/>
    </contour>
    <contour>
      <point x="161" y="-192" type="curve"/>
      <point x="193" y="-192" type="line"/>
      <point x="193" y="-91"/>
      <point x="193" y="-3"/>
      <point x="193" y="106" type="curve"/>
      <point x="193" y="412" type="line"/>
      <point x="193" y="521"/>
      <point x="193" y="608"/>
      <point x="193" y="709" type="curve"/>
      <point x="193" y="713" type="line"/>
      <point x="161" y="713" type="line"/>
      <point x="161" y="709" type="line"/>
      <point x="161" y="608"/>
      <point x="161" y="521"/>
      <point x="161" y="412" type="curve"/>
      <point x="161" y="106" type="line"/>
      <point x="161" y="-3"/>
      <point x="161" y="-91"/>
    </contour>
    <contour>
      <point x="35" y="682" type="line"/>
      <point x="94" y="682"/>
      <point x="156" y="682"/>
      <point x="241" y="682" type="curve"/>
      <point x="537" y="682" type="line"/>
      <point x="622" y="682"/>
      <point x="684" y="682"/>
      <point x="743" y="682" type="curve"/>
      <point x="743" y="713" type="line"/>
      <point x="35" y="713" type="line"/>
    </contour>
  </outline>
</glyph>
<glyph name="minus" format="2">
  <advance width="560"/>
  <unicode hex="2212"/>
  <outline>
    <contour>
      <point x="70" y="280" type="line"/>
      <point x="128" y="280"/>
      <point x="183" y="280"/>
      <point x="230" y="280" type="curve"/>
      <point x="330" y="280" type="line"/>
      <point x="377" y="280"/>
      <point x="432" y="280"/>
      <point x="490" y="280" type="curve"/>
      <point x="490" y="310" type="line"/>
      <point x="432" y="310"/>
      <point x="377" y="310"/>
      <point x="330" y="310" type="curve"/>
      <point x="230" y="310" type="line"/>
      <point x="183" y="310"/>
      <point x="128" y="310"/>
      <point x="70" y="310" type="curve"/>
    </contour>
  </outline>
</glyph>
<glyph name="divisionslash" format="2">
  <advance width="362"/>
  <unicode hex="2215"/>
  <outline>
    <contour>
      <point x="40" y="0" type="curve"/>
      <point x="72" y="0" type="line"/>
      <point x="98" y="74"/>
      <point x="120" y="137"/>
      <point x="152" y="228" type="curve"/>
      <point x="238" y="474" type="line"/>
      <point x="272" y="571"/>
      <point x="295" y="636"/>
      <point x="322" y="713" type="curve"/>
      <point x="290" y="713" type="line"/>
      <point x="263" y="636"/>
      <point x="240" y="571"/>
      <point x="206" y="474" type="curve"/>
      <point x="120" y="228" type="line"/>
      <point x="88" y="137"/>
      <point x="66" y="74"/>
    </contour>
  </outline>
</glyph>
<glyph name="radical" format="2">
  <advance width="561"/>
  <unicode hex="221A"/>
  <outline>
    <contour>
      <point x="331" y="0" type="curve"/>
      <point x="366" y="0" type="line"/>
      <point x="384" y="73"/>
      <point x="399" y="135"/>
      <point x="422" y="228" type="curve"/>
      <point x="508" y="578" type="line"/>
      <point x="532" y="676"/>
      <point x="548" y="741"/>
      <point x="567" y="818" type="curve"/>
      <point x="536" y="818" type="line"/>
      <point x="517" y="741"/>
      <point x="501" y="676"/>
      <point x="477" y="578" type="curve"/>
      <point x="347" y="50" type="line"/>
      <point x="341" y="50" type="line"/>
      <point x="271" y="205" type="line"/>
      <point x="244" y="264"/>
      <point x="218" y="321"/>
      <point x="191" y="380" type="curve"/>
      <point x="158" y="380" type="line"/>
      <point x="227" y="228" type="line"/>
      <point x="269" y="136"/>
      <point x="298" y="72"/>
    </contour>
    <contour>
      <point x="27" y="350" type="line"/>
      <point x="85" y="350"/>
      <point x="140" y="350"/>
      <point x="187" y="350" type="curve"/>
      <point x="187" y="380" type="line"/>
      <point x="140" y="380"/>
      <point x="85" y="380"/>
      <point x="27" y="380" type="curve"/>
    </contour>
  </outline>
</glyph>
<glyph name="infinity" format="2">
  <advance width="898"/>
  <unicode hex="221E"/>
  <outline>
    <contour>
      <point x="658" y="86" type="curve" smooth="yes"/>
      <point x="779" y="86"/>
      <point x="836" y="186"/>
      <point x="836" y="295" type="curve" smooth="yes"/>
      <point x="836" y="411"/>
      <point x="771" y="504"/>
      <point x="656" y="504" type="curve" smooth="yes"/>
      <point x="559" y="504"/>
      <point x="472" y="421"/>
      <point x="436" y="307" type="curve"/>
      <point x="436" y="283" type="line"/>
      <point x="472" y="166"/>
      <point x="558" y="86"/>
    </contour>
    <contour>
      <point x="240" y="86" type="curve" smooth="yes"/>
      <point x="340" y="86"/>
      <point x="426" y="166"/>
      <point x="462" y="283" type="curve"/>
      <point x="462" y="307" type="line"/>
      <point x="426" y="421"/>
      <point x="339" y="504"/>
      <point x="242" y="504" type="curve" smooth="yes"/>
      <point x="127" y="504"/>
      <point x="62" y="411"/>
      <point x="62" y="295" type="curve" smooth="yes"/>
      <point x="62" y="186"/>
      <point x="119" y="86"/>
    </contour>
    <contour>
      <point x="240" y="117" type="curve"/>
      <point x="150" y="117"/>
      <point x="93" y="181"/>
      <point x="93" y="295" type="curve" smooth="yes"/>
      <point x="93" y="408"/>
      <point x="152" y="473"/>
      <point x="242" y="473" type="curve"/>
      <point x="323" y="473"/>
      <point x="401" y="401"/>
      <point x="433" y="295" type="curve"/>
      <point x="401" y="187"/>
      <point x="325" y="117"/>
    </contour>
    <contour>
      <point x="657" y="117" type="curve"/>
      <point x="573" y="117"/>
      <point x="496" y="188"/>
      <point x="466" y="295" type="curve"/>
      <point x="497" y="400"/>
      <point x="575" y="473"/>
      <point x="656" y="473" type="curve"/>
      <point x="746" y="473"/>
      <point x="805" y="408"/>
      <point x="805" y="295" type="curve" smooth="yes"/>
      <point x="805" y="181"/>
      <point x="748" y="117"/>
    </contour>
  </outline>
</glyph>
<glyph name="integral" format="2">
  <advance width="374"/>
  <unicode hex="222B"/>
  <outline>
    <contour>
      <point x="79" y="-202" type="curve" smooth="yes"/>
      <point x="142" y="-202"/>
      <point x="202" y="-167"/>
      <point x="202" y="-40" type="curve" smooth="yes"/>
      <point x="202" y="87"/>
      <point x="202" y="374"/>
      <point x="202" y="581" type="curve" smooth="yes"/>
      <point x="202" y="666"/>
      <point x="229" y="712"/>
      <point x="295" y="712" type="curve"/>
      <point x="321" y="712"/>
      <point x="340" y="708"/>
      <point x="360" y="701" type="curve"/>
      <point x="364" y="733" type="line"/>
      <point x="345" y="740"/>
      <point x="321" y="744"/>
      <point x="295" y="744" type="curve" smooth="yes"/>
      <point x="232" y="744"/>
      <point x="172" y="709"/>
      <point x="172" y="582" type="curve" smooth="yes"/>
      <point x="172" y="455"/>
      <point x="172" y="168"/>
      <point x="172" y="-39" type="curve" smooth="yes"/>
      <point x="172" y="-124"/>
      <point x="145" y="-170"/>
      <point x="79" y="-170" type="curve"/>
      <point x="53" y="-170"/>
      <point x="34" y="-166"/>
      <point x="14" y="-159" type="curve"/>
      <point x="10" y="-191" type="line"/>
      <point x="29" y="-198"/>
      <point x="53" y="-202"/>
    </contour>
  </outline>
</glyph>
<glyph name="lessequal" format="2">
  <advance width="560"/>
  <unicode hex="2264"/>
  <outline>
    <contour>
      <point x="490" y="163" type="curve"/>
      <point x="490" y="196" type="line"/>
      <point x="410" y="232"/>
      <point x="325" y="270"/>
      <point x="243" y="307" type="curve"/>
      <point x="112" y="366" type="line"/>
      <point x="112" y="372" type="line"/>
      <point x="243" y="431" type="line"/>
      <point x="325" y="468"/>
      <point x="410" y="506"/>
      <point x="490" y="542" type="curve"/>
      <point x="490" y="575" type="line"/>
      <point x="433" y="549"/>
      <point x="377" y="524"/>
      <point x="329" y="502" type="curve"/>
      <point x="229" y="457" type="line"/>
      <point x="183" y="436"/>
      <point x="127" y="411"/>
      <point x="70" y="385" type="curve"/>
      <point x="70" y="353" type="line"/>
      <point x="127" y="327"/>
      <point x="183" y="302"/>
      <point x="229" y="281" type="curve"/>
      <point x="329" y="236" type="line"/>
      <point x="377" y="214"/>
      <point x="433" y="189"/>
    </contour>
    <contour>
      <point x="70" y="0" type="line"/>
      <point x="128" y="0"/>
      <point x="183" y="0"/>
      <point x="230" y="0" type="curve"/>
      <point x="330" y="0" type="line"/>
      <point x="377" y="0"/>
      <point x="432" y="0"/>
      <point x="490" y="0" type="curve"/>
      <point x="490" y="30" type="line"/>
      <point x="432" y="30"/>
      <point x="377" y="30"/>
      <point x="330" y="30" type="curve"/>
      <point x="230" y="30" type="line"/>
      <point x="183" y="30"/>
      <point x="128" y="30"/>
      <point x="70" y="30" type="curve"/>
    </contour>
  </outline>
</glyph>
<glyph name="greaterequal" format="2">
  <advance width="560"/>
  <unicode hex="2265"/>
  <outline>
    <contour>
      <point x="70" y="0" type="line"/>
      <point x="128" y="0"/>
      <point x="183" y="0"/>
      <point x="230" y="0" type="curve"/>
      <point x="330" y="0" type="line"/>
      <point x="377" y="0"/>
      <point x="432" y="0"/>
      <point x="490" y="0" type="curve"/>
      <point x="490" y="30" type="line"/>
      <point x="432" y="30"/>
      <point x="377" y="30"/>
      <point x="330" y="30" type="curve"/>
      <point x="230" y="30" type="line"/>
      <point x="183" y="30"/>
      <point x="128" y="30"/>
      <point x="70" y="30" type="curve"/>
    </contour>
    <contour>
      <point x="70" y="163" type="line"/>
      <point x="127" y="189"/>
      <point x="183" y="214"/>
      <point x="231" y="236" type="curve"/>
      <point x="331" y="281" type="line"/>
      <point x="377" y="302"/>
      <point x="433" y="327"/>
      <point x="490" y="353" type="curve"/>
      <point x="490" y="385" type="line"/>
      <point x="433" y="411"/>
      <point x="377" y="436"/>
      <point x="331" y="457" type="curve"/>
      <point x="231" y="502" type="line"/>
      <point x="183" y="524"/>
      <point x="127" y="549"/>
      <point x="70" y="575" type="curve"/>
      <point x="70" y="542" type="line"/>
      <point x="150" y="506"/>
      <point x="235" y="468"/>
      <point x="317" y="431" type="curve"/>
      <point x="448" y="372" type="line"/>
      <point x="448" y="366" type="line"/>
      <point x="317" y="307" type="line"/>
      <point x="235" y="270"/>
      <point x="150" y="232"/>
      <point x="70" y="196" type="curve"/>
    </contour>
  </outline>
</glyph>
<glyph name="_exclam" format="2">
  <advance width="214"/>
  <outline>
    <contour>
      <point x="95" y="234" type="curve"/>
      <point x="121" y="235" type="line"/>
      <point x="121" y="403"/>
      <point x="127" y="570"/>
      <point x="133" y="734" type="curve"/>
      <point x="83" y="732" type="line"/>
      <point x="89" y="568"/>
      <point x="95" y="403"/>
    </contour>
  </outline>
</glyph>
<glyph name=".notdef" format="2">
  <advance width="635"/>
  <outline>
    <contour>
      <point x="50" y="-192" type="line"/>
      <point x="585" y="-192" type="line"/>
      <point x="585" y="818" type="line"/>
      <point x="50" y="818" type="line"/>
    </contour>
    <contour>
      <point x="308" y="9" type="curve" smooth="yes"/>
      <point x="332" y="9"/>
      <point x="346" y="23"/>
      <point x="346" y="46" type="curve" smooth="yes"/>
      <point x="346" y="70"/>
      <point x="332" y="84"/>
      <point x="308" y="84" type="curve" smooth="yes"/>
      <point x="286" y="84"/>
      <point x="271" y="70"/>
      <point x="271" y="46" type="curve" smooth="yes"/>
      <point x="271" y="23"/>
      <point x="286" y="9"/>
    </contour>
    <contour>
      <point x="80" y="-162" type="line"/>
      <point x="80" y="788" type="line"/>
      <point x="555" y="788" type="line"/>
      <point x="555" y="-162" type="line"/>
    </contour>
    <contour>
      <point x="329" y="191" type="curve" smooth="yes"/>
      <point x="350" y="191"/>
      <point x="373" y="195"/>
      <point x="386" y="199" type="curve"/>
      <point x="383" y="224" type="line"/>
      <point x="372" y="220"/>
      <point x="353" y="214"/>
      <point x="329" y="214" type="curve" smooth="yes"/>
      <point x="291" y="214"/>
      <point x="258" y="229"/>
      <point x="258" y="274" type="curve" smooth="yes"/>
      <point x="258" y="314"/>
      <point x="296" y="343"/>
      <point x="337" y="374" type="curve" smooth="yes"/>
      <point x="387" y="412"/>
      <point x="445" y="454"/>
      <point x="445" y="528" type="curve" smooth="yes"/>
      <point x="445" y="600"/>
      <point x="389" y="640"/>
      <point x="312" y="640" type="curve" smooth="yes"/>
      <point x="261" y="640"/>
      <point x="216" y="622"/>
      <point x="191" y="610" type="curve"/>
      <point x="193" y="582" type="line"/>
      <point x="235" y="603"/>
      <point x="274" y="614"/>
      <point x="313" y="614" type="curve" smooth="yes"/>
      <point x="379" y="614"/>
      <point x="419" y="584"/>
      <point x="419" y="529" type="curve" smooth="yes"/>
      <point x="419" y="466"/>
      <point x="369" y="427"/>
      <point x="321" y="392" type="curve" smooth="yes"/>
      <point x="276" y="359"/>
      <point x="232" y="326"/>
      <point x="232" y="274" type="curve" smooth="yes"/>
      <point x="232" y="224"/>
      <point x="272" y="191"/>
    </contour>
  </outline>
</glyph>
<glyph name="_notequal" format="2">
  <advance width="560"/>
  <outline>
    <contour>
      <point x="225" y="35" type="line"/>
      <point x="240" y="91"/>
      <point x="254" y="144"/>
      <point x="267" y="190" type="curve"/>
      <point x="321" y="393" type="line"/>
      <point x="333" y="438"/>
      <point x="347" y="491"/>
      <point x="362" y="547" type="curve"/>
      <point x="335" y="555" type="line"/>
      <point x="320" y="499"/>
      <point x="306" y="445"/>
      <point x="294" y="400" type="curve"/>
      <point x="240" y="197" type="line"/>
      <point x="227" y="152"/>
      <point x="213" y="99"/>
      <point x="198" y="43" type="curve"/>
    </contour>
  </outline>
</glyph>
<glyph name="acutecomb.case" format="2">
  <anchor x="300" y="494" name="_top"/>
  <anchor x="299" y="676" name="top"/>
  <outline>
    <contour>
      <point x="244" y="576" type="curve"/>
      <point x="277" y="577" type="line"/>
      <point x="329" y="635"/>
      <point x="380" y="692"/>
      <point x="432" y="751" type="curve"/>
      <point x="389" y="751" type="line"/>
      <point x="341" y="693"/>
      <point x="293" y="635"/>
    </contour>
  </outline>
</glyph>
<glyph name="brevecomb.narrow" format="2">
  <anchor x="300" y="494" name="_top"/>
  <anchor x="299" y="683" name="top"/>
  <outline>
    <contour>
      <point x="298" y="585" type="curve" smooth="yes"/>
      <point x="381" y="585"/>
      <point x="428" y="648"/>
      <point x="428" y="758" type="curve"/>
      <point x="400" y="758" type="line"/>
      <point x="400" y="656"/>
      <point x="362" y="616"/>
      <point x="298" y="616" type="curve"/>
      <point x="234" y="616"/>
      <point x="197" y="656"/>
      <point x="197" y="759" type="curve"/>
      <point x="169" y="758" type="line"/>
      <point x="169" y="649"/>
      <point x="216" y="585"/>
    </contour>
  </outline>
</glyph>
<glyph name="brevecomb_acutecomb.case" format="2">
  <anchor x="298.5" y="494" name="_top"/>
  <outline>
    <contour>
      <point x="298" y="575" type="curve" smooth="yes"/>
      <point x="390" y="575"/>
      <point x="441" y="638"/>
      <point x="441" y="718" type="curve"/>
      <point x="412" y="718" type="line"/>
      <point x="412" y="646"/>
      <point x="370" y="606"/>
      <point x="298" y="606" type="curve"/>
      <point x="227" y="606"/>
      <point x="185" y="646"/>
      <point x="185" y="719" type="curve"/>
      <point x="156" y="718" type="line"/>
      <point x="156" y="638"/>
      <point x="208" y="575"/>
    </contour>
    <contour>
      <point x="243" y="724" type="curve"/>
      <point x="276" y="725" type="line"/>
      <point x="328" y="783"/>
      <point x="379" y="840"/>
      <point x="431" y="899" type="curve"/>
      <point x="388" y="899" type="line"/>
      <point x="340" y="841"/>
      <point x="292" y="783"/>
    </contour>
  </outline>
</glyph>
<glyph name="brevecomb_hookabovecomb.case" format="2">
  <anchor x="298.5" y="494" name="_top"/>
  <outline>
    <contour>
      <point x="298" y="575" type="curve" smooth="yes"/>
      <point x="390" y="575"/>
      <point x="441" y="638"/>
      <point x="441" y="718" type="curve"/>
      <point x="412" y="718" type="line"/>
      <point x="412" y="646"/>
      <point x="370" y="606"/>
      <point x="298" y="606" type="curve"/>
      <point x="227" y="606"/>
      <point x="185" y="646"/>
      <point x="185" y="719" type="curve"/>
      <point x="156" y="718" type="line"/>
      <point x="156" y="638"/>
      <point x="208" y="575"/>
    </contour>
    <contour>
      <point x="278" y="704" type="line"/>
      <point x="308" y="704" type="line"/>
      <point x="308" y="739" type="line"/>
      <point x="344" y="744"/>
      <point x="396" y="771"/>
      <point x="396" y="827" type="curve" smooth="yes"/>
      <point x="396" y="879"/>
      <point x="349" y="904"/>
      <point x="302" y="904" type="curve" smooth="yes"/>
      <point x="268" y="904"/>
      <point x="233" y="891"/>
      <point x="210" y="879" type="curve"/>
      <point x="213" y="847" type="line"/>
      <point x="247" y="865"/>
      <point x="273" y="873"/>
      <point x="301" y="873" type="curve"/>
      <point x="335" y="873"/>
      <point x="365" y="861"/>
      <point x="365" y="827" type="curve" smooth="yes"/>
      <point x="365" y="790"/>
      <point x="328" y="764"/>
      <point x="278" y="757" type="curve"/>
    </contour>
  </outline>
</glyph>
<glyph name="brevecomb_tildecomb" format="2">
  <anchor x="299" y="494" name="_top"/>
  <outline>
    <contour>
      <point x="298" y="585" type="curve" smooth="yes"/>
      <point x="390" y="585"/>
      <point x="441" y="648"/>
      <point x="441" y="758" type="curve"/>
      <point x="412" y="758" type="line"/>
      <point x="412" y="656"/>
      <point x="370" y="616"/>
      <point x="298" y="616" type="curve"/>
      <point x="227" y="616"/>
      <point x="185" y="656"/>
      <point x="185" y="759" type="curve"/>
      <point x="156" y="758" type="line"/>
      <point x="156" y="648"/>
      <point x="208" y="585"/>
    </contour>
    <contour>
      <point x="380" y="807" type="curve" smooth="yes"/>
      <point x="432" y="807"/>
      <point x="463" y="846"/>
      <point x="463" y="918" type="curve"/>
      <point x="434" y="918" type="line"/>
      <point x="434" y="862"/>
      <point x="420" y="838"/>
      <point x="376" y="838" type="curve"/>
      <point x="320" y="838"/>
      <point x="295" y="931"/>
      <point x="218" y="931" type="curve" smooth="yes"/>
      <point x="166" y="931"/>
      <point x="135" y="892"/>
      <point x="135" y="820" type="curve"/>
      <point x="164" y="820" type="line"/>
      <point x="164" y="876"/>
      <point x="178" y="900"/>
      <point x="222" y="900" type="curve"/>
      <point x="278" y="900"/>
      <point x="303" y="807"/>
    </contour>
  </outline>
</glyph>
<glyph name="circumflexcomb.case" format="2">
  <anchor x="300" y="494" name="_top"/>
  <anchor x="299" y="725" name="top"/>
  <outline>
    <contour>
      <point x="431" y="575" type="curve"/>
      <point x="464" y="576" type="line"/>
      <point x="415" y="634"/>
      <point x="367" y="692"/>
      <point x="319" y="750" type="curve"/>
      <point x="278" y="750" type="line"/>
      <point x="330" y="690"/>
      <point x="379" y="634"/>
    </contour>
    <contour>
      <point x="133" y="577" type="curve"/>
      <point x="166" y="577" type="line"/>
      <point x="218" y="635"/>
      <point x="267" y="690"/>
      <point x="319" y="750" type="curve"/>
      <point x="278" y="750" type="line"/>
      <point x="229" y="692"/>
      <point x="182" y="634"/>
    </contour>
  </outline>
</glyph>
<glyph name="circumflexcomb.narrow" format="2">
  <anchor x="300" y="494" name="_top"/>
  <anchor x="299" y="745" name="top"/>
  <outline>
    <contour>
      <point x="415" y="585" type="curve"/>
      <point x="444" y="586" type="line"/>
      <point x="401" y="651"/>
      <point x="359" y="714"/>
      <point x="317" y="777" type="curve"/>
      <point x="280" y="777" type="line"/>
      <point x="326" y="712"/>
      <point x="369" y="650"/>
    </contour>
    <contour>
      <point x="153" y="587" type="curve"/>
      <point x="182" y="587" type="line"/>
      <point x="228" y="652"/>
      <point x="271" y="712"/>
      <point x="317" y="777" type="curve"/>
      <point x="280" y="777" type="line"/>
      <point x="237" y="713"/>
      <point x="196" y="651"/>
    </contour>
  </outline>
</glyph>
<glyph name="circumflexcomb_acutecomb" format="2">
  <anchor x="298.5" y="494" name="_top"/>
  <outline>
    <contour>
      <point x="400" y="740" type="curve"/>
      <point x="433" y="741" type="line"/>
      <point x="485" y="805"/>
      <point x="536" y="868"/>
      <point x="588" y="933" type="curve"/>
      <point x="545" y="932" type="line"/>
      <point x="497" y="869"/>
      <point x="449" y="804"/>
    </contour>
    <contour>
      <point x="133" y="587" type="curve"/>
      <point x="166" y="587" type="line"/>
      <point x="218" y="651"/>
      <point x="267" y="712"/>
      <point x="319" y="777" type="curve"/>
      <point x="278" y="777" type="line"/>
      <point x="229" y="714"/>
      <point x="182" y="650"/>
    </contour>
    <contour>
      <point x="431" y="585" type="curve"/>
      <point x="464" y="586" type="line"/>
      <point x="415" y="650"/>
      <point x="367" y="714"/>
      <point x="319" y="777" type="curve"/>
      <point x="278" y="777" type="line"/>
      <point x="330" y="712"/>
      <point x="379" y="650"/>
    </contour>
  </outline>
</glyph>
<glyph name="circumflexcomb_hookabovecomb.case" format="2">
  <anchor x="300" y="494" name="_top"/>
  <outline>
    <contour>
      <point x="133" y="577" type="curve"/>
      <point x="166" y="577" type="line"/>
      <point x="218" y="635"/>
      <point x="267" y="690"/>
      <point x="319" y="750" type="curve"/>
      <point x="278" y="750" type="line"/>
      <point x="229" y="692"/>
      <point x="182" y="634"/>
    </contour>
    <contour>
      <point x="431" y="575" type="curve"/>
      <point x="464" y="576" type="line"/>
      <point x="415" y="634"/>
      <point x="367" y="692"/>
      <point x="319" y="750" type="curve"/>
      <point x="278" y="750" type="line"/>
      <point x="330" y="690"/>
      <point x="379" y="634"/>
    </contour>
    <contour>
      <point x="423" y="704" type="line"/>
      <point x="453" y="704" type="line"/>
      <point x="453" y="739" type="line"/>
      <point x="489" y="744"/>
      <point x="541" y="771"/>
      <point x="541" y="827" type="curve" smooth="yes"/>
      <point x="541" y="879"/>
      <point x="494" y="904"/>
      <point x="447" y="904" type="curve" smooth="yes"/>
      <point x="413" y="904"/>
      <point x="378" y="891"/>
      <point x="355" y="879" type="curve"/>
      <point x="358" y="847" type="line"/>
      <point x="392" y="865"/>
      <point x="418" y="873"/>
      <point x="446" y="873" type="curve"/>
      <point x="480" y="873"/>
      <point x="510" y="861"/>
      <point x="510" y="827" type="curve" smooth="yes"/>
      <point x="510" y="790"/>
      <point x="473" y="764"/>
      <point x="423" y="757" type="curve"/>
    </contour>
  </outline>
</glyph>
<glyph name="circumflexcomb_tildecomb.case" format="2">
  <anchor x="300" y="494" name="_top"/>
  <outline>
    <contour>
      <point x="133" y="577" type="curve"/>
      <point x="166" y="577" type="line"/>
      <point x="218" y="635"/>
      <point x="267" y="690"/>
      <point x="319" y="750" type="curve"/>
      <point x="278" y="750" type="line"/>
      <point x="229" y="692"/>
      <point x="182" y="634"/>
    </contour>
    <contour>
      <point x="431" y="575" type="curve"/>
      <point x="464" y="576" type="line"/>
      <point x="415" y="634"/>
      <point x="367" y="692"/>
      <point x="319" y="750" type="curve"/>
      <point x="278" y="750" type="line"/>
      <point x="330" y="690"/>
      <point x="379" y="634"/>
    </contour>
    <contour>
      <point x="380" y="777" type="curve" smooth="yes"/>
      <point x="432" y="777"/>
      <point x="463" y="816"/>
      <point x="463" y="888" type="curve"/>
      <point x="434" y="888" type="line"/>
      <point x="434" y="832"/>
      <point x="420" y="808"/>
      <point x="376" y="808" type="curve"/>
      <point x="320" y="808"/>
      <point x="295" y="901"/>
      <point x="218" y="901" type="curve" smooth="yes"/>
      <point x="166" y="901"/>
      <point x="135" y="862"/>
      <point x="135" y="790" type="curve"/>
      <point x="164" y="790" type="line"/>
      <point x="164" y="846"/>
      <point x="178" y="870"/>
      <point x="222" y="870" type="curve"/>
      <point x="278" y="870"/>
      <point x="303" y="777"/>
    </contour>
  </outline>
</glyph>
<glyph name="colonsign.BRACKET.140" format="2">
  <advance width="656"/>
  <outline>
    <contour>
      <point x="399" y="-9" type="curve" smooth="yes"/>
      <point x="466" y="-9"/>
      <point x="541" y="6"/>
      <point x="597" y="45" type="curve"/>
      <point x="591" y="79" type="line"/>
      <point x="532" y="37"/>
      <point x="462" y="23"/>
      <point x="397" y="23" type="curve"/>
      <point x="198" y="23"/>
      <point x="92" y="166"/>
      <point x="92" y="344" type="curve" smooth="yes"/>
      <point x="92" y="537"/>
      <point x="213" y="664"/>
      <point x="385" y="664" type="curve"/>
      <point x="452" y="664"/>
      <point x="524" y="647"/>
      <point x="597" y="604" type="curve"/>
      <point x="602" y="638" type="line"/>
      <point x="558" y="663"/>
      <point x="478" y="696"/>
      <point x="386" y="696" type="curve" smooth="yes"/>
      <point x="200" y="696"/>
      <point x="60" y="553"/>
      <point x="60" y="345" type="curve" smooth="yes"/>
      <point x="60" y="147"/>
      <point x="189" y="-9"/>
    </contour>
    <contour>
      <point x="183" y="-137" type="curve"/>
      <point x="214" y="-137" type="line"/>
      <point x="228" y="-73"/>
      <point x="240" y="-14"/>
      <point x="253" y="45" type="curve"/>
      <point x="222" y="45" type="line"/>
      <point x="209" y="-14"/>
      <point x="197" y="-73"/>
    </contour>
    <contour>
      <point x="310" y="-137" type="curve"/>
      <point x="341" y="-137" type="line"/>
      <point x="352" y="-86"/>
      <point x="362" y="-38"/>
      <point x="372" y="9" type="curve"/>
      <point x="341" y="9" type="line"/>
      <point x="331" y="-38"/>
      <point x="321" y="-86"/>
    </contour>
    <contour>
      <point x="356" y="675" type="curve"/>
      <point x="387" y="675" type="line"/>
      <point x="395" y="716"/>
      <point x="405" y="759"/>
      <point x="414" y="803" type="curve"/>
      <point x="383" y="803" type="line"/>
      <point x="374" y="759"/>
      <point x="364" y="716"/>
    </contour>
    <contour>
      <point x="480" y="664" type="curve"/>
      <point x="511" y="664" type="line"/>
      <point x="521" y="709"/>
      <point x="531" y="755"/>
      <point x="541" y="803" type="curve"/>
      <point x="510" y="803" type="line"/>
      <point x="500" y="755"/>
      <point x="490" y="709"/>
    </contour>
  </outline>
</glyph>
